<?xml version="1.0" standalone="no"?>
<!DOCTYPE svg PUBLIC "-//W3C//DTD SVG 20010904//EN"
 "http://www.w3.org/TR/2001/REC-SVG-20010904/DTD/svg10.dtd">
<svg version="1.0" xmlns="http://www.w3.org/2000/svg"
 width="1280.000000pt" height="640.000000pt" viewBox="0 0 1280.000000 640.000000"
 preserveAspectRatio="xMidYMid meet">
<metadata>
Created by potrace 1.15, written by Peter Selinger 2001-2017
</metadata>
<g transform="translate(0.000000,640.000000) scale(0.100000,-0.100000)"
fill="#000000" stroke="none">
<path d="M2 3231 c1 -1666 7 -3033 11 -3038 5 -4 248 -11 540 -14 812 -10
12115 -33 12179 -25 l57 7 7 57 c8 63 -2 4458 -13 5409 l-6 601 -111 6 c-110
7 -8558 26 -11254 26 l-1414 0 4 -3029z m6603 2959 c1931 -5 3520 -12 3533
-16 18 -5 2 -16 -90 -59 -62 -28 -184 -87 -271 -129 -147 -72 -164 -83 -253
-168 -57 -55 -109 -116 -130 -152 -20 -34 -44 -70 -54 -81 -11 -11 -35 -52
-55 -90 -47 -91 -101 -170 -188 -275 -88 -107 -104 -142 -133 -304 -14 -72
-31 -153 -39 -180 -8 -27 -15 -60 -15 -74 0 -13 -11 -56 -24 -95 -17 -49 -26
-102 -28 -165 l-4 -93 29 7 c21 4 54 -3 114 -27 92 -35 111 -57 93 -105 -12
-29 -106 -77 -260 -130 -52 -18 -153 -53 -223 -78 -301 -108 -559 -170 -832
-200 -123 -14 -373 -35 -795 -66 -69 -5 -203 -10 -299 -10 l-174 0 -73 70
c-40 39 -89 78 -111 87 -51 22 -218 28 -413 14 -166 -11 -259 -30 -302 -61
-35 -26 -55 -25 -240 6 -261 44 -648 148 -763 206 -75 38 -85 53 -85 133 0 60
-5 81 -34 140 -47 99 -55 104 -182 118 l-109 12 -26 99 c-20 72 -37 112 -65
151 -68 94 -176 215 -309 349 -140 141 -196 178 -370 245 -43 17 -102 46 -130
65 -87 58 -125 72 -300 114 -132 32 -205 44 -325 52 -85 6 -186 18 -225 27
-83 20 -286 22 -355 3 -25 -6 -74 -16 -110 -20 -72 -10 -166 -36 -250 -70 -97
-38 -254 -128 -296 -168 -23 -22 -88 -68 -145 -102 -102 -61 -173 -106 -236
-152 -18 -13 -53 -52 -79 -88 -104 -142 -188 -241 -226 -267 -28 -19 -46 -41
-54 -67 -8 -21 -30 -61 -51 -90 -80 -111 -108 -204 -143 -481 -26 -197 -47
-303 -67 -333 -12 -19 -20 -23 -41 -17 -30 7 -188 31 -273 40 l-57 6 -7 302
c-4 166 -4 597 -1 957 3 360 5 664 5 675 0 11 -2 141 -5 289 l-5 268 1523 -7
c838 -3 3102 -10 5033 -15z m5691 -29 c17 -11 87 -49 155 -86 155 -84 209
-123 244 -177 23 -35 26 -46 18 -69 -7 -18 -7 -32 1 -45 13 -22 16 -1031 3
-1076 -4 -16 -12 -28 -18 -28 -6 0 -25 -15 -42 -32 -50 -51 -277 -241 -324
-273 -23 -15 -45 -35 -48 -44 -3 -9 -73 -86 -155 -171 -82 -85 -150 -161 -150
-167 0 -7 -4 -13 -10 -13 -5 0 -16 -13 -25 -30 -9 -16 -22 -30 -30 -30 -8 0
-15 -6 -15 -13 0 -8 -42 -57 -93 -110 -66 -69 -99 -97 -116 -97 -13 0 -51 12
-85 26 -33 14 -74 32 -91 39 -16 7 -55 20 -86 29 -31 8 -62 23 -69 31 -7 8
-24 15 -39 15 -14 0 -53 12 -86 26 -33 14 -87 34 -120 45 -33 10 -69 23 -80
28 -11 4 -54 22 -95 38 -180 73 -343 145 -403 177 -86 47 -351 160 -424 182
-32 9 -72 23 -90 30 -17 8 -38 14 -47 14 -9 0 -19 7 -22 15 -5 12 -10 13 -20
4 -7 -6 -19 -7 -26 -3 -6 4 -68 16 -138 26 -194 28 -535 21 -710 -14 -88 -17
-131 -21 -140 -12 -11 11 7 109 26 145 9 18 37 39 76 58 63 31 379 116 540
146 47 9 101 20 120 26 18 5 105 25 193 45 210 46 198 41 191 69 -5 21 0 24
62 41 37 10 72 25 78 33 9 11 25 13 77 7 36 -3 79 -11 96 -17 39 -14 65 -5 28
10 -51 20 -221 45 -225 32 -2 -6 -12 -15 -21 -21 -17 -9 -192 -48 -440 -100
-103 -21 -171 -46 -171 -62 0 -14 -65 -38 -101 -38 -17 0 -52 -7 -78 -15 -83
-27 -163 -48 -177 -48 -8 0 -14 -4 -14 -9 0 -4 -15 -8 -33 -8 -18 0 -37 -4
-43 -9 -14 -14 -137 -61 -145 -56 -8 6 9 70 41 160 15 42 24 93 27 171 l6 112
94 118 c52 66 130 173 174 239 143 215 284 377 400 455 59 41 288 152 504 246
l90 39 235 5 c129 4 573 7 985 8 721 2 751 1 781 -17z m427 2 c6 -3 7 -41 3
-87 -3 -44 -6 -90 -6 -100 0 -18 -4 -16 -32 11 -45 41 -108 82 -205 133 -46
23 -83 47 -83 53 0 10 305 1 323 -10z m-10308 -723 c6 -10 -53 -28 -178 -55
-82 -17 -202 -71 -232 -105 -10 -11 -13 -20 -7 -20 6 0 14 5 17 10 3 6 16 10
29 10 12 0 26 4 32 9 5 4 50 14 99 20 220 29 356 54 351 65 -20 49 -23 46 62
46 81 0 112 -6 112 -20 0 -4 -12 -11 -27 -15 -16 -3 -44 -17 -63 -29 -19 -13
-70 -44 -112 -70 -78 -47 -95 -62 -84 -73 11 -11 121 30 238 88 65 33 128 59
140 59 12 0 29 7 39 16 16 15 28 14 141 -4 137 -23 250 -58 350 -108 37 -19
72 -34 78 -34 22 0 158 -68 179 -89 11 -11 21 -33 21 -48 0 -21 3 -24 12 -15
7 7 20 12 30 12 17 0 148 -115 148 -130 0 -4 -31 -10 -68 -13 -38 -4 -116 -20
-173 -37 -57 -16 -142 -37 -189 -45 -201 -37 -396 -88 -438 -114 -96 -59 -182
-122 -182 -133 0 -9 3 -9 12 0 7 7 22 12 33 12 12 0 24 3 28 6 3 4 34 17 69
29 35 13 91 35 125 49 38 16 123 37 214 51 98 17 169 34 204 50 32 16 108 35
196 50 79 14 154 29 167 35 32 14 29 16 63 -40 17 -28 44 -57 59 -65 31 -16
111 -109 136 -157 8 -15 26 -83 40 -151 22 -106 26 -150 27 -332 l2 -210 -44
-105 c-89 -217 -85 -214 -298 -171 -292 59 -967 180 -1153 207 -52 8 -156 17
-230 20 l-135 6 -177 -45 c-97 -25 -203 -57 -236 -72 l-60 -27 -38 42 c-88 97
-165 206 -193 273 -27 66 -105 347 -97 354 1 2 23 -14 47 -35 50 -43 125 -92
220 -145 102 -56 103 -60 12 -90 -76 -24 -77 -25 -35 -26 62 -1 229 25 367 59
221 53 436 81 715 95 69 3 152 8 185 12 90 10 35 21 -110 22 -164 2 -130 17
71 32 87 6 166 15 174 20 27 15 -361 10 -482 -6 -205 -28 -519 -102 -567 -134
-18 -11 -48 -16 -107 -16 -77 0 -85 2 -121 31 -51 41 -113 131 -113 163 0 27
-24 71 -39 71 -9 0 2 -75 18 -129 13 -41 9 -48 -21 -34 -84 39 -254 227 -274
304 -13 51 -30 207 -39 369 l-6 106 37 18 c21 9 92 53 158 95 150 97 171 104
278 96 76 -7 85 -5 111 15 15 12 27 30 27 41 0 12 14 26 38 38 21 11 44 27 51
35 11 13 41 16 187 16 100 0 175 -4 179 -10z m-1081 -392 c3 -13 8 -75 11
-138 12 -233 57 -507 116 -710 39 -134 102 -253 207 -392 45 -60 125 -173 176
-251 142 -216 229 -323 371 -458 228 -214 327 -293 460 -364 39 -21 88 -50
110 -64 36 -23 175 -97 508 -270 79 -41 106 -60 101 -71 -3 -8 -17 -55 -31
-105 -15 -51 -36 -100 -50 -115 -12 -13 -23 -28 -23 -31 0 -15 -254 -238 -277
-244 -14 -3 -37 -14 -51 -23 -14 -9 -53 -26 -86 -38 -102 -35 -226 -91 -239
-106 -7 -8 -41 -31 -77 -51 -36 -20 -81 -49 -100 -66 -30 -25 -32 -30 -15 -31
32 0 153 47 242 95 75 41 190 81 200 71 14 -14 -88 -146 -113 -146 -10 0 -14
-14 -14 -57 0 -51 -4 -64 -38 -108 -23 -31 -60 -62 -100 -85 -92 -52 -158
-113 -199 -186 -28 -48 -43 -64 -59 -64 -12 0 -60 20 -106 43 -159 84 -393
214 -463 259 -38 25 -82 51 -97 59 -37 19 -182 123 -243 173 -27 23 -89 72
-136 108 -96 75 -127 111 -154 183 -24 67 -82 183 -109 220 -12 17 -35 59 -50
95 -16 36 -67 139 -114 229 -84 161 -209 449 -219 504 -3 15 -9 27 -14 27 -4
0 -18 30 -30 68 -20 62 -22 92 -26 392 -3 180 0 343 5 365 l9 40 6 -65 c3 -36
11 -119 17 -185 12 -130 66 -412 100 -515 12 -36 41 -137 66 -225 25 -88 54
-185 66 -215 29 -75 115 -247 127 -255 6 -3 17 -20 26 -38 8 -18 32 -51 54
-74 l39 -43 43 15 c113 40 284 159 387 269 73 79 117 155 198 346 34 80 78
180 98 223 43 94 45 131 10 235 -48 146 -184 408 -290 562 -81 118 -139 261
-174 436 -11 55 -27 120 -35 144 -8 23 -15 53 -15 66 0 12 -4 26 -10 29 -5 3
-10 15 -10 25 0 10 -6 31 -14 47 -51 99 -76 216 -76 350 0 62 2 67 36 99 41
40 62 43 68 12z m-117 -195 c10 -116 16 -150 42 -211 17 -40 34 -101 39 -135
38 -257 80 -407 167 -596 36 -78 65 -147 65 -154 0 -9 -35 -12 -128 -13 -203
-1 -421 -50 -562 -125 -63 -34 -86 -52 -117 -92 l-21 -28 -6 28 c-10 53 -27
368 -29 558 l-2 190 46 80 c26 44 59 105 74 135 32 64 81 120 106 120 24 0 35
20 18 31 -34 21 236 349 287 349 6 0 15 -53 21 -137z m11503 -266 c0 -22 -8
-41 -22 -54 -43 -38 -103 -73 -125 -73 -18 0 -23 -6 -23 -25 0 -14 -4 -25 -9
-25 -11 0 -75 -53 -190 -157 -90 -82 -111 -95 -111 -70 0 22 325 332 434 415
39 30 46 28 46 -11z m7 -640 c-2 -184 -7 -331 -13 -336 -5 -5 -40 -5 -79 0
-38 5 -209 14 -380 19 -170 6 -322 13 -337 16 -38 9 -35 28 11 88 59 75 265
276 285 276 9 0 21 12 27 27 10 28 163 183 180 183 5 0 9 5 9 10 0 6 6 10 14
10 8 0 18 9 21 20 8 25 133 132 200 171 l50 29 8 -93 c4 -50 6 -239 4 -420z
m-8348 427 c96 -38 125 -156 78 -320 -14 -49 -29 -105 -34 -124 -6 -26 -15
-36 -32 -38 -23 -4 -23 -2 -17 43 12 78 23 245 18 271 -5 29 -54 72 -90 80
-15 3 -33 7 -39 9 -15 5 -53 64 -53 83 0 18 121 16 169 -4z m5317 -14 c231
-18 476 -93 794 -245 123 -59 233 -111 246 -115 25 -10 33 -30 12 -30 -7 0
-40 7 -73 15 -85 20 -93 19 -65 -10 22 -24 73 -47 135 -60 l30 -7 -34 -11
c-38 -13 -54 -37 -24 -37 10 1 47 7 83 15 95 21 113 19 70 -7 -19 -11 -52 -32
-73 -45 l-37 -23 20 -41 c12 -22 26 -42 33 -45 7 -2 64 19 127 47 158 71 195
73 337 24 126 -45 138 -52 122 -72 -17 -20 -5 -26 25 -12 21 10 38 10 79 -1
64 -16 157 -56 157 -67 0 -21 -133 -137 -210 -183 -47 -28 -292 -155 -545
-281 l-460 -230 -255 -25 c-322 -30 -437 -47 -627 -90 -175 -39 -217 -43 -209
-16 22 73 43 207 61 393 15 161 28 198 68 200 47 3 63 -3 87 -31 42 -48 130
-90 130 -62 0 18 -41 71 -59 77 -35 11 -26 55 24 119 38 50 58 96 40 96 -3 0
-61 -28 -130 -62 -144 -72 -145 -72 -145 27 l0 60 40 -45 c46 -53 53 -35 12
31 -34 53 -57 73 -72 64 -7 -4 -26 0 -43 9 -18 9 -52 21 -76 27 -41 10 -43 12
-27 27 15 15 37 17 162 14 80 -2 154 0 165 3 39 13 6 25 -67 25 -54 0 -75 3
-72 12 6 18 26 25 103 38 39 6 78 14 88 17 28 7 20 21 -15 25 -32 3 -32 4 31
37 53 27 62 35 48 43 -28 15 -268 62 -327 63 -30 1 -64 6 -75 12 -24 13 -70
-3 -121 -42 -38 -29 -56 -31 -75 -9 -9 11 -10 20 -2 33 20 32 24 98 13 202 -6
57 -14 114 -17 126 -4 19 0 22 39 26 90 8 438 6 554 -3z m-636 -20 c0 -5 -4
-10 -9 -10 -6 0 -13 5 -16 10 -3 6 1 10 9 10 9 0 16 -4 16 -10z m-4702 -117
c6 -9 12 -30 12 -46 l0 -29 -29 30 c-16 16 -44 35 -62 42 -28 12 -30 15 -13
22 27 11 77 1 92 -19z m7863 -81 c-10 -19 -106 -112 -116 -112 -15 0 0 23 49
74 54 56 87 74 67 38z m-155 -150 c-18 -16 -18 -16 -6 6 6 13 14 21 18 18 3
-4 -2 -14 -12 -24z m-3014 -119 c-7 -12 -7 -25 -1 -34 14 -22 11 -28 -11 -22
-29 8 -37 49 -14 74 21 24 41 10 26 -18z m1928 -8 c0 -7 -181 -97 -187 -92 -6
6 50 40 117 71 55 26 70 30 70 21z m-8415 -29 c165 -25 298 -49 615 -111 102
-20 298 -56 435 -81 138 -25 279 -52 316 -60 l65 -15 -61 -123 c-34 -67 -74
-163 -89 -212 -16 -49 -32 -98 -36 -109 -4 -11 -49 -45 -100 -75 -100 -60
-156 -114 -165 -157 -3 -16 -21 -75 -40 -133 -43 -132 -70 -229 -85 -302 -12
-62 -25 -71 -55 -38 -9 10 -34 25 -54 31 -61 20 -600 307 -701 373 -165 109
-474 380 -531 467 -85 128 -111 167 -143 209 -42 56 -146 220 -146 231 0 13
117 45 280 79 80 16 159 34 175 39 51 16 153 12 320 -13z m1871 -35 c2 -66 40
-88 100 -56 35 19 108 12 169 -15 46 -20 129 -104 168 -171 33 -56 77 -166 77
-191 0 -25 -26 -33 -56 -17 -34 18 -125 -1 -220 -45 -84 -40 -140 -86 -160
-135 l-15 -36 -29 32 c-46 51 -65 129 -65 268 0 106 3 127 25 174 l24 54 -37
71 c-48 91 -49 121 -2 114 16 -2 20 -11 21 -47z m1704 9 c111 -13 186 -27 213
-39 62 -28 284 -233 291 -268 19 -91 46 -350 46 -438 0 -127 -24 -267 -53
-314 -12 -20 -40 -78 -63 -128 -23 -51 -51 -108 -63 -125 -19 -30 -21 -31 -21
-10 0 12 13 57 30 100 67 175 65 225 -18 381 -31 58 -65 125 -76 149 -11 23
-27 42 -35 42 -8 0 -47 21 -85 47 -75 50 -207 111 -301 138 -42 13 -83 16
-154 13 -82 -4 -110 -10 -191 -42 -139 -56 -225 -110 -307 -192 -68 -68 -97
-114 -149 -239 -16 -39 -16 54 0 103 8 26 30 92 47 147 18 55 38 109 44 120
14 23 31 104 19 92 -4 -4 -22 -33 -40 -65 -38 -65 -40 -58 -24 67 9 69 13 77
64 135 105 119 255 264 300 291 26 15 66 33 89 40 62 20 243 18 437 -5z m3040
-65 c16 -9 19 -14 9 -15 -8 0 -24 7 -35 15 -24 18 -7 19 26 0z m-7770 -60 c49
-10 75 -11 108 -3 35 9 46 8 60 -6 10 -8 74 -130 141 -270 l124 -255 -83 -193
c-167 -391 -196 -429 -467 -606 -179 -118 -173 -115 -193 -97 -24 22 -57 101
-70 167 -6 32 -18 64 -26 72 -8 8 -14 21 -14 29 0 8 -7 17 -15 20 -24 10 -51
75 -149 368 -126 377 -148 509 -86 509 31 0 89 58 120 120 24 47 36 60 70 74
23 9 45 14 49 11 5 -2 10 -42 13 -88 5 -81 22 -131 56 -169 8 -10 19 -18 24
-18 11 0 10 95 -2 199 -5 47 -8 87 -5 89 7 8 229 60 255 61 14 0 54 -6 90 -14z
m10543 -113 c63 -56 -86 -299 -249 -407 -54 -36 -90 -85 -80 -110 4 -11 13
-11 55 0 67 17 108 44 153 99 102 122 158 249 158 357 l0 59 93 -1 c117 -1
210 -12 214 -26 2 -6 29 -24 59 -39 l54 -27 98 12 c111 15 118 17 101 37 -11
13 -4 15 47 12 l59 -3 3 -36 3 -36 -118 -6 c-127 -6 -166 -13 -157 -29 4 -7
55 -8 145 -3 l139 7 0 -326 0 -326 -47 -35 c-28 -20 -60 -35 -77 -35 -16 0
-60 -19 -100 -44 -39 -24 -132 -76 -206 -116 -74 -40 -146 -81 -160 -90 -14
-10 -95 -55 -180 -100 -85 -45 -215 -116 -288 -158 -73 -41 -134 -73 -136 -71
-24 29 -137 253 -175 349 -52 130 -118 352 -128 431 -10 85 14 116 385 491
l215 216 51 -15 c28 -8 59 -22 69 -31z m-303 -29 c0 -3 -55 -63 -123 -132 -67
-69 -169 -175 -226 -234 l-103 -108 4 -142 c5 -119 10 -159 36 -247 17 -58 38
-141 47 -185 10 -44 23 -87 30 -95 19 -23 75 -137 75 -154 0 -8 27 -42 60 -76
33 -34 60 -68 60 -77 0 -11 4 -13 13 -6 6 6 28 16 47 22 20 6 70 31 112 55 43
24 80 41 83 38 3 -3 5 0 5 6 0 6 19 20 43 30 23 11 98 51 167 91 69 40 135 74
148 78 12 3 22 9 22 13 0 5 12 15 28 23 47 24 227 129 236 138 6 5 14 9 20 9
5 0 -3 -14 -20 -31 -31 -33 -169 -129 -185 -129 -6 0 -22 -14 -36 -30 -29 -35
-105 -90 -125 -90 -7 0 -19 -9 -26 -20 -7 -11 -19 -20 -26 -20 -8 0 -30 -15
-48 -34 -18 -19 -55 -49 -83 -68 -27 -18 -84 -58 -125 -89 -159 -117 -249
-179 -262 -179 -7 0 -21 -14 -30 -30 -11 -20 -22 -28 -32 -24 -10 4 -16 1 -16
-7 -1 -14 -86 -74 -105 -74 -5 0 -16 -8 -23 -17 -16 -21 -182 -152 -186 -147
-2 2 -8 13 -14 24 -10 18 -11 17 -12 -10 0 -23 -3 -27 -10 -15 -8 13 -10 12
-10 -3 0 -17 -12 -26 -42 -31 -7 -1 -26 -10 -41 -20 -17 -12 -47 -19 -77 -20
-33 -1 -50 -5 -50 -13 0 -7 -9 -13 -19 -13 -11 0 -26 -6 -33 -14 -8 -7 -27
-16 -43 -19 -60 -12 -121 -32 -145 -49 -13 -10 -40 -21 -60 -24 -19 -4 -47
-13 -61 -20 -15 -7 -55 -20 -90 -28 -35 -8 -107 -27 -159 -41 -130 -35 -139
-33 -157 34 -7 30 -25 69 -38 87 -13 17 -43 67 -65 110 -23 42 -50 89 -61 103
-42 54 -70 98 -90 141 -12 25 -26 48 -32 51 -11 8 -45 63 -91 150 -19 36 -41
71 -50 78 -8 7 -18 26 -21 42 -4 16 -23 53 -42 82 -43 63 -106 187 -99 194 9
10 76 -19 98 -42 13 -14 31 -25 41 -25 31 0 88 -31 124 -67 26 -27 33 -30 33
-16 1 17 1 17 15 -1 7 -10 18 -15 23 -12 6 3 22 2 36 -4 18 -7 26 -17 26 -34
0 -13 -5 -26 -12 -28 -7 -3 -9 -12 -5 -22 9 -23 24 -12 32 23 8 39 30 57 49
42 14 -12 46 -5 46 10 0 13 -60 54 -135 92 -86 42 -115 52 -115 38 0 -6 7 -11
15 -11 8 0 15 -7 15 -15 0 -20 -8 -19 -55 10 -22 13 -82 44 -132 69 -77 37
-93 49 -94 68 0 13 -3 17 -6 10 -2 -6 -10 -9 -16 -5 -7 4 -19 8 -27 8 -34 0
-84 114 -97 222 -5 49 -4 52 18 58 103 24 440 88 536 100 65 9 206 20 313 24
210 9 242 16 355 81 114 65 196 107 510 264 182 90 342 167 357 170 14 3 66
42 115 85 95 86 93 84 93 74z m-11165 -92 c3 -6 12 -65 20 -133 26 -213 73
-364 180 -583 30 -60 63 -134 74 -163 31 -79 120 -243 234 -431 43 -71 46 -82
35 -101 -11 -17 -8 -34 20 -116 54 -158 133 -293 232 -394 124 -126 258 -223
335 -240 l30 -7 -30 -12 c-48 -20 -136 -38 -365 -76 -219 -37 -330 -62 -330
-75 0 -15 220 -18 273 -4 29 8 53 14 55 14 1 0 7 -12 12 -26 10 -25 13 -26 62
-20 53 7 204 57 355 117 122 48 117 56 111 -179 l-5 -197 19 55 c12 33 23 98
27 163 8 121 17 139 56 113 23 -15 26 -23 21 -54 -3 -20 -8 -81 -12 -134 -9
-142 11 -125 27 22 13 121 22 155 37 134 10 -16 172 -86 272 -119 47 -15 89
-31 94 -36 5 -5 -6 -31 -27 -61 -21 -29 -42 -69 -47 -88 -13 -44 -13 -100 0
-100 13 0 59 51 67 75 3 11 13 31 21 43 9 13 17 35 18 50 5 46 26 81 60 101
18 11 40 35 47 53 16 37 54 75 64 64 4 -4 2 -11 -6 -15 -10 -7 -9 -24 4 -94
19 -92 14 -167 -10 -187 -13 -11 -15 -6 -15 26 0 50 -13 36 -49 -52 -28 -68
-28 -69 -141 -146 -63 -43 -116 -75 -119 -72 -3 2 20 29 49 59 30 30 49 55 43
55 -23 0 -204 -147 -373 -305 -140 -130 -190 -161 -190 -115 0 11 11 59 25
106 14 47 25 91 24 98 -1 20 -50 -98 -60 -147 -19 -87 37 -81 -664 -73 -341 3
-700 9 -797 13 l-178 6 0 863 c0 565 3 865 10 869 13 8 24 -21 71 -195 65
-241 71 -284 78 -622 4 -223 9 -310 18 -319 7 -7 15 -11 17 -8 13 12 26 147
26 260 0 295 -42 524 -176 956 l-44 142 2 516 3 517 78 28 c42 16 90 38 105
50 177 135 212 155 227 131z m4375 -171 c-27 -21 -231 -116 -280 -130 -67 -19
-18 40 70 86 61 31 164 64 200 64 l35 0 -25 -20z m1163 5 c84 -18 168 -55 214
-95 18 -17 56 -41 82 -55 27 -13 63 -41 80 -61 44 -55 118 -205 126 -258 8
-50 -9 -139 -30 -156 -16 -14 -73 8 -116 44 -68 58 -178 61 -232 7 l-32 -31
33 0 c30 0 32 -2 32 -35 0 -31 3 -35 36 -41 19 -3 85 -1 145 6 60 7 112 11
114 8 6 -5 -45 -159 -58 -176 -7 -9 -26 -12 -56 -9 -75 8 -114 22 -207 75
-137 77 -175 87 -339 86 -110 0 -169 -6 -276 -27 -75 -15 -145 -27 -155 -27
-24 0 -76 67 -133 171 l-41 76 26 64 c80 196 113 235 259 305 126 61 368 138
445 143 8 0 46 -6 83 -14z m-786 -107 c-3 -8 -6 -5 -6 6 -1 11 2 17 5 13 3 -3
4 -12 1 -19z m-1367 -71 c0 -10 -4 -15 -10 -12 -5 3 -10 18 -10 33 0 21 2 24
10 12 5 -8 10 -23 10 -33z m-220 -186 c0 -12 -54 -51 -69 -51 -19 0 -12 18 15
39 28 22 54 28 54 12z m5065 -45 c116 -58 195 -138 195 -199 0 -13 10 -36 21
-51 47 -59 77 -194 48 -212 -7 -4 -22 7 -35 24 -26 33 -74 52 -191 77 -40 8
-89 21 -108 29 -19 8 -35 11 -35 5 0 -5 -21 -9 -46 -9 -35 0 -69 -12 -146 -50
-63 -31 -108 -48 -119 -45 -14 5 -19 1 -19 -12 0 -13 -3 -14 -8 -5 -6 9 -11 6
-20 -12 -14 -32 -124 -98 -148 -89 -14 5 -16 2 -12 -15 4 -13 -1 -31 -13 -46
-11 -14 -29 -46 -40 -71 -11 -25 -22 -45 -25 -45 -17 0 69 268 98 305 15 20
27 26 45 22 22 -4 24 -2 20 20 -3 15 1 27 9 30 8 3 14 10 14 16 0 5 16 30 36
54 38 46 39 73 4 73 -13 0 -20 -7 -20 -19 0 -10 -7 -21 -15 -25 -8 -3 -15 -12
-15 -21 0 -8 -11 -20 -25 -25 -14 -5 -25 -15 -25 -21 0 -6 -18 -31 -40 -57
-22 -25 -43 -57 -47 -71 -3 -14 -12 -33 -19 -41 -7 -9 -18 -37 -24 -64 -6 -26
-18 -64 -27 -84 l-16 -37 -14 45 c-28 93 -27 120 8 209 18 46 50 111 71 145
21 34 53 85 70 115 17 30 45 61 61 70 16 9 59 36 95 60 65 43 70 45 164 51 54
3 101 10 105 14 17 17 118 -4 188 -38z m4017 -337 l3 -151 -70 -65 c-168 -156
-550 -455 -840 -657 -77 -54 -154 -112 -172 -128 l-31 -30 -127 66 c-70 36
-135 66 -145 66 -30 0 -31 15 -2 42 36 33 281 220 527 402 110 82 259 195 330
251 72 56 153 116 180 135 61 40 223 168 284 223 43 39 45 40 52 19 5 -12 10
-90 11 -173z m-7520 138 c8 -18 41 -66 72 -107 l56 -75 118 4 c143 4 223 13
371 40 92 17 121 19 155 10 58 -15 154 -68 161 -88 5 -16 155 -72 233 -86 17
-4 32 -10 32 -14 0 -4 -32 -29 -71 -54 -77 -50 -130 -67 -153 -48 -11 9 -16 9
-23 -2 -8 -14 -36 -20 -144 -33 -44 -5 -46 -4 -58 25 -11 25 -15 28 -27 17
-18 -19 -103 -31 -117 -17 -19 19 -133 8 -245 -25 -21 -6 -9 -26 26 -46 25
-14 32 -15 32 -4 0 19 48 30 66 15 8 -6 26 -9 41 -5 16 3 47 8 70 11 38 5 44
2 57 -22 l15 -28 -6 34 c-8 45 18 38 31 -8 6 -20 14 -30 23 -27 7 3 13 1 13
-5 0 -6 8 -2 18 9 18 20 133 49 152 37 18 -11 10 -33 -21 -59 -24 -21 -34 -24
-45 -15 -11 9 -14 8 -14 -4 0 -8 -14 -27 -32 -42 l-32 -27 25 -19 24 -19 -23
0 c-13 0 -20 -4 -17 -10 3 -5 1 -10 -4 -10 -6 0 -11 6 -12 13 0 6 -4 3 -8 -8
-4 -11 -25 -29 -47 -40 -25 -13 -40 -28 -42 -42 -3 -21 0 -22 30 -17 18 4 44
12 58 19 57 28 121 55 131 55 5 0 21 7 34 16 25 16 24 44 -2 44 -13 0 -13 3
-3 15 7 9 21 13 31 10 11 -4 19 0 23 13 4 10 17 29 31 42 20 19 27 21 40 10
13 -10 15 -9 15 9 0 11 9 30 19 40 20 20 20 20 26 1 3 -11 2 -28 -4 -38 -6
-11 -15 -41 -21 -68 -6 -27 -17 -55 -24 -64 -7 -8 -16 -31 -20 -50 -7 -40 -46
-122 -62 -132 -7 -4 -31 -24 -55 -44 -65 -55 -138 -85 -210 -87 -51 -2 -63 1
-78 19 -12 15 -21 18 -32 11 -11 -7 -54 -3 -137 12 -148 26 -186 49 -273 158
-60 77 -103 157 -133 250 -16 49 -17 60 -2 161 9 59 16 128 16 152 0 44 -38
178 -66 232 -16 31 -17 38 -6 38 5 0 15 -15 24 -33z m1043 -17 c18 -8 18 -9
-5 -9 -14 0 -32 4 -40 9 -12 8 -12 10 5 9 11 0 29 -4 40 -9z m6310 0 c-9 -14
-86 -63 -91 -57 -5 4 77 66 89 67 5 0 5 -5 2 -10z m-3800 -201 c95 -13 130
-31 149 -78 17 -45 32 -206 19 -214 -6 -4 -34 3 -64 14 -51 20 -56 20 -105 5
-28 -9 -58 -16 -66 -16 -16 0 -28 -39 -28 -86 0 -23 -3 -24 -67 -24 -38 -1
-86 -5 -108 -10 -84 -18 -200 -52 -226 -65 -25 -13 -30 -12 -86 28 -109 76
-126 94 -118 124 7 30 66 122 92 145 10 8 36 25 58 38 l40 24 -29 -38 c-15
-20 -26 -40 -23 -42 3 -3 29 7 59 22 50 26 57 26 123 17 39 -6 72 -8 75 -6 12
11 -45 43 -88 49 -91 13 -90 17 18 69 56 27 119 52 139 55 40 8 116 4 236 -11z
m-2293 -51 c-7 -7 -12 -8 -12 -2 0 14 12 26 19 19 2 -3 -1 -11 -7 -17z m6246
-900 c-14 -8 -79 -2 -137 13 -24 6 -39 5 -49 -3 -10 -9 -18 -9 -33 0 -15 10
-24 9 -40 0 -18 -11 -23 -10 -40 11 l-19 23 0 -25 c0 -28 -5 -29 -133 -40 -47
-5 -47 -4 -66 37 l-19 41 5 -52 c6 -52 5 -53 -21 -53 -21 0 -26 5 -26 26 0 23
2 25 15 14 9 -7 18 -10 21 -8 3 3 -9 16 -25 28 l-31 21 0 -37 c0 -28 -7 -44
-32 -67 -28 -27 -32 -29 -43 -13 -12 15 -13 15 -18 -4 -8 -33 -37 -24 -54 17
l-15 38 -16 -39 -15 -38 -19 23 -20 24 6 -24 5 -23 -26 23 c-24 22 -25 22 -19
4 5 -11 10 -36 13 -56 5 -33 3 -36 -33 -47 -45 -14 -51 -10 -36 23 6 14 9 32
5 41 -4 11 -12 -3 -24 -43 -16 -50 -25 -64 -60 -86 -47 -31 -55 -30 -39 4 8
17 8 32 1 49 -9 23 -10 22 -11 -15 l-1 -40 -15 25 c-14 24 -15 23 -9 -25 8
-57 -5 -53 -25 8 -8 26 -17 37 -26 33 -19 -7 -18 -5 13 59 30 61 48 72 38 24
-5 -22 -4 -29 4 -25 6 4 11 18 11 32 0 14 7 27 16 31 11 4 14 13 9 30 -3 14
-2 22 3 19 5 -3 16 10 25 29 17 36 57 66 57 43 0 -7 9 1 19 18 21 34 111 100
111 81 0 -6 8 0 17 13 23 33 44 49 65 50 10 0 36 20 58 44 49 53 114 100 132
93 7 -2 18 5 25 17 12 20 12 20 13 -6 0 -16 5 -28 11 -28 7 0 9 11 6 30 -4 16
-2 32 4 36 21 12 48 -29 64 -99 20 -82 34 -115 35 -81 0 21 -38 158 -55 197
-9 22 37 68 254 257 75 65 150 132 166 149 l30 32 3 -412 c2 -323 -1 -414 -10
-421z m-2888 762 c0 -5 -4 -10 -9 -10 -6 0 -13 5 -16 10 -3 6 1 10 9 10 9 0
16 -4 16 -10z m-3610 -70 c0 -5 -5 -10 -10 -10 -6 0 -15 -12 -20 -26 -11 -29
-37 -29 -54 -1 -9 15 -7 21 8 33 22 16 76 19 76 4z m2720 -127 c0 -88 -6 -97
-51 -82 -19 7 -43 18 -54 26 -11 7 -34 13 -53 13 -35 0 -82 36 -82 63 0 23 29
42 42 29 16 -16 118 -15 148 2 46 25 50 21 50 -51z m-870 -23 c6 -11 9 -20 7
-20 -2 0 -12 9 -22 20 -10 11 -13 20 -7 20 6 0 16 -9 22 -20z m-2766 -135 c43
-73 81 -121 160 -202 38 -40 67 -76 63 -79 -7 -7 -367 42 -376 52 -5 5 3 36
48 194 12 41 26 95 32 120 l11 45 17 -40 c9 -23 29 -63 45 -90z m3383 101 c38
-8 100 -27 139 -42 38 -15 81 -27 97 -28 20 -1 27 -6 27 -21 0 -49 -144 -360
-175 -378 -8 -4 -19 -23 -25 -42 -7 -20 -20 -37 -33 -41 -12 -3 -28 -11 -36
-17 -7 -6 -27 -17 -45 -23 -17 -6 -39 -15 -48 -19 -13 -5 -21 0 -29 19 -11 24
-14 25 -30 10 -16 -15 -22 -15 -66 2 -26 9 -55 23 -63 29 -8 7 -31 20 -51 29
-21 10 -50 30 -65 46 -16 16 -35 30 -41 30 -22 0 -27 53 -14 163 10 98 10 111
-6 138 -13 22 -15 34 -7 47 19 31 277 111 361 112 23 0 73 -7 110 -14z m-700
-58 c-3 -8 -6 -5 -6 6 -1 11 2 17 5 13 3 -3 4 -12 1 -19z m104 -17 c70 -45
103 -86 102 -125 -2 -72 -23 -68 -69 12 -15 26 -42 66 -60 89 -51 63 -44 70
27 24z m81 -253 c10 -10 18 -28 18 -40 0 -23 0 -23 -13 -2 -6 11 -22 36 -34
55 -26 39 -31 65 -6 29 9 -13 25 -32 35 -42z m1 -87 c30 -35 66 -105 67 -128
0 -14 -145 -19 -153 -5 -3 4 -2 60 1 125 l5 118 25 -38 c14 -21 39 -53 55 -72z
m-3023 44 c47 -7 157 -24 245 -35 157 -22 195 -31 195 -50 0 -17 -110 -11
-286 14 -146 21 -215 38 -296 71 -29 11 -8 28 26 21 17 -4 69 -13 116 -21z
m620 5 c0 -13 -20 -13 -40 0 -12 8 -9 10 13 10 15 0 27 -4 27 -10z m-704 -64
c50 -18 106 -42 125 -52 41 -22 129 -31 129 -14 0 8 9 10 23 7 12 -3 78 -11
145 -17 68 -6 136 -16 150 -22 24 -11 19 -12 -48 -18 -129 -12 -162 -34 -64
-42 31 -3 59 -10 64 -17 5 -9 10 -10 14 -2 10 15 56 14 56 -1 0 -6 6 -3 14 8
17 22 41 13 60 -22 6 -10 12 -21 13 -23 2 -2 13 8 25 24 20 25 22 26 34 10 11
-15 13 -15 16 7 3 21 10 24 98 35 52 6 98 12 102 12 4 1 13 8 22 16 14 14 17
13 30 -12 8 -15 34 -45 59 -65 45 -37 117 -150 117 -185 1 -17 1 -17 11 -1 8
15 15 11 55 -28 24 -25 66 -55 92 -67 26 -12 54 -28 62 -35 8 -7 42 -30 75
-51 69 -44 105 -77 105 -94 -1 -7 -7 -41 -15 -77 -10 -44 -14 -129 -15 -263 0
-165 3 -204 17 -235 l17 -37 6 50 5 50 13 -66 c6 -36 12 -80 12 -97 l0 -32
-1324 0 c-832 0 -1327 4 -1331 10 -9 15 22 135 49 188 14 27 34 75 45 108 11
33 33 86 50 118 17 32 31 65 31 74 0 21 103 215 146 275 36 50 95 115 226 249
43 44 83 88 88 99 31 57 -69 -20 -201 -157 -158 -162 -208 -228 -255 -333 -23
-53 -52 -114 -64 -136 l-21 -40 5 37 c2 20 12 53 21 72 9 19 14 40 10 45 -3 6
-1 21 6 33 7 12 18 43 25 68 27 97 108 278 154 345 11 17 20 36 20 43 0 24
-28 11 -52 -25 -59 -88 -93 -163 -163 -359 -41 -115 -79 -212 -85 -218 -7 -7
-10 7 -10 42 0 52 -16 71 -24 30 -3 -13 -8 -72 -11 -133 -9 -153 -42 -406 -55
-419 -15 -15 -810 -22 -810 -6 0 6 25 40 55 75 30 36 55 69 55 73 0 5 14 24
30 42 17 18 30 37 30 41 0 5 7 6 15 3 11 -4 15 0 15 16 0 29 56 143 81 166 10
9 19 22 19 29 0 6 30 60 66 120 36 59 77 130 90 158 15 28 29 46 34 41 5 -5
12 -84 16 -176 4 -93 11 -168 15 -168 7 0 17 64 22 149 1 33 6 45 19 47 23 3
51 -85 72 -232 21 -137 44 -230 62 -245 22 -18 18 34 -11 164 -43 185 -55 259
-55 324 0 34 -4 73 -10 87 -10 27 23 305 43 359 14 39 60 71 136 96 51 17 66
18 73 9 9 -14 15 -297 10 -457 -3 -83 -1 -102 10 -99 22 8 29 100 26 343 l-3
230 75 18 c69 16 152 37 351 88 157 40 356 77 414 78 45 1 83 -8 151 -33z
m644 -96 c0 -5 -4 -10 -10 -10 -5 0 -10 5 -10 10 0 6 5 10 10 10 6 0 10 -4 10
-10z m7021 -117 c-1 -42 -6 -84 -11 -93 -8 -15 -137 -59 -182 -63 -10 -1 -18
-5 -18 -10 0 -5 -7 -7 -15 -3 -8 3 -15 1 -15 -4 0 -22 -22 -8 -35 23 l-14 32
-1 -30 c0 -33 -25 -68 -52 -78 -10 -4 -18 -11 -18 -18 0 -6 7 -9 15 -6 28 11
25 -11 -5 -36 -43 -36 -68 -42 -91 -21 -18 16 -19 16 -19 -5 0 -37 -19 -13
-36 46 -10 35 -19 51 -24 43 -4 -7 -12 -10 -18 -6 -6 3 -8 -12 -5 -42 9 -77
-11 -37 -42 85 -26 103 -28 150 -5 113 13 -20 13 2 0 36 -8 21 -8 31 3 41 17
17 231 56 270 49 19 -4 27 -1 27 9 0 8 5 15 10 15 6 0 10 -5 10 -11 0 -6 5 -7
13 -2 11 7 246 22 256 16 2 -2 3 -37 2 -80z m-4506 37 c80 -18 128 -41 114
-55 -3 -2 -19 -1 -37 4 -26 8 -32 6 -37 -10 -9 -26 2 -39 30 -39 13 0 26 -4
29 -9 4 -5 19 -4 36 2 40 15 61 2 81 -54 14 -38 17 -41 23 -21 6 18 15 22 48
22 35 0 39 -2 28 -15 -10 -12 -10 -15 4 -15 9 0 16 4 16 9 0 5 16 12 36 15 34
7 35 9 28 39 -8 42 -12 44 -28 22 -9 -12 -19 -16 -32 -11 -18 7 -17 9 6 27 29
22 86 40 103 33 7 -3 23 -23 37 -44 14 -23 32 -40 42 -40 22 0 114 -45 123
-60 3 -5 13 -10 20 -10 22 0 125 -74 179 -129 l48 -49 18 -113 c10 -63 21
-152 25 -199 l7 -85 -26 35 c-14 19 -37 55 -53 80 -15 25 -32 48 -38 52 -6 4
-20 25 -30 48 -10 22 -20 38 -23 35 -3 -3 -11 0 -19 6 -19 16 -17 -30 2 -55 8
-11 15 -34 15 -50 1 -27 2 -29 11 -12 10 16 13 14 30 -23 10 -23 23 -41 29
-41 6 0 16 -12 23 -27 6 -16 22 -43 34 -62 13 -19 23 -42 23 -52 0 -12 7 -19
20 -19 42 0 104 -138 117 -263 l6 -58 -99 6 c-121 8 -124 12 -154 138 -21 90
-48 159 -34 88 10 -55 -12 -28 -36 43 -19 57 -53 107 -64 95 -3 -2 -2 -23 1
-47 4 -30 10 -42 21 -40 9 2 19 -9 25 -27 11 -35 62 -157 83 -199 20 -40 8
-46 -94 -46 -74 0 -83 2 -80 17 2 10 13 22 25 28 13 5 25 22 28 40 4 16 9 38
11 48 10 33 -13 16 -32 -24 -11 -25 -37 -55 -62 -73 -41 -29 -50 -31 -148 -34
-72 -3 -109 0 -119 8 -8 7 -15 8 -15 3 0 -11 -394 -18 -411 -8 -15 10 59 85
77 78 8 -3 36 13 63 36 27 23 53 41 59 41 9 0 25 70 17 78 -2 3 -23 -14 -46
-37 -42 -41 -65 -56 -37 -23 21 23 48 77 48 95 0 7 -20 -6 -45 -30 -25 -24
-54 -43 -65 -43 -13 0 -20 -7 -20 -20 0 -23 -38 -88 -64 -109 -13 -11 -19 -11
-31 -1 -13 11 -15 7 -15 -23 0 -28 -5 -36 -22 -41 -31 -8 -835 -5 -873 3 -29
6 -27 8 55 52 105 56 282 139 298 139 14 0 15 19 3 39 -7 12 -14 10 -36 -8
-15 -11 -37 -21 -49 -21 -18 1 -15 6 19 36 59 52 66 57 72 50 10 -10 43 42 37
58 -9 23 -23 20 -35 -7 -12 -27 -56 -50 -66 -34 -4 6 -9 2 -14 -11 -4 -11 -19
-28 -33 -36 -15 -9 -38 -24 -53 -34 -14 -9 -39 -25 -54 -34 -16 -10 -81 -57
-146 -105 -65 -48 -121 -89 -125 -91 -3 -2 2 30 12 70 10 40 21 93 25 117 11
65 41 91 108 91 29 0 56 3 60 6 13 13 -7 34 -33 34 -44 0 -44 16 0 29 22 6 69
32 106 56 37 25 69 45 73 45 9 0 33 41 28 46 -6 7 -164 -70 -187 -91 -10 -9
-24 -14 -29 -10 -22 13 -10 36 36 68 25 17 60 44 77 58 17 14 49 31 72 37 23
7 58 23 78 37 20 14 41 25 45 25 5 0 20 9 35 21 14 11 26 17 26 12 0 -18 -31
-51 -60 -63 -32 -13 -75 -72 -67 -93 3 -7 6 -5 6 6 1 9 9 17 19 17 9 0 41 21
70 46 46 40 53 51 50 78 -4 41 -30 44 -94 11 -82 -44 -97 -51 -159 -80 -79
-36 -76 -33 -136 -85 -35 -30 -50 -38 -45 -25 5 11 16 56 26 100 20 88 78 263
107 323 13 26 32 44 65 61 53 26 339 115 433 135 33 7 71 18 85 26 29 16 184
20 215 6 16 -8 6 -11 -44 -16 -46 -5 -68 -13 -78 -26 -12 -17 -11 -19 9 -25
13 -3 51 -4 84 -1 61 4 62 5 77 44 16 39 16 39 -9 48 -14 6 -40 10 -57 10 -18
0 -39 5 -47 10 -13 9 -12 12 4 25 26 20 73 19 181 -5z m3742 -12 c-3 -8 -6 -5
-6 6 -1 11 2 17 5 13 3 -3 4 -12 1 -19z m-41 -33 c-22 -17 -36 -19 -36 -7 0
14 12 22 34 22 21 -1 21 -1 2 -15z m-965 -17 c0 -7 0 -125 -1 -263 -1 -137 2
-269 6 -293 6 -38 9 -43 28 -37 87 25 127 18 155 -29 26 -41 27 -99 6 -230 -8
-52 -19 -134 -23 -183 l-7 -88 -197 -3 -196 -2 -8 67 c-9 89 10 337 30 385 21
49 60 78 106 78 30 0 39 4 44 23 4 12 10 144 15 294 5 150 12 277 16 283 9 14
25 13 26 -2z m-83 -269 c-3 -244 -4 -262 -22 -275 -11 -8 -30 -14 -43 -14 -19
0 -23 5 -23 34 0 40 26 117 43 128 9 5 12 50 12 158 0 148 -1 152 -24 171 -13
11 -22 21 -20 23 2 1 15 10 29 19 53 36 52 38 48 -244z m1136 237 c12 5 16 0
16 -17 0 -22 0 -22 16 -3 11 13 17 15 20 6 3 -6 10 -10 15 -6 12 7 34 -46 53
-132 23 -96 35 -124 57 -124 27 0 24 -12 -10 -44 -32 -30 -60 -30 -62 1 0 10
-7 36 -14 58 l-14 40 5 -50 c3 -27 7 -59 10 -70 3 -12 -2 -9 -12 9 -12 21 -18
25 -24 16 -5 -7 -3 -22 3 -32 10 -16 8 -23 -17 -44 -17 -15 -37 -24 -47 -21
-13 4 -19 0 -19 -13 0 -11 -27 -36 -69 -65 -38 -25 -77 -58 -86 -72 -11 -17
-23 -23 -36 -20 -15 4 -21 -2 -27 -26 -6 -22 -15 -33 -30 -35 -12 -2 -22 -9
-22 -17 0 -18 -59 -77 -71 -69 -5 3 -9 14 -9 24 0 10 -4 21 -8 24 -5 3 -6 -8
-4 -25 7 -50 -6 -32 -28 37 -26 85 -25 102 2 106 12 2 23 10 25 18 4 13 3 13
-6 0 -9 -13 -11 -13 -11 3 0 21 -16 23 -24 2 -9 -25 -26 -17 -26 13 -1 27 -28
97 -29 75 -1 -7 17 -85 39 -174 37 -150 39 -164 25 -186 -9 -13 -21 -23 -28
-23 -7 0 -21 -18 -31 -39 -9 -22 -32 -53 -51 -70 -19 -17 -35 -37 -35 -46 0
-20 -17 -19 -29 3 -10 16 -10 16 -11 0 0 -10 -4 -18 -10 -18 -5 0 -10 -7 -10
-16 0 -14 3 -14 15 -4 13 10 15 9 15 -8 0 -28 -36 -52 -77 -52 -24 0 -33 5
-33 17 0 14 -2 14 -20 -2 -32 -29 -44 -8 -31 55 6 28 11 73 11 99 0 69 10 111
27 111 11 0 12 6 6 23 -10 29 -3 304 9 337 12 32 52 74 105 111 41 29 83 38
83 19 0 -5 4 -10 9 -10 4 0 6 11 3 25 -3 20 -1 24 12 19 9 -3 16 -2 16 4 0 11
59 77 64 71 2 -2 8 -13 15 -24 10 -17 10 -14 5 17 -6 36 -5 37 45 62 62 32 65
32 57 1 -5 -19 -3 -23 9 -19 9 4 15 20 15 43 l1 36 14 -32 c19 -44 24 -41 18
10 -4 37 -3 40 10 25 18 -22 25 -23 23 -2 0 9 20 32 47 50 26 19 47 29 47 23
0 -8 5 -8 15 1 12 10 18 10 30 0 13 -11 15 -8 15 16 1 26 2 27 14 11 8 -10 20
-15 30 -11z m-3554 -28 c0 -16 -3 -19 -11 -11 -6 6 -8 16 -5 22 11 17 16 13
16 -11z m70 12 c0 -5 -5 -10 -11 -10 -5 0 -7 5 -4 10 3 6 8 10 11 10 2 0 4 -4
4 -10z m3069 -43 c6 -8 14 -29 17 -48 6 -32 6 -33 -9 -14 -16 19 -16 19 -17
-13 0 -29 -2 -32 -20 -22 -16 9 -22 6 -35 -20 -9 -17 -33 -41 -55 -55 -22 -14
-40 -30 -40 -37 0 -6 -3 -9 -6 -6 -16 17 84 158 112 158 9 0 14 11 14 28 0 42
17 54 39 29z m1104 -35 c3 10 7 10 17 1 9 -9 7 -14 -11 -26 -13 -9 -36 -19
-51 -22 -35 -9 -38 15 -6 47 20 20 22 20 34 4 9 -13 13 -14 17 -4z m-108 -32
c4 -6 2 -16 -4 -23 -12 -16 -110 -51 -118 -43 -8 8 17 37 27 31 5 -3 14 1 22
8 15 15 50 36 60 37 4 0 10 -5 13 -10z m-163 -92 c-9 -9 -12 -7 -12 12 0 19 3
21 12 12 9 -9 9 -15 0 -24z m296 -10 c4 -41 -16 -61 -59 -61 -20 0 -29 -5 -29
-16 0 -18 -58 -61 -83 -61 -9 0 -17 2 -17 4 0 13 64 98 81 106 10 6 19 17 19
25 0 18 20 20 20 3 0 -7 6 -4 12 7 26 46 52 43 56 -7z m-499 -48 c0 -23 -1
-23 -9 -5 -5 11 -9 31 -9 45 0 23 1 23 9 5 5 -11 9 -31 9 -45z m218 -64 c-11
-6 -64 -55 -118 -108 -55 -54 -101 -98 -103 -98 -2 0 1 18 6 41 8 30 13 37 20
27 7 -9 8 -7 5 9 -3 14 4 30 22 46 31 30 173 108 181 100 3 -3 -3 -10 -13 -17z
m283 -38 c0 -13 3 -34 7 -47 5 -21 4 -22 -15 -12 -22 12 -33 -2 -31 -42 1 -20
2 -20 8 3 l7 25 12 -22 c7 -13 14 -46 15 -75 2 -44 -1 -53 -16 -56 -10 -2 -24
4 -31 14 -12 15 -13 15 -19 0 -4 -9 -16 -16 -27 -16 -26 0 -25 3 5 36 48 52
28 72 -54 54 -98 -21 -104 -10 -26 42 39 25 88 62 110 82 47 42 55 43 55 14z
m-200 -2 c0 -8 -18 -35 -39 -60 -35 -40 -40 -43 -46 -26 -3 10 2 34 11 51 15
30 18 31 29 16 12 -16 13 -15 19 8 7 27 26 35 26 11z m-2234 -48 l29 -31 -32
22 c-35 23 -50 41 -35 41 4 0 21 -14 38 -32z m-65 -34 c63 -33 85 -54 58 -54
-12 0 -149 78 -149 85 0 12 27 2 91 -31z m-3456 -249 c41 -132 90 -270 109
-307 19 -38 30 -70 25 -73 -12 -8 -154 6 -170 16 -14 9 -1 25 40 49 12 6 6 41
-38 206 -29 110 -57 217 -63 238 -5 22 -7 55 -3 75 8 40 17 60 22 46 1 -6 36
-118 78 -250z m5663 197 c6 -24 6 -42 1 -42 -5 0 -9 6 -10 13 0 6 -4 2 -9 -10
-7 -16 -18 -23 -38 -23 -15 0 -38 -9 -50 -20 -12 -11 -25 -20 -30 -20 -5 0
-21 -9 -36 -21 -14 -11 -26 -16 -26 -11 0 16 62 82 72 76 4 -3 8 -1 8 5 0 5
12 24 26 41 21 24 32 30 50 26 20 -5 24 -2 24 15 0 32 7 20 18 -29z m-2283 8
c3 -5 2 -10 -4 -10 -5 0 -13 5 -16 10 -3 6 -2 10 4 10 5 0 13 -4 16 -10z
m2043 -27 c4 -26 -45 -85 -67 -81 -9 2 -25 -10 -36 -26 -22 -33 -91 -79 -83
-56 2 8 17 21 33 30 16 9 37 33 48 54 11 21 28 41 37 43 9 2 21 18 28 35 12
33 35 34 40 1z m-1968 -8 c7 -8 8 -15 2 -15 -5 0 -15 7 -22 15 -7 8 -8 15 -2
15 5 0 15 -7 22 -15z m-70 -35 c22 -11 40 -25 40 -30 0 -14 -7 -12 -75 20 -51
24 -56 29 -32 29 15 1 46 -8 67 -19z m-7630 -14 c0 -7 -19 -35 -42 -62 -89
-103 -282 -306 -301 -316 -26 -13 2 21 134 163 52 57 117 132 143 167 46 61
66 75 66 48z m7592 -52 c24 -12 40 -44 23 -44 -11 0 -125 61 -125 66 0 10 71
-6 102 -22z m2076 -34 c-12 -19 -28 -27 -28 -14 0 6 30 33 38 34 1 0 -3 -9
-10 -20z m-9625 -7 c-10 -26 -115 -205 -140 -239 -40 -53 -33 -18 11 62 68
122 114 194 125 194 6 0 7 -8 4 -17z m7504 -28 c46 -28 55 -45 23 -45 -29 0
-110 42 -110 57 0 21 40 15 87 -12z m1882 -42 c0 -5 -14 -19 -31 -32 -24 -20
-31 -22 -39 -10 -13 21 -11 32 5 26 8 -3 20 1 26 9 13 15 40 19 39 7z m-1909
-44 c25 -12 39 -24 32 -26 -16 -6 -132 29 -132 40 0 14 56 6 100 -14z m-7816
-31 c-117 -94 -185 -198 -128 -198 21 0 17 -28 -7 -40 -23 -13 -194 -18 -205
-7 -12 12 25 44 149 128 66 45 143 99 170 120 27 22 52 37 55 34 3 -3 -12 -20
-34 -37z m9626 18 c0 -20 -39 -66 -56 -66 -8 0 -14 7 -14 15 0 8 7 15 15 15 8
0 15 6 15 13 0 14 20 37 32 37 4 0 8 -6 8 -14z m-1801 -71 c17 -8 31 -23 31
-32 0 -16 -27 -16 -117 3 -30 6 -33 4 -33 -19 0 -21 6 -26 38 -32 63 -11 112
-28 112 -38 0 -5 -14 -7 -32 -3 -18 3 -51 9 -73 12 -54 9 -65 20 -65 64 0 66
7 73 61 67 26 -3 62 -13 78 -22z m1690 -28 c-23 -20 -86 -66 -143 -107 -46
-32 30 43 87 86 60 45 103 61 56 21z m648 -22 c-4 -8 -17 -15 -31 -15 -20 0
-26 -7 -33 -37 -6 -26 -14 -38 -26 -37 -23 2 -21 -12 2 -33 11 -9 18 -20 15
-25 -8 -12 -352 -10 -359 2 -3 6 4 10 17 10 13 0 41 9 63 20 22 11 50 20 64
20 13 0 32 6 40 14 25 22 239 107 250 100 2 -2 1 -10 -2 -19z m-442 -55 c-3
-5 -11 -10 -16 -10 -6 0 -7 5 -4 10 3 6 11 10 16 10 6 0 7 -4 4 -10z m-9545
-35 c0 -21 5 -25 28 -25 26 -1 26 -1 8 -15 -13 -10 -43 -15 -84 -15 -64 0 -65
0 -47 20 10 11 23 20 30 20 7 0 20 9 30 20 24 27 35 25 35 -5z m9478 -29 c-20
-30 -27 -34 -53 -29 -16 3 -32 7 -34 9 -9 8 24 35 53 43 54 16 58 13 34 -23z
m656 18 c9 -24 8 -31 -10 -48 -16 -17 -65 -20 -98 -7 -16 6 -12 12 30 38 56
36 70 39 78 17z m-10304 -4 c0 -5 -10 -15 -22 -21 -23 -12 -23 -12 -4 10 21
23 26 26 26 11z m7828 -21 c58 -22 2 -45 -80 -32 -45 7 -54 12 -56 31 -4 23
-2 23 55 16 32 -3 68 -10 81 -15z m-7548 -9 c0 -5 -4 -10 -10 -10 -5 0 -10 5
-10 10 0 6 5 10 10 10 6 0 10 -4 10 -10z m9268 -2 c-3 -7 -18 -14 -34 -16 -28
-2 -28 -2 -10 13 24 18 49 20 44 3z"/>
<path d="M11770 5402 c0 -4 48 -22 108 -40 59 -19 145 -46 192 -62 77 -25 117
-29 105 -10 -7 11 -133 53 -265 89 -121 33 -140 36 -140 23z"/>
<path d="M10480 5350 c0 -5 5 -10 11 -10 5 0 7 5 4 10 -3 6 -8 10 -11 10 -2 0
-4 -4 -4 -10z"/>
<path d="M10366 5294 c-3 -8 -3 -27 0 -41 8 -31 24 -12 24 30 0 29 -14 36 -24
11z"/>
<path d="M10506 5267 c3 -10 9 -15 12 -12 3 3 0 11 -7 18 -10 9 -11 8 -5 -6z"/>
<path d="M10542 5268 c2 -6 10 -14 16 -16 7 -2 10 2 6 12 -7 18 -28 22 -22 4z"/>
<path d="M10400 5239 c0 -11 5 -17 10 -14 6 3 10 13 10 21 0 8 -4 14 -10 14
-5 0 -10 -9 -10 -21z"/>
<path d="M10580 5250 c0 -5 14 -10 31 -10 17 0 28 4 24 10 -3 6 -17 10 -31 10
-13 0 -24 -4 -24 -10z"/>
<path d="M10652 5249 c4 -13 122 -48 243 -74 44 -9 87 -19 95 -22 8 -4 26 -8
40 -9 84 -11 116 -17 128 -26 9 -8 12 -5 12 11 0 14 -6 21 -20 21 -11 0 -20 5
-20 10 0 6 -14 10 -30 10 -17 0 -47 7 -68 16 -20 9 -51 16 -68 15 -16 -1 -79
9 -140 22 -159 36 -176 39 -172 26z"/>
<path d="M11190 5140 c0 -18 45 -39 115 -55 39 -8 158 -33 265 -56 202 -41
292 -63 336 -79 25 -10 25 -12 11 -33 -22 -34 -6 -52 48 -53 37 -1 45 2 45 17
0 12 -5 16 -14 13 -8 -3 -19 3 -26 15 -10 19 -8 21 23 21 19 0 57 -7 83 -14
48 -15 187 -48 252 -61 18 -4 43 -12 56 -18 31 -17 138 -16 144 1 2 7 0 12 -5
10 -4 -1 -30 5 -58 15 -27 9 -83 24 -122 32 -40 9 -75 21 -78 26 -4 5 -19 9
-34 9 -32 0 -233 44 -250 54 -6 4 -11 35 -11 71 0 76 -15 93 -30 33 -18 -76
-26 -93 -41 -91 -7 2 -41 9 -74 17 -144 35 -248 58 -354 77 -63 11 -126 25
-140 31 -14 6 -40 10 -57 9 -18 -1 -35 2 -39 8 -8 14 -45 14 -45 1z"/>
<path d="M11070 5040 c0 -5 5 -10 11 -10 5 0 7 5 4 10 -3 6 -8 10 -11 10 -2 0
-4 -4 -4 -10z"/>
<path d="M12110 5021 c0 -15 17 -22 188 -76 121 -39 155 -46 165 -36 18 18 0
27 -153 72 -25 7 -49 16 -55 19 -5 4 -30 10 -55 14 -25 4 -55 9 -67 13 -13 3
-23 1 -23 -6z"/>
<path d="M10450 4948 c0 -11 66 -40 100 -43 14 -1 58 -6 98 -10 105 -11 92 9
-20 30 -153 29 -178 32 -178 23z"/>
<path d="M10740 4900 c0 -17 34 -27 160 -49 69 -12 143 -26 165 -32 50 -12
336 -40 347 -33 21 13 3 23 -49 27 -123 11 -322 39 -401 58 -45 10 -100 19
-121 19 -21 0 -41 3 -44 7 -11 10 -57 13 -57 3z"/>
<path d="M11425 4780 c-3 -5 3 -10 14 -10 11 0 23 5 26 10 3 6 -3 10 -14 10
-11 0 -23 -4 -26 -10z"/>
<path d="M11510 4781 c-22 -15 19 -27 152 -47 62 -9 120 -20 129 -25 11 -6 21
-4 28 5 16 19 5 25 -66 37 -32 6 -78 15 -103 20 -82 17 -125 20 -140 10z"/>
<path d="M11990 4740 c0 -11 5 -20 10 -20 6 0 10 9 10 20 0 11 -4 20 -10 20
-5 0 -10 -9 -10 -20z"/>
<path d="M11540 4622 c0 -15 41 -43 52 -36 9 6 32 3 298 -43 85 -15 170 -26
188 -25 32 1 68 19 58 30 -5 4 -139 32 -166 33 -8 1 -76 9 -150 19 -208 29
-280 34 -280 22z"/>
<path d="M12272 4473 c-18 -7 -4 -23 19 -23 12 0 19 5 17 12 -5 14 -18 18 -36
11z"/>
<path d="M12320 4470 c0 -5 7 -10 16 -10 8 0 12 5 9 10 -3 6 -10 10 -16 10 -5
0 -9 -4 -9 -10z"/>
<path d="M11290 4450 c0 -5 5 -10 11 -10 5 0 7 5 4 10 -3 6 -8 10 -11 10 -2 0
-4 -4 -4 -10z"/>
<path d="M11380 4361 c0 -5 5 -13 10 -16 6 -3 10 -2 10 4 0 5 -4 13 -10 16 -5
3 -10 2 -10 -4z"/>
<path d="M10740 4325 c0 -8 4 -15 10 -15 5 0 7 7 4 15 -4 8 -8 15 -10 15 -2 0
-4 -7 -4 -15z"/>
<path d="M11290 4308 c0 -9 5 -20 10 -23 13 -8 13 5 0 25 -8 13 -10 13 -10 -2z"/>
<path d="M11050 4052 c0 -11 22 -32 32 -32 5 0 4 9 -2 20 -11 20 -30 28 -30
12z"/>
<path d="M11171 3944 c0 -11 3 -14 6 -6 3 7 2 16 -1 19 -3 4 -6 -2 -5 -13z"/>
<path d="M12686 6052 c-3 -6 -1 -14 5 -17 15 -10 25 3 12 16 -7 7 -13 7 -17 1z"/>
<path d="M2373 5286 c-15 -13 -25 -28 -21 -32 12 -11 55 12 68 36 15 29 -11
27 -47 -4z"/>
<path d="M2802 5277 c-36 -38 -41 -53 -12 -37 22 12 56 58 48 65 -2 3 -19 -10
-36 -28z"/>
<path d="M2370 5200 c0 -5 5 -10 10 -10 6 0 10 5 10 10 0 6 -4 10 -10 10 -5 0
-10 -4 -10 -10z"/>
<path d="M2579 4970 c-320 -42 -619 -125 -619 -171 0 -5 9 -9 20 -9 11 0 20 5
20 11 0 5 4 8 9 5 5 -4 40 0 78 8 74 16 294 48 443 67 52 6 169 13 260 15 91
2 167 4 170 4 3 0 -2 5 -10 10 -8 5 -79 10 -157 10 -79 0 -143 4 -143 9 0 12
59 19 218 27 72 4 132 10 132 14 0 10 -108 20 -204 19 -45 0 -142 -9 -217 -19z"/>
<path d="M3683 4810 c-13 -5 -23 -17 -23 -26 0 -13 6 -15 28 -10 15 4 55 9 90
13 34 3 62 9 62 13 0 20 -116 27 -157 10z"/>
<path d="M1925 4780 c-3 -5 -1 -10 4 -10 6 0 11 5 11 10 0 6 -2 10 -4 10 -3 0
-8 -4 -11 -10z"/>
<path d="M3742 4253 c-64 -8 -19 -23 69 -23 91 0 119 12 52 24 -39 6 -64 6
-121 -1z"/>
<path d="M3005 4234 c-22 -2 -107 -9 -190 -15 -161 -12 -322 -33 -333 -44 -7
-7 19 -26 28 -20 3 2 177 16 387 31 298 22 386 25 395 16 9 -9 4 -12 -24 -12
-20 0 -39 -4 -42 -9 -7 -11 78 -21 190 -21 72 0 94 -3 105 -16 12 -14 30 -16
119 -11 108 5 200 23 200 38 0 5 -49 9 -109 9 -61 0 -112 4 -115 9 -3 4 -55
12 -116 16 -62 4 -123 13 -138 21 -20 10 -64 13 -172 12 -80 -1 -163 -3 -185
-4z"/>
<path d="M2200 2842 c0 -16 154 -158 217 -200 126 -85 82 -34 -94 110 -68 54
-123 95 -123 90z"/>
<path d="M2230 2637 c0 -15 71 -50 128 -62 51 -11 39 13 -20 40 -76 34 -108
41 -108 22z"/>
<path d="M2359 2477 c17 -21 79 -33 94 -18 15 15 9 19 -53 27 -50 7 -54 6 -41
-9z"/>
<path d="M2003 2033 c-18 -7 -16 -43 2 -43 8 0 24 5 35 12 15 10 26 10 53 0
28 -10 39 -10 61 2 26 13 25 14 -41 18 -37 3 -75 8 -83 11 -8 3 -21 3 -27 0z"/>
<path d="M1910 2020 c0 -5 14 -10 31 -10 17 0 28 4 24 10 -3 6 -17 10 -31 10
-13 0 -24 -4 -24 -10z"/>
<path d="M2939 2000 c-9 -5 -153 -12 -320 -16 -233 -5 -310 -4 -328 5 -21 12
-22 11 -19 -11 4 -29 42 -36 198 -38 74 -1 108 -4 95 -10 -11 -5 -35 -9 -52
-9 -26 -1 -33 -5 -33 -22 0 -12 4 -17 11 -13 6 3 91 12 190 20 180 13 343 36
389 56 25 10 24 10 -15 23 -61 20 -99 24 -116 15z m-274 -60 c3 -5 -1 -10 -10
-10 -9 0 -13 5 -10 10 3 6 8 10 10 10 2 0 7 -4 10 -10z"/>
<path d="M1570 1981 c0 -9 28 -17 90 -23 17 -2 25 2 25 12 0 11 -14 16 -57 18
-34 2 -58 -1 -58 -7z"/>
<path d="M2212 1975 c-35 -12 -33 -25 5 -25 13 0 26 7 30 15 8 22 3 23 -35 10z"/>
<path d="M1582 1913 c4 -20 45 -28 87 -18 25 6 25 7 7 21 -11 8 -37 14 -59 14
-31 0 -38 -3 -35 -17z"/>
<path d="M1543 1859 c-18 -18 -16 -37 5 -43 79 -23 206 -33 231 -17 20 13 -18
31 -66 31 -21 1 -56 8 -78 16 -62 24 -79 26 -92 13z"/>
<path d="M2360 1620 c0 -11 5 -20 10 -20 6 0 10 9 10 20 0 11 -4 20 -10 20 -5
0 -10 -9 -10 -20z"/>
<path d="M2400 1510 c0 -5 5 -10 10 -10 6 0 10 5 10 10 0 6 -4 10 -10 10 -5 0
-10 -4 -10 -10z"/>
<path d="M1040 4090 c-8 -5 -39 -17 -69 -26 -89 -26 -193 -82 -189 -102 3 -13
13 -16 39 -15 38 2 192 53 294 96 61 26 72 44 23 39 -14 -2 -29 2 -33 8 -5 8
-11 8 -21 -1 -10 -8 -14 -8 -14 0 0 13 -10 14 -30 1z"/>
<path d="M10983 3756 c-88 -36 -138 -66 -112 -66 18 0 210 78 224 91 20 19
-33 7 -112 -25z"/>
<path d="M9706 3172 c-13 -41 -23 -122 -15 -122 22 0 47 98 31 126 -9 16 -10
16 -16 -4z"/>
<path d="M2550 3715 c0 -8 5 -15 10 -15 6 0 10 7 10 15 0 8 -4 15 -10 15 -5 0
-10 -7 -10 -15z"/>
<path d="M2475 3560 c-3 -5 1 -10 9 -10 8 0 18 5 21 10 3 6 -1 10 -9 10 -8 0
-18 -4 -21 -10z"/>
<path d="M3210 3530 c0 -5 7 -10 16 -10 8 0 12 5 9 10 -3 6 -10 10 -16 10 -5
0 -9 -4 -9 -10z"/>
<path d="M2453 3508 c2 -7 16 -13 32 -13 16 0 30 6 33 13 2 8 -8 12 -33 12
-25 0 -35 -4 -32 -12z"/>
<path d="M2757 3415 c-66 -18 -67 -22 -10 -31 26 -3 65 -15 85 -25 21 -11 50
-19 66 -19 16 0 35 -7 42 -15 7 -8 20 -15 29 -15 9 0 41 -16 71 -35 29 -19 81
-44 114 -55 84 -28 93 -35 77 -54 -11 -13 -9 -16 13 -22 27 -6 36 -24 12 -24
-7 0 -34 -16 -59 -35 -25 -19 -55 -35 -67 -35 -26 0 -70 46 -70 73 0 19 1 19
26 2 19 -12 25 -13 22 -3 -5 14 -95 67 -116 68 -7 0 -48 16 -90 35 -41 20 -81
34 -86 31 -6 -2 47 -61 117 -131 82 -80 127 -131 123 -141 -7 -17 -67 -55 -81
-51 -5 2 -23 28 -40 57 -41 74 -59 77 -39 8 19 -64 39 -98 59 -98 8 0 39 9 70
21 49 18 55 24 55 49 l0 28 71 -20 c39 -11 73 -17 76 -14 4 3 1 17 -5 31 -16
34 -15 45 2 45 17 0 26 -22 26 -61 0 -33 22 -48 45 -29 15 13 21 90 8 103 -3
4 -14 0 -23 -8 -16 -15 -18 -14 -24 10 -4 14 -4 30 -1 35 4 6 75 10 166 10
150 0 159 1 159 19 0 11 -12 29 -27 40 -16 11 -22 21 -15 21 30 0 8 27 -33 38
-33 9 -58 26 -96 66 -63 66 -150 111 -254 131 -96 19 -331 18 -398 0z"/>
<path d="M4610 3490 c0 -5 5 -10 10 -10 6 0 10 5 10 10 0 6 -4 10 -10 10 -5 0
-10 -4 -10 -10z"/>
<path d="M4652 3451 c2 -7 7 -12 11 -12 12 1 9 15 -3 20 -7 2 -11 -2 -8 -8z"/>
<path d="M5760 3715 c-67 -19 -135 -59 -230 -135 -131 -105 -164 -143 -163
-186 1 -50 15 -60 49 -38 l27 19 -17 -28 c-16 -23 -16 -27 -3 -27 9 0 19 5 22
10 3 6 17 10 30 10 13 0 26 4 29 8 3 5 45 24 93 42 48 18 126 48 173 67 47 19
112 44 145 55 33 11 67 27 76 34 8 8 25 14 37 14 12 0 22 5 22 11 0 18 -90 2
-181 -31 -116 -43 -118 -36 -5 21 100 51 118 69 49 50 -21 -6 -56 -11 -77 -11
-45 0 -236 -89 -354 -165 -40 -26 -75 -45 -78 -42 -7 7 212 181 326 259 112
77 117 88 30 63z"/>
<path d="M6390 3351 c0 -5 10 -26 21 -46 12 -20 18 -39 14 -43 -8 -9 -34 24
-47 61 -5 15 -14 27 -19 27 -4 0 2 -28 14 -62 18 -52 26 -64 47 -66 14 -2 31
-9 38 -14 17 -15 15 4 -11 82 -15 43 -28 66 -39 68 -10 2 -18 -1 -18 -7z"/>
<path d="M6637 3093 c6 -141 23 -193 23 -71 0 97 -11 198 -21 198 -4 0 -5 -57
-2 -127z"/>
<path d="M957 3155 c-5 -22 -12 -49 -17 -60 -7 -16 -9 -12 -10 20 l-2 40 -9
-37 c-5 -23 -5 -48 1 -62 6 -17 5 -26 -2 -28 -7 -3 -12 -26 -12 -56 0 -59 16
-86 32 -55 15 28 34 171 30 228 l-3 50 -8 -40z m-30 -197 c-3 -7 -5 -2 -5 12
0 14 2 19 5 13 2 -7 2 -19 0 -25z"/>
<path d="M1360 2805 c0 -64 19 -141 40 -167 l19 -23 1 32 c0 17 -4 34 -9 37
-5 4 -12 24 -15 46 -3 22 -9 58 -12 80 -8 54 -24 51 -24 -5z"/>
<path d="M11797 2987 c-3 -9 -2 -61 3 -115 5 -53 10 -103 10 -110 0 -7 5 -10
10 -7 14 9 12 184 -4 220 -10 24 -13 26 -19 12z"/>
<path d="M10921 3084 c0 -11 3 -14 6 -6 3 7 2 16 -1 19 -3 4 -6 -2 -5 -13z"/>
<path d="M10830 2881 c0 -11 5 -23 10 -26 6 -3 10 3 10 14 0 11 -4 23 -10 26
-5 3 -10 -3 -10 -14z"/>
<path d="M10910 2853 c-14 -10 -49 -37 -78 -60 -29 -24 -59 -43 -67 -43 -8 0
-15 -6 -15 -13 0 -8 -16 -31 -35 -53 -29 -33 -34 -36 -35 -18 0 32 56 113 85
120 24 6 45 47 32 60 -6 6 -133 -88 -159 -118 -19 -22 -13 -52 8 -44 10 4 14
-3 14 -25 0 -25 -18 -50 -92 -130 -98 -105 -168 -200 -168 -227 0 -8 1 -13 3
-11 2 2 44 49 93 104 50 55 97 109 105 121 7 11 43 46 79 78 122 109 269 251
274 264 7 17 -15 15 -44 -5z"/>
<path d="M10391 2764 c0 -11 3 -14 6 -6 3 7 2 16 -1 19 -3 4 -6 -2 -5 -13z"/>
<path d="M10925 2770 c3 -5 8 -10 11 -10 2 0 4 5 4 10 0 6 -5 10 -11 10 -5 0
-7 -4 -4 -10z"/>
<path d="M10805 2683 c-69 -77 -115 -138 -115 -153 0 -5 -4 -10 -8 -10 -4 0
-16 -13 -25 -30 -10 -16 -25 -30 -33 -30 -8 0 -14 -6 -12 -12 1 -7 -8 -32 -20
-55 -12 -23 -22 -49 -22 -58 0 -8 -7 -15 -15 -15 -8 0 -15 -9 -15 -20 0 -12
-9 -38 -20 -60 -23 -46 -24 -51 -7 -46 6 3 24 7 38 10 19 4 27 12 27 28 1 34
70 158 85 152 8 -3 13 4 12 18 0 13 4 24 8 25 5 1 22 30 40 64 17 33 54 85 82
114 28 29 49 57 48 62 -2 6 3 16 12 23 15 13 21 60 8 60 -5 0 -35 -30 -68 -67z"/>
<path d="M10370 2688 c0 -7 5 -20 10 -28 8 -12 10 -11 10 7 0 12 -4 25 -10 28
-5 3 -10 0 -10 -7z"/>
<path d="M9731 2674 c0 -11 3 -14 6 -6 3 7 2 16 -1 19 -3 4 -6 -2 -5 -13z"/>
<path d="M10550 2670 c0 -5 5 -10 11 -10 5 0 7 5 4 10 -3 6 -8 10 -11 10 -2 0
-4 -4 -4 -10z"/>
<path d="M10240 2653 c0 -12 5 -25 10 -28 13 -8 13 15 0 35 -8 12 -10 11 -10
-7z"/>
<path d="M9710 2600 c0 -5 5 -10 11 -10 5 0 7 5 4 10 -3 6 -8 10 -11 10 -2 0
-4 -4 -4 -10z"/>
<path d="M10261 2564 c0 -11 3 -14 6 -6 3 7 2 16 -1 19 -3 4 -6 -2 -5 -13z"/>
<path d="M11020 2558 c0 -9 5 -20 10 -23 13 -8 13 5 0 25 -8 13 -10 13 -10 -2z"/>
<path d="M11131 2554 c0 -11 3 -14 6 -6 3 7 2 16 -1 19 -3 4 -6 -2 -5 -13z"/>
<path d="M9591 2523 c-1 -12 4 -25 9 -28 12 -7 12 2 0 30 -8 19 -9 19 -9 -2z"/>
<path d="M10951 2535 c1 -19 18 -51 18 -35 0 8 -4 22 -9 30 -5 8 -9 11 -9 5z"/>
<path d="M11070 2500 c0 -5 5 -10 11 -10 5 0 7 5 4 10 -3 6 -8 10 -11 10 -2 0
-4 -4 -4 -10z"/>
<path d="M9566 2473 c9 -38 14 -42 14 -10 0 14 -5 29 -10 32 -7 4 -8 -3 -4
-22z"/>
<path d="M10891 2484 c0 -11 3 -14 6 -6 3 7 2 16 -1 19 -3 4 -6 -2 -5 -13z"/>
<path d="M11000 2489 c0 -5 5 -7 10 -4 6 3 10 8 10 11 0 2 -4 4 -10 4 -5 0
-10 -5 -10 -11z"/>
<path d="M11050 2455 c0 -14 4 -25 9 -25 4 0 6 11 3 25 -2 14 -6 25 -8 25 -2
0 -4 -11 -4 -25z"/>
<path d="M10940 2439 c11 -38 26 -55 17 -19 -4 14 -7 31 -7 38 0 6 -4 12 -9
12 -6 0 -6 -12 -1 -31z"/>
<path d="M10221 2444 c0 -11 3 -14 6 -6 3 7 2 16 -1 19 -3 4 -6 -2 -5 -13z"/>
<path d="M10750 2451 c0 -5 5 -13 10 -16 6 -3 10 -2 10 4 0 5 -4 13 -10 16 -5
3 -10 2 -10 -4z"/>
<path d="M10401 2434 c0 -11 3 -14 6 -6 3 7 2 16 -1 19 -3 4 -6 -2 -5 -13z"/>
<path d="M9617 2420 c3 -11 10 -23 16 -27 7 -4 8 0 4 11 -4 10 -7 22 -7 27 0
5 -4 9 -9 9 -5 0 -7 -9 -4 -20z"/>
<path d="M9680 2425 c0 -8 4 -15 10 -15 5 0 7 7 4 15 -4 8 -8 15 -10 15 -2 0
-4 -7 -4 -15z"/>
<path d="M10835 2430 c-3 -5 -1 -10 4 -10 6 0 11 5 11 10 0 6 -2 10 -4 10 -3
0 -8 -4 -11 -10z"/>
<path d="M11095 2431 c-3 -5 -1 -12 5 -16 5 -3 10 1 10 9 0 18 -6 21 -15 7z"/>
<path d="M10811 2414 c0 -11 3 -14 6 -6 3 7 2 16 -1 19 -3 4 -6 -2 -5 -13z"/>
<path d="M11150 2331 c0 -6 5 -13 10 -16 6 -3 10 1 10 9 0 9 -4 16 -10 16 -5
0 -10 -4 -10 -9z"/>
<path d="M9945 2317 c-4 -10 -3 -23 4 -30 16 -16 23 -3 12 24 -8 22 -10 22
-16 6z"/>
<path d="M10041 2314 c0 -11 3 -14 6 -6 3 7 2 16 -1 19 -3 4 -6 -2 -5 -13z"/>
<path d="M9590 2233 c0 -12 5 -25 10 -28 13 -8 13 15 0 35 -8 12 -10 11 -10
-7z"/>
<path d="M10600 2231 c0 -12 5 -21 10 -21 6 0 10 6 10 14 0 8 -4 18 -10 21 -5
3 -10 -3 -10 -14z"/>
<path d="M11357 2220 c3 -11 10 -23 16 -27 7 -4 8 0 4 11 -4 10 -7 22 -7 27 0
5 -4 9 -9 9 -5 0 -7 -9 -4 -20z"/>
<path d="M11070 2204 c0 -8 5 -12 10 -9 6 4 8 11 5 16 -9 14 -15 11 -15 -7z"/>
<path d="M11290 2211 c0 -5 5 -13 10 -16 6 -3 10 -2 10 4 0 5 -4 13 -10 16 -5
3 -10 2 -10 -4z"/>
<path d="M9707 2153 c-4 -3 -7 -11 -7 -17 0 -6 5 -5 12 2 6 6 9 14 7 17 -3 3
-9 2 -12 -2z"/>
<path d="M9800 2113 c0 -12 5 -25 10 -28 13 -8 13 15 0 35 -8 12 -10 11 -10
-7z"/>
<path d="M9772 2100 c0 -14 2 -19 5 -12 2 6 2 18 0 25 -3 6 -5 1 -5 -13z"/>
<path d="M9841 2104 c0 -11 3 -14 6 -6 3 7 2 16 -1 19 -3 4 -6 -2 -5 -13z"/>
<path d="M9912 2100 c0 -14 2 -19 5 -12 2 6 2 18 0 25 -3 6 -5 1 -5 -13z"/>
<path d="M11648 2111 c-1 -5 -43 -29 -93 -55 -49 -25 -97 -50 -105 -55 -8 -5
-63 -32 -122 -61 -59 -28 -110 -55 -113 -60 -3 -4 -17 -11 -32 -15 -16 -4 -46
-21 -68 -38 -49 -39 -109 -71 -125 -65 -6 2 -29 -13 -50 -33 -21 -20 -56 -45
-79 -55 -22 -11 -41 -24 -41 -30 0 -6 -7 -17 -15 -24 -44 -36 7 -40 59 -5 55
38 205 112 248 123 20 6 74 33 119 61 46 28 90 51 99 51 9 0 27 11 39 24 12
13 39 32 59 42 20 10 47 27 59 38 25 21 37 29 112 69 59 32 91 60 91 82 0 16
-36 21 -42 6z"/>
<path d="M10190 2079 c-23 -10 -51 -19 -61 -19 -13 0 -19 -7 -19 -23 0 -13 2
-26 5 -29 7 -7 75 15 75 24 0 5 9 8 19 8 32 0 51 11 51 30 0 27 -22 30 -70 9z"/>
<path d="M11131 1984 c0 -11 3 -14 6 -6 3 7 2 16 -1 19 -3 4 -6 -2 -5 -13z"/>
<path d="M10410 1975 c0 -8 4 -15 10 -15 5 0 7 7 4 15 -4 8 -8 15 -10 15 -2 0
-4 -7 -4 -15z"/>
<path d="M9911 1964 c0 -11 3 -14 6 -6 3 7 2 16 -1 19 -3 4 -6 -2 -5 -13z"/>
<path d="M10021 1964 c0 -11 3 -14 6 -6 3 7 2 16 -1 19 -3 4 -6 -2 -5 -13z"/>
<path d="M10990 1970 c0 -8 5 -22 10 -30 9 -13 10 -13 10 0 0 8 -5 22 -10 30
-9 13 -10 13 -10 0z"/>
<path d="M11275 1960 c-3 -5 -2 -10 4 -10 5 0 13 5 16 10 3 6 2 10 -4 10 -5 0
-13 -4 -16 -10z"/>
<path d="M10040 1889 c0 -11 4 -18 10 -14 5 3 7 12 3 20 -7 21 -13 19 -13 -6z"/>
<path d="M10800 1870 c0 -5 5 -10 11 -10 5 0 7 5 4 10 -3 6 -8 10 -11 10 -2 0
-4 -4 -4 -10z"/>
<path d="M10940 1870 c0 -5 5 -10 11 -10 5 0 7 5 4 10 -3 6 -8 10 -11 10 -2 0
-4 -4 -4 -10z"/>
<path d="M9981 1834 c0 -11 3 -14 6 -6 3 7 2 16 -1 19 -3 4 -6 -2 -5 -13z"/>
<path d="M10041 1754 c0 -11 3 -14 6 -6 3 7 2 16 -1 19 -3 4 -6 -2 -5 -13z"/>
<path d="M10151 1743 c0 -4 4 -17 9 -28 8 -19 9 -19 9 2 1 12 -3 25 -9 28 -5
3 -10 3 -9 -2z"/>
<path d="M9950 1683 c0 -10 5 -25 10 -33 8 -12 10 -9 10 12 0 15 -4 30 -10 33
-5 3 -10 -2 -10 -12z"/>
<path d="M10021 1654 c0 -11 3 -14 6 -6 3 7 2 16 -1 19 -3 4 -6 -2 -5 -13z"/>
<path d="M10461 1654 c0 -11 3 -14 6 -6 3 7 2 16 -1 19 -3 4 -6 -2 -5 -13z"/>
<path d="M10511 1584 c0 -11 3 -14 6 -6 3 7 2 16 -1 19 -3 4 -6 -2 -5 -13z"/>
<path d="M10701 1580 c0 -14 4 -32 9 -40 8 -12 10 -12 9 5 0 11 -4 29 -9 40
-8 18 -9 18 -9 -5z"/>
<path d="M10910 1590 c0 -8 5 -22 10 -30 9 -13 10 -13 10 0 0 8 -5 22 -10 30
-9 13 -10 13 -10 0z"/>
<path d="M10951 1584 c0 -11 3 -14 6 -6 3 7 2 16 -1 19 -3 4 -6 -2 -5 -13z"/>
<path d="M10237 1540 c3 -11 9 -20 15 -20 5 0 4 9 -2 20 -6 11 -12 20 -14 20
-2 0 -2 -9 1 -20z"/>
<path d="M10485 1540 c3 -5 8 -10 11 -10 2 0 4 5 4 10 0 6 -5 10 -11 10 -5 0
-7 -4 -4 -10z"/>
<path d="M10060 1520 c0 -5 5 -10 11 -10 5 0 7 5 4 10 -3 6 -8 10 -11 10 -2 0
-4 -4 -4 -10z"/>
<path d="M10181 1494 c0 -11 3 -14 6 -6 3 7 2 16 -1 19 -3 4 -6 -2 -5 -13z"/>
<path d="M10470 1480 c0 -8 5 -22 10 -30 9 -13 10 -13 10 0 0 8 -5 22 -10 30
-9 13 -10 13 -10 0z"/>
<path d="M10161 1424 c0 -11 3 -14 6 -6 3 7 2 16 -1 19 -3 4 -6 -2 -5 -13z"/>
<path d="M90 3146 c0 -61 88 -369 135 -475 19 -42 64 -152 101 -246 36 -93 79
-201 96 -238 33 -77 31 -97 -4 -43 -23 36 -48 48 -48 23 0 -7 34 -60 76 -117
41 -58 105 -149 141 -203 91 -136 103 -107 14 33 -48 75 -72 124 -131 270 -24
58 -65 157 -91 220 -26 63 -68 192 -93 285 -53 203 -60 222 -90 250 -17 16
-29 46 -41 101 -10 43 -24 96 -32 117 -15 37 -33 50 -33 23z"/>
<path d="M290 1660 c0 -117 12 -235 25 -249 3 -3 10 1 15 9 19 31 25 -29 25
-245 0 -146 -4 -240 -13 -280 -26 -114 -84 -290 -138 -418 -31 -71 -54 -133
-52 -139 10 -28 189 290 253 448 24 60 42 110 40 112 -8 8 -26 -11 -45 -49
-11 -21 -25 -39 -30 -39 -13 0 -13 -1 10 97 12 46 20 97 20 111 -4 76 -4 237
-1 312 3 91 -13 251 -29 281 -6 10 -10 33 -10 52 0 61 -11 99 -28 92 -8 -3
-21 3 -28 12 -11 15 -13 0 -14 -107z"/>
<path d="M800 1751 c0 -14 236 -258 263 -273 34 -18 27 -2 -22 53 -66 74 -241
234 -241 220z"/>
<path d="M920 1522 c0 -22 195 -150 208 -137 8 8 -62 72 -127 115 -43 29 -81
39 -81 22z"/>
<path d="M150 911 c0 -6 5 -13 10 -16 6 -3 10 1 10 9 0 9 -4 16 -10 16 -5 0
-10 -4 -10 -9z"/>
<path d="M2397 873 c-36 -51 -60 -94 -71 -130 -11 -33 12 -29 25 5 6 15 27 47
47 72 66 80 64 76 48 89 -11 9 -21 2 -49 -36z"/>
<path d="M1878 800 c-4 -14 -8 -36 -8 -50 1 -22 2 -23 11 -7 6 9 9 32 7 50 -3
31 -3 31 -10 7z"/>
<path d="M107 313 c-4 -3 -7 -13 -7 -21 0 -12 3 -12 15 -2 8 7 15 16 15 21 0
11 -14 12 -23 2z"/>
<path d="M5481 3050 c-44 -35 -82 -80 -66 -80 3 0 30 14 61 31 48 27 62 31
104 26 26 -3 76 -20 109 -36 71 -37 121 -41 121 -12 0 46 -132 111 -224 111
-48 0 -60 -5 -105 -40z"/>
<path d="M5457 2907 c-32 -18 -58 -35 -58 -39 1 -5 1 -12 1 -18 0 -14 130 -78
165 -81 53 -4 120 1 134 10 12 8 12 12 2 24 -9 12 -9 17 0 23 7 4 19 -3 29
-16 22 -29 50 -21 50 14 0 32 -49 70 -124 96 -79 28 -130 25 -199 -13z m83
-77 c0 -5 -7 -10 -15 -10 -8 0 -15 5 -15 10 0 6 7 10 15 10 8 0 15 -4 15 -10z
m104 -10 c14 -14 -4 -30 -33 -30 -31 0 -57 23 -46 40 7 12 63 4 79 -10z"/>
<path d="M6225 2904 c-58 -30 -62 -40 -24 -64 35 -22 34 -22 176 -3 35 5 45 2
66 -19 13 -13 29 -32 35 -43 16 -30 26 -10 12 25 -15 36 -71 87 -116 106 -44
18 -112 18 -149 -2z"/>
<path d="M5815 2801 c-8 -15 3 -31 21 -31 9 0 14 7 12 17 -4 20 -24 28 -33 14z"/>
<path d="M6066 2739 c-26 -20 -36 -59 -15 -59 14 0 69 55 69 69 0 17 -25 13
-54 -10z"/>
<path d="M8563 2715 c-9 -15 -105 -48 -173 -59 -21 -4 -110 -59 -110 -68 0
-19 79 -5 151 27 44 19 118 42 165 52 84 16 86 16 130 -5 47 -23 58 -49 22
-54 -29 -4 -36 -28 -8 -28 11 0 34 -7 51 -15 26 -14 30 -14 35 -1 7 19 -3 36
-22 36 -16 0 -19 16 -4 25 15 9 12 35 -5 35 -8 0 -19 8 -24 18 -11 21 -62 39
-142 48 -48 5 -58 4 -66 -11z"/>
<path d="M8840 2700 c-12 -7 -11 -13 8 -32 12 -13 28 -41 35 -63 14 -41 37
-59 37 -28 0 21 -44 118 -57 126 -5 3 -15 2 -23 -3z"/>
<path d="M8160 2650 c0 -8 5 -22 10 -30 9 -13 10 -13 10 0 0 8 -5 22 -10 30
-9 13 -10 13 -10 0z"/>
<path d="M8850 2596 c0 -8 5 -18 10 -21 6 -3 10 1 10 9 0 8 -4 18 -10 21 -5 3
-10 -1 -10 -9z"/>
<path d="M8441 2554 c0 -11 3 -14 6 -6 3 7 2 16 -1 19 -3 4 -6 -2 -5 -13z"/>
<path d="M7970 2390 c0 -5 5 -10 11 -10 5 0 7 5 4 10 -3 6 -8 10 -11 10 -2 0
-4 -4 -4 -10z"/>
<path d="M5460 2430 c0 -5 5 -10 11 -10 5 0 7 5 4 10 -3 6 -8 10 -11 10 -2 0
-4 -4 -4 -10z"/>
<path d="M5916 2375 c11 -46 26 -67 19 -25 -3 19 -10 39 -16 45 -7 7 -8 1 -3
-20z"/>
<path d="M5980 2380 c0 -5 7 -10 16 -10 8 0 12 5 9 10 -3 6 -10 10 -16 10 -5
0 -9 -4 -9 -10z"/>
<path d="M5957 2352 c3 -12 9 -25 14 -28 14 -8 11 10 -6 32 -13 18 -14 18 -8
-4z"/>
<path d="M6140 2338 c0 -9 5 -20 10 -23 13 -8 13 5 0 25 -8 13 -10 13 -10 -2z"/>
<path d="M6250 2343 c0 -4 5 -15 10 -23 8 -13 10 -13 10 2 0 9 -4 20 -10 23
-5 3 -10 3 -10 -2z"/>
<path d="M5902 2320 c0 -14 2 -19 5 -12 2 6 2 18 0 25 -3 6 -5 1 -5 -13z"/>
<path d="M6211 2333 c0 -4 4 -17 9 -28 8 -19 9 -19 9 2 1 12 -3 25 -9 28 -5 3
-10 3 -9 -2z"/>
<path d="M6041 2314 c0 -11 3 -14 6 -6 3 7 2 16 -1 19 -3 4 -6 -2 -5 -13z"/>
<path d="M6013 2299 c4 -13 7 -30 7 -36 0 -7 4 -13 8 -13 12 0 2 59 -11 67 -6
4 -8 -2 -4 -18z"/>
<path d="M5950 2090 c0 -5 5 -10 10 -10 6 0 10 5 10 10 0 6 -4 10 -10 10 -5 0
-10 -4 -10 -10z"/>
<path d="M5500 2080 c-11 -7 -1 -15 45 -35 32 -15 65 -34 72 -43 11 -16 12
-15 13 3 0 29 -12 43 -53 65 -41 22 -55 24 -77 10z"/>
<path d="M5801 1994 c0 -11 3 -14 6 -6 3 7 2 16 -1 19 -3 4 -6 -2 -5 -13z"/>
<path d="M5727 1993 c-4 -6 -21 -14 -37 -18 -31 -7 -36 -14 -21 -30 5 -6 11
-23 13 -39 l3 -29 28 43 c15 24 27 53 25 64 -2 14 -6 17 -11 9z"/>
<path d="M5760 1991 c0 -5 5 -13 10 -16 6 -3 10 -2 10 4 0 5 -4 13 -10 16 -5
3 -10 2 -10 -4z"/>
<path d="M6200 1980 c0 -5 5 -10 11 -10 5 0 7 5 4 10 -3 6 -8 10 -11 10 -2 0
-4 -4 -4 -10z"/>
<path d="M5810 1940 c0 -5 5 -10 11 -10 5 0 7 5 4 10 -3 6 -8 10 -11 10 -2 0
-4 -4 -4 -10z"/>
<path d="M6141 1934 c0 -11 3 -14 6 -6 3 7 2 16 -1 19 -3 4 -6 -2 -5 -13z"/>
<path d="M5651 1894 c0 -11 3 -14 6 -6 3 7 2 16 -1 19 -3 4 -6 -2 -5 -13z"/>
<path d="M5481 1854 c0 -11 3 -14 6 -6 3 7 2 16 -1 19 -3 4 -6 -2 -5 -13z"/>
<path d="M6051 1854 c0 -11 3 -14 6 -6 3 7 2 16 -1 19 -3 4 -6 -2 -5 -13z"/>
<path d="M6001 1794 c0 -11 3 -14 6 -6 3 7 2 16 -1 19 -3 4 -6 -2 -5 -13z"/>
<path d="M8770 2278 c-45 -31 -52 -53 -14 -44 74 18 120 18 133 2 18 -22 31
-20 31 4 0 24 -54 60 -91 60 -14 0 -41 -10 -59 -22z"/>
<path d="M8305 2236 c-16 -8 -39 -21 -50 -29 l-20 -16 20 -6 c11 -4 41 -16 67
-27 53 -23 74 -19 88 16 7 18 18 26 42 28 l33 3 -35 23 c-40 25 -99 28 -145 8z"/>
<path d="M12526 2094 c-3 -9 -6 -23 -6 -32 1 -14 5 -12 20 7 11 13 20 27 20
32 0 15 -28 10 -34 -7z"/>
<path d="M12590 2053 c0 -12 5 -25 10 -28 13 -8 13 15 0 35 -8 12 -10 11 -10
-7z"/>
<path d="M12540 1976 c0 -9 5 -16 10 -16 6 0 10 4 10 9 0 6 -4 13 -10 16 -5 3
-10 -1 -10 -9z"/>
<path d="M12500 1970 c0 -5 5 -10 11 -10 5 0 7 5 4 10 -3 6 -8 10 -11 10 -2 0
-4 -4 -4 -10z"/>
<path d="M12367 1957 c-11 -29 -9 -43 4 -30 6 6 9 19 7 29 -3 18 -4 18 -11 1z"/>
<path d="M12486 1906 c3 -27 9 -58 14 -70 15 -38 10 34 -5 79 l-14 40 5 -49z"/>
<path d="M12415 1892 c4 -30 3 -33 -15 -27 -30 10 -24 -11 15 -51 19 -19 35
-42 36 -52 1 -11 4 -8 9 8 8 24 8 24 9 3 2 -38 21 -26 21 13 0 27 -5 37 -19
41 -11 3 -29 26 -40 51 -19 43 -21 44 -16 14z"/>
<path d="M12450 1895 c0 -15 4 -24 10 -20 6 3 10 12 10 20 0 8 -4 17 -10 20
-6 4 -10 -5 -10 -20z"/>
<path d="M12351 1874 c0 -11 3 -14 6 -6 3 7 2 16 -1 19 -3 4 -6 -2 -5 -13z"/>
<path d="M12570 1840 c0 -5 5 -10 10 -10 6 0 10 5 10 10 0 6 -4 10 -10 10 -5
0 -10 -4 -10 -10z"/>
<path d="M12360 1799 c0 -14 -4 -29 -9 -34 -5 -6 -5 -19 -1 -30 8 -18 9 -18 9
-1 1 13 6 16 17 12 14 -5 16 -1 10 26 -8 42 -26 61 -26 27z"/>
<path d="M12260 1800 c0 -28 12 -60 22 -60 6 0 7 11 3 28 -7 31 -25 54 -25 32z"/>
<path d="M12421 1754 c0 -11 3 -14 6 -6 3 7 2 16 -1 19 -3 4 -6 -2 -5 -13z"/>
<path d="M12550 1763 c0 -4 5 -15 10 -23 8 -13 10 -13 10 2 0 9 -4 20 -10 23
-5 3 -10 3 -10 -2z"/>
<path d="M12100 1747 c0 -28 21 -107 31 -113 5 -3 7 17 4 43 l-5 48 14 -30
c18 -35 21 -12 5 34 -11 31 -29 42 -29 19 0 -9 -4 -8 -10 2 -8 13 -10 12 -10
-3z"/>
<path d="M12206 1735 c4 -8 8 -15 10 -15 2 0 4 7 4 15 0 8 -4 15 -10 15 -5 0
-7 -7 -4 -15z"/>
<path d="M12175 1720 c19 -100 50 -211 53 -194 3 23 -34 179 -49 204 -7 11 -8
8 -4 -10z"/>
<path d="M12610 1713 c0 -13 5 -23 10 -23 13 0 13 11 0 30 -8 12 -10 11 -10
-7z"/>
<path d="M12538 1690 c2 -17 9 -33 15 -37 6 -4 8 2 4 18 -4 13 -7 30 -7 37 0
6 -4 12 -8 12 -5 0 -7 -14 -4 -30z"/>
<path d="M12236 1650 c15 -130 17 -141 28 -137 6 3 10 10 8 16 -1 7 -5 39 -9
72 -3 32 -9 59 -14 59 -4 0 -10 8 -13 18 -3 9 -3 -3 0 -28z"/>
<path d="M12290 1662 c0 -5 3 -12 6 -15 4 -4 7 -31 8 -62 1 -59 19 -80 24 -28
4 38 -15 113 -28 113 -6 0 -10 -4 -10 -8z"/>
<path d="M12580 1649 c7 -11 14 -19 16 -16 7 7 -7 37 -17 37 -6 0 -5 -9 1 -21z"/>
<path d="M12010 1649 c0 -5 5 -7 10 -4 6 3 10 8 10 11 0 2 -4 4 -10 4 -5 0
-10 -5 -10 -11z"/>
<path d="M12370 1651 c0 -6 5 -13 10 -16 6 -3 10 1 10 9 0 9 -4 16 -10 16 -5
0 -10 -4 -10 -9z"/>
<path d="M12061 1634 c0 -11 3 -14 6 -6 3 7 2 16 -1 19 -3 4 -6 -2 -5 -13z"/>
<path d="M12085 1620 c3 -5 11 -10 16 -10 6 0 7 5 4 10 -3 6 -11 10 -16 10 -6
0 -7 -4 -4 -10z"/>
<path d="M12141 1584 c0 -11 3 -14 6 -6 3 7 2 16 -1 19 -3 4 -6 -2 -5 -13z"/>
<path d="M11820 1488 c-15 -20 -17 -20 -33 -3 -23 22 -30 15 -18 -18 7 -17 16
-25 25 -21 10 4 18 -6 26 -33 17 -51 35 -69 24 -23 -5 19 -8 54 -8 78 1 23 1
42 0 42 0 -1 -8 -10 -16 -22z"/>
<path d="M11930 1484 c0 -8 5 -12 10 -9 6 3 10 10 10 16 0 5 -4 9 -10 9 -5 0
-10 -7 -10 -16z"/>
<path d="M12010 1490 c0 -5 5 -10 11 -10 5 0 7 5 4 10 -3 6 -8 10 -11 10 -2 0
-4 -4 -4 -10z"/>
<path d="M12001 1434 c0 -11 3 -14 6 -6 3 7 2 16 -1 19 -3 4 -6 -2 -5 -13z"/>
<path d="M11706 1402 c-5 -18 -5 -36 -2 -39 7 -7 19 43 13 59 -2 7 -7 -2 -11
-20z"/>
<path d="M8626 1875 c-27 -21 -31 -22 -41 -8 -11 14 -13 14 -17 -5 -3 -11 -20
-28 -37 -36 -31 -16 -31 -16 -41 10 -6 15 -13 24 -16 21 -12 -12 7 -58 31 -79
14 -12 25 -29 25 -37 1 -15 2 -15 13 0 10 13 72 49 84 49 1 0 3 -8 3 -17 1
-15 4 -14 20 6 20 23 25 70 12 103 -6 14 -10 14 -36 -7z"/>
<path d="M8675 1890 c3 -5 8 -10 11 -10 2 0 4 5 4 10 0 6 -5 10 -11 10 -5 0
-7 -4 -4 -10z"/>
<path d="M8721 1864 c0 -11 3 -14 6 -6 3 7 2 16 -1 19 -3 4 -6 -2 -5 -13z"/>
<path d="M8691 1824 c0 -11 3 -14 6 -6 3 7 2 16 -1 19 -3 4 -6 -2 -5 -13z"/>
<path d="M8320 1700 c0 -5 5 -10 10 -10 6 0 10 5 10 10 0 6 -4 10 -10 10 -5 0
-10 -4 -10 -10z"/>
<path d="M8271 1654 c0 -11 3 -14 6 -6 3 7 2 16 -1 19 -3 4 -6 -2 -5 -13z"/>
<path d="M8630 1614 c0 -8 5 -12 10 -9 6 4 8 11 5 16 -9 14 -15 11 -15 -7z"/>
<path d="M8653 1547 c5 -15 37 -22 37 -9 0 5 -9 12 -21 15 -13 3 -19 1 -16 -6z"/>
<path d="M5231 1444 c0 -11 3 -14 6 -6 3 7 2 16 -1 19 -3 4 -6 -2 -5 -13z"/>
<path d="M5101 1334 c0 -11 3 -14 6 -6 3 7 2 16 -1 19 -3 4 -6 -2 -5 -13z"/>
<path d="M5976 1313 c9 -38 14 -42 14 -10 0 14 -5 29 -10 32 -7 4 -8 -3 -4
-22z"/>
<path d="M6040 1326 c0 -9 5 -16 10 -16 6 0 10 4 10 9 0 6 -4 13 -10 16 -5 3
-10 -1 -10 -9z"/>
<path d="M5941 1304 c0 -11 3 -14 6 -6 3 7 2 16 -1 19 -3 4 -6 -2 -5 -13z"/>
<path d="M4322 1177 c-24 -49 -28 -71 -11 -65 13 4 42 84 37 100 -2 5 -14 -10
-26 -35z"/>
<path d="M6222 1181 c6 -22 14 -41 19 -41 9 0 -7 60 -20 73 -6 6 -5 -8 1 -32z"/>
<path d="M5901 1194 c0 -11 3 -14 6 -6 3 7 2 16 -1 19 -3 4 -6 -2 -5 -13z"/>
<path d="M4565 1170 c-9 -40 2 -118 27 -195 22 -66 55 -135 65 -135 11 0 -7
74 -31 124 -14 31 -29 87 -36 141 -6 49 -13 91 -15 93 -2 2 -6 -11 -10 -28z"/>
<path d="M5191 1138 c-1 -15 4 -30 9 -33 12 -7 12 12 0 40 -8 18 -9 17 -9 -7z"/>
<path d="M5240 1103 c0 -13 5 -23 10 -23 13 0 13 11 0 30 -8 12 -10 11 -10 -7z"/>
<path d="M6361 1064 c0 -11 3 -14 6 -6 3 7 2 16 -1 19 -3 4 -6 -2 -5 -13z"/>
<path d="M5285 1040 c3 -5 8 -10 11 -10 2 0 4 5 4 10 0 6 -5 10 -11 10 -5 0
-7 -4 -4 -10z"/>
<path d="M6470 930 c0 -5 5 -10 11 -10 5 0 7 5 4 10 -3 6 -8 10 -11 10 -2 0
-4 -4 -4 -10z"/>
<path d="M6403 906 c4 -10 7 -24 7 -32 0 -8 4 -14 9 -14 11 0 1 49 -12 57 -7
4 -8 0 -4 -11z"/>
<path d="M5482 882 c2 -9 13 -18 26 -20 28 -4 20 24 -9 31 -15 4 -19 1 -17
-11z"/>
<path d="M6306 855 c6 -15 35 -35 50 -35 4 0 -3 11 -16 25 -26 28 -42 33 -34
10z"/>
<path d="M6360 780 c0 -8 5 -22 10 -30 9 -13 10 -13 10 0 0 8 -5 22 -10 30 -9
13 -10 13 -10 0z"/>
<path d="M4720 752 c0 -5 8 -17 19 -26 10 -9 28 -44 40 -76 14 -39 39 -78 71
-112 49 -52 58 -42 14 17 -12 17 -32 50 -44 75 -37 74 -74 130 -87 130 -7 0
-13 -4 -13 -8z"/>
<path d="M6400 744 c0 -8 5 -12 10 -9 6 4 8 11 5 16 -9 14 -15 11 -15 -7z"/>
<path d="M5786 685 c-7 -26 -20 -32 -31 -15 -9 15 -35 12 -35 -3 0 -7 18 -23
40 -36 22 -12 40 -26 40 -32 0 -5 15 -9 33 -9 48 0 75 -10 81 -29 3 -9 3 2 1
23 -3 26 -13 48 -30 63 -14 13 -25 28 -25 33 0 6 -9 10 -19 10 -11 0 -23 5
-26 10 -11 17 -23 11 -29 -15z m64 -45 c7 -14 7 -20 0 -20 -5 0 -10 5 -10 10
0 6 -6 10 -14 10 -8 0 -18 5 -21 10 -3 6 3 10 14 10 11 0 25 -9 31 -20z"/>
<path d="M6221 623 c0 -4 4 -17 9 -28 8 -19 9 -19 9 2 1 12 -3 25 -9 28 -5 3
-10 3 -9 -2z"/>
<path d="M3674 604 c3 -11 10 -70 16 -131 6 -62 16 -125 22 -140 12 -27 13
-27 16 21 3 53 -35 253 -50 263 -6 3 -8 -2 -4 -13z"/>
<path d="M6479 523 c-12 -15 -12 -16 4 -10 13 5 20 0 26 -16 8 -20 10 -20 16
-4 7 17 -9 47 -25 47 -4 0 -14 -8 -21 -17z"/>
<path d="M6540 489 c0 -5 5 -7 10 -4 6 3 10 8 10 11 0 2 -4 4 -10 4 -5 0 -10
-5 -10 -11z"/>
<path d="M6125 450 c11 -38 32 -75 49 -89 40 -33 6 58 -34 94 l-23 20 8 -25z"/>
<path d="M6550 441 c0 -11 -5 -21 -12 -23 -7 -3 -9 -12 -4 -23 9 -24 24 -9 32
33 4 21 3 32 -5 32 -6 0 -11 -9 -11 -19z"/>
<path d="M6461 424 c0 -11 3 -14 6 -6 3 7 2 16 -1 19 -3 4 -6 -2 -5 -13z"/>
<path d="M6240 421 c0 -6 4 -13 10 -16 6 -3 7 1 4 9 -7 18 -14 21 -14 7z"/>
<path d="M4870 410 c0 -5 5 -10 10 -10 6 0 10 5 10 10 0 6 -4 10 -10 10 -5 0
-10 -4 -10 -10z"/>
<path d="M6537 333 c-12 -11 -7 -60 6 -72 17 -14 27 -4 27 25 0 42 -16 65 -33
47z"/>
<path d="M6241 304 c0 -11 3 -14 6 -6 3 7 2 16 -1 19 -3 4 -6 -2 -5 -13z"/>
<path d="M12481 1374 c0 -11 3 -14 6 -6 3 7 2 16 -1 19 -3 4 -6 -2 -5 -13z"/>
<path d="M12175 1370 c-3 -5 -1 -10 4 -10 6 0 11 5 11 10 0 6 -2 10 -4 10 -3
0 -8 -4 -11 -10z"/>
<path d="M12447 1333 c9 -26 18 -42 21 -35 5 16 -17 82 -28 82 -5 0 -2 -21 7
-47z"/>
<path d="M12521 1364 c0 -11 3 -14 6 -6 3 7 2 16 -1 19 -3 4 -6 -2 -5 -13z"/>
<path d="M12241 1334 c0 -11 3 -14 6 -6 3 7 2 16 -1 19 -3 4 -6 -2 -5 -13z"/>
<path d="M12421 1314 c0 -11 3 -14 6 -6 3 7 2 16 -1 19 -3 4 -6 -2 -5 -13z"/>
<path d="M12280 1295 c0 -5 5 -27 10 -47 13 -45 34 -64 24 -21 -8 32 -33 83
-34 68z"/>
<path d="M12254 1257 c3 -10 6 -23 6 -28 0 -5 5 -9 10 -9 14 0 12 13 -6 36
-14 17 -15 17 -10 1z"/>
<path d="M12160 1201 c0 -5 5 -13 10 -16 6 -3 10 -2 10 4 0 5 -4 13 -10 16 -5
3 -10 2 -10 -4z"/>
<path d="M12296 1095 c4 -8 10 -15 15 -15 4 0 6 7 3 15 -4 8 -10 15 -15 15 -4
0 -6 -7 -3 -15z"/>
<path d="M12340 1090 c0 -5 7 -10 15 -10 8 0 15 5 15 10 0 6 -7 10 -15 10 -8
0 -15 -4 -15 -10z"/>
<path d="M8202 1360 c0 -14 2 -19 5 -12 2 6 2 18 0 25 -3 6 -5 1 -5 -13z"/>
<path d="M8060 1216 c0 -8 5 -18 10 -21 6 -3 10 3 10 14 0 12 -4 21 -10 21 -5
0 -10 -6 -10 -14z"/>
<path d="M8202 1210 c0 -14 2 -19 5 -12 2 6 2 18 0 25 -3 6 -5 1 -5 -13z"/>
<path d="M8480 1218 c0 -7 5 -20 10 -28 8 -12 10 -9 10 13 0 15 -4 27 -10 27
-5 0 -10 -6 -10 -12z"/>
<path d="M8810 1206 c0 -9 5 -16 10 -16 6 0 10 4 10 9 0 6 -4 13 -10 16 -5 3
-10 -1 -10 -9z"/>
<path d="M7390 1145 c0 -8 6 -15 14 -15 7 0 29 -12 49 -27 19 -16 49 -36 67
-45 18 -11 39 -35 51 -60 11 -24 28 -54 39 -68 11 -14 25 -47 32 -75 7 -27 18
-53 25 -58 7 -4 38 -87 69 -185 31 -97 60 -184 65 -192 5 -8 21 -39 35 -67 28
-58 41 -70 56 -55 7 7 5 19 -6 39 -37 67 -57 120 -76 193 -24 94 -24 90 -5 90
8 0 15 6 15 14 0 10 -9 14 -27 13 -26 -2 -29 4 -70 112 -24 63 -48 120 -53
126 -6 7 -24 45 -40 86 -31 75 -63 119 -86 119 -7 0 -17 6 -21 13 -10 16 -93
57 -116 57 -9 0 -17 -7 -17 -15z"/>
<path d="M8161 1108 c1 -13 4 -34 8 -46 6 -24 6 -24 24 -4 23 25 14 72 -14 72
-13 0 -19 -7 -18 -22z"/>
<path d="M7800 1080 c0 -11 4 -20 9 -20 5 0 7 9 4 20 -3 11 -7 20 -9 20 -2 0
-4 -9 -4 -20z"/>
<path d="M8840 1090 c0 -5 5 -10 10 -10 6 0 10 5 10 10 0 6 -4 10 -10 10 -5 0
-10 -4 -10 -10z"/>
<path d="M8630 1070 c0 -5 5 -10 11 -10 5 0 7 5 4 10 -3 6 -8 10 -11 10 -2 0
-4 -4 -4 -10z"/>
<path d="M8141 1024 c0 -11 3 -14 6 -6 3 7 2 16 -1 19 -3 4 -6 -2 -5 -13z"/>
<path d="M8496 1025 c4 -8 8 -15 10 -15 2 0 4 7 4 15 0 8 -4 15 -10 15 -5 0
-7 -7 -4 -15z"/>
<path d="M9001 1024 c0 -11 3 -14 6 -6 3 7 2 16 -1 19 -3 4 -6 -2 -5 -13z"/>
<path d="M7361 984 c0 -11 3 -14 6 -6 3 7 2 16 -1 19 -3 4 -6 -2 -5 -13z"/>
<path d="M8007 980 c3 -11 9 -20 15 -20 5 0 4 9 -2 20 -6 11 -12 20 -14 20 -2
0 -2 -9 1 -20z"/>
<path d="M8621 984 c0 -11 3 -14 6 -6 3 7 2 16 -1 19 -3 4 -6 -2 -5 -13z"/>
<path d="M8207 983 c-4 -3 -7 -13 -7 -22 1 -13 3 -13 11 2 11 19 8 33 -4 20z"/>
<path d="M8260 981 c0 -5 5 -13 10 -16 6 -3 10 -2 10 4 0 5 -4 13 -10 16 -5 3
-10 2 -10 -4z"/>
<path d="M9046 975 c4 -8 11 -15 16 -15 6 0 5 6 -2 15 -7 8 -14 15 -16 15 -2
0 -1 -7 2 -15z"/>
<path d="M8342 950 c0 -14 2 -19 5 -12 2 6 2 18 0 25 -3 6 -5 1 -5 -13z"/>
<path d="M8504 919 c-4 -6 -10 -26 -14 -45 -7 -31 -6 -33 11 -23 10 5 19 15
19 22 0 7 3 22 6 35 7 23 -9 31 -22 11z"/>
<path d="M8930 883 c0 -12 5 -25 10 -28 13 -8 13 15 0 35 -8 12 -10 11 -10 -7z"/>
<path d="M7751 864 c0 -11 3 -14 6 -6 3 7 2 16 -1 19 -3 4 -6 -2 -5 -13z"/>
<path d="M8651 864 c0 -11 3 -14 6 -6 3 7 2 16 -1 19 -3 4 -6 -2 -5 -13z"/>
<path d="M8537 852 c3 -12 9 -25 14 -28 14 -8 11 10 -6 32 -13 18 -14 18 -8
-4z"/>
<path d="M8691 854 c0 -11 3 -14 6 -6 3 7 2 16 -1 19 -3 4 -6 -2 -5 -13z"/>
<path d="M8721 854 c0 -11 3 -14 6 -6 3 7 2 16 -1 19 -3 4 -6 -2 -5 -13z"/>
<path d="M9084 857 c3 -10 6 -25 6 -33 0 -8 5 -14 11 -14 12 0 2 40 -14 55 -7
7 -8 4 -3 -8z"/>
<path d="M7716 847 c3 -10 9 -15 12 -12 3 3 0 11 -7 18 -10 9 -11 8 -5 -6z"/>
<path d="M8590 793 c0 -4 5 -15 10 -23 8 -13 10 -13 10 2 0 9 -4 20 -10 23 -5
3 -10 3 -10 -2z"/>
<path d="M7740 770 c0 -11 4 -20 9 -20 5 0 7 9 4 20 -3 11 -7 20 -9 20 -2 0
-4 -9 -4 -20z"/>
<path d="M8770 769 c0 -5 5 -7 10 -4 6 3 10 8 10 11 0 2 -4 4 -10 4 -5 0 -10
-5 -10 -11z"/>
<path d="M8750 748 c0 -15 5 -30 10 -33 13 -8 13 25 0 45 -8 12 -10 9 -10 -12z"/>
<path d="M8102 740 c0 -14 2 -19 5 -12 2 6 2 18 0 25 -3 6 -5 1 -5 -13z"/>
<path d="M8470 718 c0 -15 5 -30 10 -33 13 -8 13 25 0 45 -8 12 -10 9 -10 -12z"/>
<path d="M8931 733 c0 -4 4 -17 9 -28 8 -19 9 -19 9 2 1 12 -3 25 -9 28 -5 3
-10 3 -9 -2z"/>
<path d="M7641 686 c-22 -23 -22 -23 -1 -29 15 -4 22 1 26 19 9 35 1 38 -25
10z"/>
<path d="M8180 700 c0 -5 5 -10 10 -10 6 0 10 5 10 10 0 6 -4 10 -10 10 -5 0
-10 -4 -10 -10z"/>
<path d="M8591 663 c0 -4 4 -17 9 -28 8 -19 9 -19 9 2 1 12 -3 25 -9 28 -5 3
-10 3 -9 -2z"/>
<path d="M8985 660 c-3 -5 -1 -10 4 -10 6 0 11 5 11 10 0 6 -2 10 -4 10 -3 0
-8 -4 -11 -10z"/>
<path d="M8340 653 c0 -4 5 -15 10 -23 8 -13 10 -13 10 2 0 9 -4 20 -10 23 -5
3 -10 3 -10 -2z"/>
<path d="M8916 645 c4 -8 10 -15 15 -15 4 0 6 7 3 15 -4 8 -10 15 -15 15 -4 0
-6 -7 -3 -15z"/>
<path d="M9031 630 c0 -14 4 -32 9 -40 8 -12 10 -12 9 5 0 11 -4 29 -9 40 -8
18 -9 18 -9 -5z"/>
<path d="M8815 630 c3 -5 8 -10 11 -10 2 0 4 5 4 10 0 6 -5 10 -11 10 -5 0 -7
-4 -4 -10z"/>
<path d="M8066 615 c4 -8 8 -15 10 -15 2 0 4 7 4 15 0 8 -4 15 -10 15 -5 0 -7
-7 -4 -15z"/>
<path d="M8530 620 c0 -5 5 -10 10 -10 6 0 10 5 10 10 0 6 -4 10 -10 10 -5 0
-10 -4 -10 -10z"/>
<path d="M8751 614 c0 -11 3 -14 6 -6 3 7 2 16 -1 19 -3 4 -6 -2 -5 -13z"/>
<path d="M8500 598 c0 -9 5 -20 10 -23 13 -8 13 5 0 25 -8 13 -10 13 -10 -2z"/>
<path d="M8261 584 c0 -11 3 -14 6 -6 3 7 2 16 -1 19 -3 4 -6 -2 -5 -13z"/>
<path d="M7333 571 c-33 -15 -49 -39 -36 -52 10 -10 103 31 121 54 12 14 9 15
-20 14 -18 -1 -47 -8 -65 -16z"/>
<path d="M8342 525 c2 -22 9 -31 26 -33 28 -4 28 1 -4 35 l-26 28 4 -30z"/>
<path d="M9017 530 c3 -11 9 -20 15 -20 5 0 4 9 -2 20 -6 11 -12 20 -14 20 -2
0 -2 -9 1 -20z"/>
<path d="M7970 529 c0 -5 5 -7 10 -4 6 3 10 8 10 11 0 2 -4 4 -10 4 -5 0 -10
-5 -10 -11z"/>
<path d="M7690 520 c0 -5 5 -10 10 -10 6 0 10 5 10 10 0 6 -4 10 -10 10 -5 0
-10 -4 -10 -10z"/>
<path d="M8551 424 c0 -11 3 -14 6 -6 3 7 2 16 -1 19 -3 4 -6 -2 -5 -13z"/>
<path d="M9181 354 c0 -11 3 -14 6 -6 3 7 2 16 -1 19 -3 4 -6 -2 -5 -13z"/>
<path d="M8280 328 c0 -9 5 -20 11 -23 17 -11 20 0 4 21 -13 17 -14 17 -15 2z"/>
<path d="M8937 290 c3 -11 7 -20 9 -20 2 0 4 9 4 20 0 11 -4 20 -9 20 -5 0 -7
-9 -4 -20z"/>
<path d="M12000 1265 c0 -15 18 -40 24 -34 3 3 -1 14 -9 25 -8 10 -14 15 -15
9z"/>
<path d="M12080 1228 c0 -23 12 -58 19 -58 10 0 1 59 -10 66 -5 3 -9 -1 -9 -8z"/>
<path d="M11851 1165 c0 -16 7 -48 14 -70 l14 -40 -5 49 c-3 27 -9 58 -14 70
-8 18 -9 17 -9 -9z"/>
<path d="M11817 1128 c-5 -19 -12 -25 -22 -22 -19 8 -19 -6 -1 -32 14 -18 15
-18 26 10 6 16 9 39 8 50 -3 18 -5 17 -11 -6z"/>
<path d="M12006 1110 c8 -43 14 -51 14 -19 0 13 -5 31 -10 39 -7 11 -8 5 -4
-20z"/>
<path d="M12110 1123 c0 -23 15 -39 24 -25 3 5 -1 18 -9 28 -14 18 -14 18 -15
-3z"/>
<path d="M11971 1094 c0 -11 3 -14 6 -6 3 7 2 16 -1 19 -3 4 -6 -2 -5 -13z"/>
<path d="M11890 1018 c0 -9 5 -20 10 -23 13 -8 13 5 0 25 -8 13 -10 13 -10 -2z"/>
<path d="M12141 994 c0 -11 3 -14 6 -6 3 7 2 16 -1 19 -3 4 -6 -2 -5 -13z"/>
<path d="M11646 965 c3 -22 10 -47 15 -55 14 -25 10 20 -7 60 l-14 35 6 -40z"/>
<path d="M11931 984 c0 -11 3 -14 6 -6 3 7 2 16 -1 19 -3 4 -6 -2 -5 -13z"/>
<path d="M11560 980 c0 -5 5 -10 10 -10 6 0 10 5 10 10 0 6 -4 10 -10 10 -5 0
-10 -4 -10 -10z"/>
<path d="M11680 968 c0 -15 5 -30 10 -33 13 -8 13 25 0 45 -8 12 -10 9 -10
-12z"/>
<path d="M11720 948 c0 -15 5 -30 10 -33 13 -8 13 25 0 45 -8 12 -10 9 -10
-12z"/>
<path d="M12010 954 c0 -8 5 -12 10 -9 6 4 8 11 5 16 -9 14 -15 11 -15 -7z"/>
<path d="M11586 910 c9 -48 23 -73 39 -66 8 3 16 -5 20 -21 9 -38 17 -21 9 22
-4 25 -11 35 -20 31 -9 -3 -22 9 -34 32 l-21 37 7 -35z"/>
<path d="M11451 889 c18 -78 30 -121 35 -116 6 6 -26 140 -36 151 -5 4 -4 -11
1 -35z"/>
<path d="M11495 855 c4 -27 11 -54 16 -60 7 -6 8 6 3 35 -10 65 -27 87 -19 25z"/>
<path d="M11961 884 c0 -11 3 -14 6 -6 3 7 2 16 -1 19 -3 4 -6 -2 -5 -13z"/>
<path d="M11351 860 c0 -8 6 -28 14 -45 7 -16 14 -23 14 -15 0 8 -6 29 -14 45
-7 17 -14 23 -14 15z"/>
<path d="M11560 863 c0 -14 19 -38 25 -32 8 8 -5 39 -16 39 -5 0 -9 -3 -9 -7z"/>
<path d="M11416 824 c-10 -38 0 -41 12 -5 6 17 7 31 3 31 -5 0 -12 -12 -15
-26z"/>
<path d="M11811 809 c-15 -43 -14 -45 9 -24 20 18 28 55 11 55 -5 0 -14 -14
-20 -31z"/>
<path d="M11440 773 c0 -10 5 -25 10 -33 8 -12 10 -9 10 12 0 15 -4 30 -10 33
-5 3 -10 -2 -10 -12z"/>
<path d="M11661 754 c0 -11 3 -14 6 -6 3 7 2 16 -1 19 -3 4 -6 -2 -5 -13z"/>
<path d="M11731 754 c0 -11 3 -14 6 -6 3 7 2 16 -1 19 -3 4 -6 -2 -5 -13z"/>
<path d="M11700 745 c7 -9 15 -13 17 -11 7 7 -7 26 -19 26 -6 0 -6 -6 2 -15z"/>
<path d="M11681 683 c-1 -12 4 -25 9 -28 12 -7 12 2 0 30 -8 19 -9 19 -9 -2z"/>
<path d="M11500 676 c0 -8 5 -18 10 -21 6 -3 10 1 10 9 0 8 -4 18 -10 21 -5 3
-10 -1 -10 -9z"/>
<path d="M11330 666 c0 -9 5 -16 10 -16 6 0 10 4 10 9 0 6 -4 13 -10 16 -5 3
-10 -1 -10 -9z"/>
<path d="M11550 623 c0 -17 5 -35 10 -38 13 -8 13 35 0 55 -7 11 -10 7 -10
-17z"/>
<path d="M11527 613 c-12 -11 -8 -61 6 -66 9 -3 11 6 9 34 -4 41 -5 43 -15 32z"/>
<path d="M11576 541 c-4 -7 -5 -15 -2 -18 9 -9 19 4 14 18 -4 11 -6 11 -12 0z"/>
<path d="M11372 500 c0 -14 4 -36 8 -50 8 -24 8 -24 8 5 0 17 -3 39 -8 50 -8
18 -9 18 -8 -5z"/>
<path d="M11452 450 c0 -14 2 -19 5 -12 2 6 2 18 0 25 -3 6 -5 1 -5 -13z"/>
<path d="M11350 300 c0 -5 5 -10 11 -10 5 0 7 5 4 10 -3 6 -8 10 -11 10 -2 0
-4 -4 -4 -10z"/>
<path d="M12187 303 c-4 -3 -7 -11 -7 -17 0 -6 5 -4 11 4 8 11 12 12 16 3 7
-18 23 -16 23 2 0 15 -31 21 -43 8z"/>
</g>
</svg>
