<?xml version="1.0" encoding="utf-8"?>
<!-- Generator: Adobe Illustrator 27.5.0, SVG Export Plug-In . SVG Version: 6.00 Build 0)  -->
<svg version="1.1" xmlns="http://www.w3.org/2000/svg" xmlns:xlink="http://www.w3.org/1999/xlink" x="0px" y="0px"
	 viewBox="0 0 500 500" style="enable-background:new 0 0 500 500;" xml:space="preserve">
<g id="BACKGROUND">
	<g>
		<rect x="0" y="0" style="fill:#E0F2F1;" width="500" height="500"/>
		
			<line style="fill:none;stroke:#462837;stroke-width:1.8;stroke-linecap:round;stroke-linejoin:round;stroke-miterlimit:10;" x1="108.268" y1="400.788" x2="391.732" y2="400.788"/>
	</g>
</g>
<g id="OBJECTS">
	<g>
		<ellipse style="opacity:0.25;fill:#C8C8C8;" cx="235.752" cy="440.473" rx="70.866" ry="14.173"/>
		<g>
			<g>
				<path style="fill:#FAFAFA;" d="M225.844,361.75c34.324,2.362,51.582,0.128,59.432-1.711v-36.935h-59.432L225.844,361.75z"/>
				<path style="fill:none;stroke:#462837;stroke-width:1.8;stroke-linecap:round;stroke-linejoin:round;stroke-miterlimit:10;" d="
					M225.844,361.75c34.324,2.362,51.582,0.128,59.432-1.711v-36.935h-59.432L225.844,361.75z"/>
			</g>
			<g>
				<path style="fill:#A0E1F0;" d="M230.33,420.75c0.263,8.178,0.939,15.667,1.558,21.295c15.015,2.841,26.575,0,26.575,0
					c0-3.973-2.145-8.504-2.145-8.504c0.439-3.573,1.193-7.927,2.157-12.791H230.33z"/>
				<path style="fill:#FAFAFA;" d="M252.89,440.783c-4.924,0.505-12.625,0.76-21.22-0.837l-0.004,0
					c0.074,0.716,0.149,1.432,0.222,2.098c15.015,2.841,26.575,0,26.575,0c0-2.169-0.639-4.5-1.22-6.174
					C257.082,435.941,254.33,437.174,252.89,440.783z"/>
				<path style="opacity:0.5;fill:#A0E1F0;" d="M231.235,435.454c4.438,0.268,16.415,0.932,26.188,0.952
					c-0.547-1.683-1.105-2.865-1.105-2.865c0.439-3.573,1.193-7.927,2.157-12.791H230.33
					C230.501,426.051,230.845,431.051,231.235,435.454z"/>
				<g>
					
						<path style="fill:none;stroke:#462837;stroke-width:1.8;stroke-linecap:round;stroke-linejoin:round;stroke-miterlimit:10;" d="
						M230.33,420.75c0.263,8.178,0.939,15.667,1.558,21.295c15.015,2.841,26.575,0,26.575,0c0-3.973-2.145-8.504-2.145-8.504
						c0.439-3.573,1.193-7.927,2.157-12.791H230.33z"/>
					
						<path style="fill:none;stroke:#462837;stroke-width:0.9;stroke-linecap:round;stroke-linejoin:round;stroke-miterlimit:10;" d="
						M257.243,435.871c-0.161,0.07-2.913,1.303-4.353,4.912c-4.924,0.505-12.625,0.76-21.22-0.837l-0.004,0"/>
				</g>
			</g>
			<g>
				<path style="fill:#A5F5D2;" d="M243.391,322.026l-2.249,18.306c-2.93,21.63-8.892,42.094-8.959,42.327
					c-3.396,12.485-4.303,29.112-2.726,49.506l0.009-0.01c0,0,16.102,1.063,28.405,1.063c1.683-13.125,7.305-35.946,12.744-58.027
					c5.439-22.075,10.575-42.927,11.104-51.573l0.098-1.592H243.391z"/>
				<path style="opacity:0.5;fill:#A5F5D2;" d="M281.817,322.026h-38.426l-2.249,18.306c-1.511,11.153-3.826,21.987-5.725,29.907
					c3.003,0.135,6.109,0.211,9.312,0.211c0.891-13.697,0.968-27.089,0.498-39.857c2.802,0.054,5.738,0.086,8.842,0.086
					c7.56,0,13.805-0.449,18.61-0.988c0.931,9.918,1.619,19.744,1.951,29.092c3.735-15.474,6.694-28.717,7.088-35.166
					L281.817,322.026z"/>
				<path style="fill:none;stroke:#462837;stroke-width:1.8;stroke-linecap:round;stroke-linejoin:round;stroke-miterlimit:10;" d="
					M243.391,322.026l-2.249,18.306c-2.93,21.63-8.892,42.094-8.959,42.327c-3.396,12.485-4.303,29.112-2.726,49.506l0.009-0.01
					c0,0,16.102,1.063,28.405,1.063c1.683-13.125,7.305-35.946,12.744-58.027c5.439-22.075,10.575-42.927,11.104-51.573l0.098-1.592
					H243.391z"/>
			</g>
			<g>
				<path style="fill:#A0E1F0;" d="M198.045,420.75c0.551,8.178,1.492,15.667,2.309,21.295c15.015,2.841,26.575,0,26.575,0
					c0-4.441-2.445-8.504-2.445-8.504s1.123-4.634,3.043-12.791H198.045z"/>
				<path style="fill:#FAFAFA;" d="M221.329,440.783c-4.924,0.505-12.661,0.76-21.256-0.837l-0.014,0.002
					c0.1,0.716,0.199,1.431,0.296,2.097c15.015,2.841,26.575,0,26.575,0c0-2.332-0.674-4.553-1.314-6.143
					C225.157,436.117,222.673,437.414,221.329,440.783z"/>
				<path style="opacity:0.5;fill:#A0E1F0;" d="M199.471,435.468c4.59,0.291,16.641,0.99,26.364,1.002
					c-0.651-1.761-1.35-2.93-1.35-2.93s1.123-4.634,3.043-12.791h-29.482C198.403,426.057,198.925,431.063,199.471,435.468z"/>
				<g>
					
						<path style="fill:none;stroke:#462837;stroke-width:1.8;stroke-linecap:round;stroke-linejoin:round;stroke-miterlimit:10;" d="
						M198.045,420.75c0.551,8.178,1.492,15.667,2.309,21.295c15.015,2.841,26.575,0,26.575,0c0-4.441-2.445-8.504-2.445-8.504
						s1.123-4.634,3.043-12.791H198.045z"/>
					
						<path style="fill:none;stroke:#462837;stroke-width:0.9;stroke-linecap:round;stroke-linejoin:round;stroke-miterlimit:10;" d="
						M225.616,435.902c-0.458,0.216-2.942,1.512-4.286,4.881c-4.924,0.505-12.661,0.76-21.256-0.837l-0.014,0.002"/>
				</g>
			</g>
			<g>
				<path style="fill:#51303D;" d="M301.864,135.597c1.502,29.062,5.814,71.054-3.683,86.727c0,0-3.412-6.539-5.443-21.26
					c0,0-0.134,12.609-3.183,21.26h-46.538h-46.537c-3.048-8.651-3.183-21.26-3.183-21.26c-2.031,14.721-5.443,21.26-5.443,21.26
					c-9.497-15.673-5.185-57.665-3.683-86.727H301.864z"/>
				<path style="opacity:0.5;fill:#51303D;" d="M301.864,135.597c1.502,29.062,5.814,71.054-3.683,86.727
					c0,0-3.412-6.539-5.443-21.26c0,0-0.134,12.609-3.183,21.26h-46.538h-46.537c-3.048-8.651-3.183-21.26-3.183-21.26
					c-2.031,14.721-5.443,21.26-5.443,21.26c-9.497-15.673-5.185-57.665-3.683-86.727H301.864z"/>
				<g>
					
						<path style="fill:none;stroke:#462837;stroke-width:1.8;stroke-linecap:round;stroke-linejoin:round;stroke-miterlimit:10;" d="
						M184.172,135.597c-1.503,29.062-5.814,71.054,3.683,86.727c0,0,3.412-6.539,5.443-21.26c0,0,0.134,12.609,3.183,21.26h46.538
						h46.537c3.048-8.651,3.183-21.26,3.183-21.26c2.032,14.721,5.443,21.26,5.443,21.26c9.497-15.673,5.185-57.665,3.683-86.727
						H184.172z"/>
					<g>
						
							<path style="fill:none;stroke:#462837;stroke-width:0.3;stroke-linecap:round;stroke-linejoin:round;stroke-miterlimit:10;" d="
							M208.052,135.597c0,0-11.696,43.794-5.226,86.644"/>
						
							<path style="fill:none;stroke:#462837;stroke-width:0.3;stroke-linecap:round;stroke-linejoin:round;stroke-miterlimit:10;" d="
							M202.363,168.297c0,36.728,8.094,54.027,8.094,54.027"/>
						
							<path style="fill:none;stroke:#462837;stroke-width:0.3;stroke-linecap:round;stroke-linejoin:round;stroke-miterlimit:10;" d="
							M277.984,135.597c0,0,11.696,43.794,5.226,86.644"/>
						
							<path style="fill:none;stroke:#462837;stroke-width:0.3;stroke-linecap:round;stroke-linejoin:round;stroke-miterlimit:10;" d="
							M283.673,168.297c0,36.728-8.094,54.027-8.094,54.027"/>
					</g>
				</g>
			</g>
			<g>
				<path style="fill:#C37D6E;" d="M280.222,323.525c0,0-15.55,12.012-31.252,17.008h-1.701h-1.701
					c-15.702-4.995-40.819-17.008-40.819-17.008c0-15.643,6.378-26.26,6.378-59.612l0-31.89c9.101-2.334,20.197-4.334,20.197-4.334
					v-11.693h23.385v11.693c0,0,5.022,1.409,12.756,3.271c0,0,4.735,15.133,8.505,32.953
					C275.97,263.913,282.124,292.429,280.222,323.525z"/>
				<path style="opacity:0.5;fill:#C37D6E;" d="M231.325,215.996v8.433c2.428,0.346,4.872,0.643,7.315,0.894
					c2.911,0.3,5.844,0.3,8.755,0c2.443-0.251,4.887-0.549,7.315-0.894v-8.433H231.325z"/>
				<path style="fill:none;stroke:#462837;stroke-width:1.8;stroke-linecap:round;stroke-linejoin:round;stroke-miterlimit:10;" d="
					M280.222,323.525c0,0-15.55,12.012-31.252,17.008h-1.701h-1.701c-15.702-4.995-40.819-17.008-40.819-17.008
					c0-15.643,6.378-26.26,6.378-59.612l0-31.89c9.101-2.334,20.197-4.334,20.197-4.334v-11.693h23.385v11.693
					c0,0,5.022,1.409,12.756,3.271c0,0,4.735,15.133,8.505,32.953C275.97,263.913,282.124,292.429,280.222,323.525z"/>
			</g>
			<g>
				<path style="fill:#A5F5D2;" d="M282.045,307.491c-3.207,0.528-13.109,1.928-27.976,1.928c-23.822,0-44.04-3.283-48.59-4.079
					c-1.108,5.82-2.053,10.984-2.199,16.685l-0.03,1.5c0,7.657,1.397,15.498,1.686,17.038c-3.283,21.841-6.385,42.145-6.381,42.144
					c-2.952,12.473-3.275,29.082-0.986,49.448c0.128,0.009,16.266,1.127,28.52,1.127c1.261-5.236,10.363-43.229,20.698-91.291
					l2.414,0.042c15.775-5.019,31.293-16.822,31.937-17.32l0.58-1.094C282.055,318.124,282.135,312.702,282.045,307.491z"/>
				<path style="opacity:0.5;fill:#A5F5D2;" d="M281.719,323.618c0.336-5.494,0.417-10.916,0.327-16.127
					c-3.207,0.528-13.109,1.928-27.976,1.928c-23.822,0-44.04-3.283-48.59-4.079c-1.108,5.82-2.053,10.984-2.199,16.685l-0.03,1.5
					c0,7.657,1.397,15.498,1.686,17.038c-1.373,9.137-2.714,17.999-3.81,25.224c9.302,2.052,22.991,4.284,39.447,4.615
					c1.576-7.091,3.223-14.583,4.912-22.379c0.032-5.91-0.048-11.74-0.258-17.431c2.802,0.054,5.738,0.086,8.842,0.086
					c7.56,0,13.805-0.449,18.61-0.988c0.025,0.266,0.047,0.53,0.071,0.795c4.876-3.098,8.102-5.552,8.388-5.774L281.719,323.618z"/>
				<g>
					
						<path style="fill:none;stroke:#462837;stroke-width:1.8;stroke-linecap:round;stroke-linejoin:round;stroke-miterlimit:10;" d="
						M249.202,342.033l-2.414-0.042c-10.335,48.062-19.437,86.055-20.698,91.291c-12.254,0-28.393-1.118-28.52-1.127
						c-2.289-20.366-1.966-36.975,0.986-49.448c-0.004,0.001,3.098-20.303,6.381-42.144c-0.288-1.539-1.686-9.381-1.686-17.038
						l0.03-1.5c0.146-5.701,1.091-10.865,2.199-16.685c4.551,0.796,24.769,4.079,48.59,4.079c14.867,0,24.769-1.4,27.976-1.928
						c0.09,5.211,0.01,10.632-0.327,16.127c0,1.513-0.557,4.826-0.557,4.826"/>
					<g>
						<path style="fill:#462837;" d="M260.586,338.124c-3.581,1.825-7.273,3.466-11.111,4.766c-0.471,0.16-0.982-0.093-1.141-0.564
							c-0.164-0.482,0.108-1.007,0.596-1.151c3.774-1.128,7.46-2.606,11.057-4.279C260.781,336.527,261.369,337.722,260.586,338.124
							L260.586,338.124z"/>
					</g>
					<g>
						
							<path style="fill:none;stroke:#462837;stroke-width:1.2;stroke-linecap:round;stroke-linejoin:round;stroke-miterlimit:10;" d="
							M201.822,432.155c-2.29-20.366-1.966-36.975,0.986-49.448c-0.004,0.001,3.098-20.303,6.381-42.144
							c-0.289-1.539-1.686-9.381-1.686-17.038l0.03-1.5c0.14-5.481,1.019-10.466,2.071-16.015"/>
						
							<path style="fill:none;stroke:#462837;stroke-width:1.2;stroke-linecap:round;stroke-linejoin:round;stroke-miterlimit:10;" d="
							M255.58,309.413c0,0-1.641,18.875-6.378,32.62"/>
						
							<path style="fill:none;stroke:#462837;stroke-width:1.2;stroke-linecap:round;stroke-linejoin:round;stroke-miterlimit:10;" d="
							M259.832,309.413c0,0-0.799,9.191-2.892,19.417c-0.401,1.962-1.476,3.741-3.052,4.977c-1.482,1.163-2.778,1.848-2.778,1.848"
							/>
					</g>
				</g>
			</g>
			<g>
				<path style="fill:#FAFAFA;" d="M293.205,292.166c-1.784,0-3.548-0.409-5.165-1.217c-0.949-0.473-1.935-1.006-2.854-1.54
					c-1.544-0.895-2.867-2.089-3.929-3.546l-12.81-17.574h-3.232l0.009-39.57h2.446c13.871,1.211,21.357,10.788,38.442,34.27
					l0.431,0.592v16.272c0,5.049-3.18,9.532-7.913,11.155l0,0c-0.643,0.22-1.258,0.422-1.83,0.601
					C295.617,291.98,294.406,292.166,293.205,292.166z"/>
				<path style="fill:none;stroke:#462837;stroke-width:1.8;stroke-linecap:round;stroke-linejoin:round;stroke-miterlimit:10;" d="
					M293.205,292.166c-1.784,0-3.548-0.409-5.165-1.217c-0.949-0.473-1.935-1.006-2.854-1.54c-1.544-0.895-2.867-2.089-3.929-3.546
					l-12.81-17.574h-3.232l0.009-39.57h2.446c13.871,1.211,21.357,10.788,38.442,34.27l0.431,0.592v16.272
					c0,5.049-3.18,9.532-7.913,11.155l0,0c-0.643,0.22-1.258,0.422-1.83,0.601C295.617,291.98,294.406,292.166,293.205,292.166z"/>
			</g>
			<g>
				<path style="fill:#C37D6E;" d="M299.792,184.919c2.362,4.324,17.117,3.213,20.267-13.13c2.579-13.381-11.337-19.781-18.16-9.388
					L299.792,184.919z"/>
				<g>
					<g>
						<path style="fill:#462837;" d="M314.455,176.082c-1.118,2.166-3.042,4.545-5.723,4.649c-0.386,0.004-0.849-0.084-1.158-0.156
							c-2.419-0.663-5.309-0.49-7.192,1.265c-0.291,0.357-0.849-0.067-0.564-0.438c1.907-2.398,5.295-2.691,8.05-1.99
							c2.526,0.716,4.597-1.816,5.973-3.693C314.076,175.354,314.663,175.7,314.455,176.082L314.455,176.082z"/>
					</g>
					<g>
						<path style="fill:#462837;" d="M307.468,178.416c0.172-2.563-0.659-4.884-2.337-6.83c-0.617-0.771-1.337-1.681-1.547-2.744
							c-0.247-1.921,1.232-3.479,2.392-4.641c2.007-1.999,5.573-2.434,7.775-0.492c2.185,1.752,3.268,4.699,2.646,7.392
							c-0.044,0.192-0.236,0.312-0.428,0.268c-0.188-0.043-0.306-0.228-0.271-0.414c0.585-3.464-2.141-7.638-5.833-7.356
							c-2.178,0.224-4.43,2.333-5.097,4.317c-0.328,0.994,0.477,1.965,1.229,3.016c0.773,1.041,1.535,2.22,1.913,3.541
							c0.38,1.321,0.397,2.691,0.267,4.011c-0.019,0.196-0.194,0.339-0.39,0.32C307.593,178.784,307.452,178.609,307.468,178.416
							L307.468,178.416z"/>
					</g>
					
						<path style="fill:none;stroke:#462837;stroke-width:1.8;stroke-linecap:round;stroke-linejoin:round;stroke-miterlimit:10;" d="
						M299.792,184.919c2.362,4.324,17.117,3.213,20.267-13.13c2.579-13.381-11.337-19.781-18.16-9.388L299.792,184.919z"/>
				</g>
			</g>
			<g>
				<path style="fill:#C37D6E;" d="M186.279,184.919c-2.362,4.324-17.117,3.213-20.267-13.13
					c-2.579-13.381,11.337-19.781,18.16-9.388L186.279,184.919z"/>
				<g>
					<g>
						<path style="fill:#462837;" d="M172.23,175.718c1.373,1.876,3.449,4.41,5.973,3.693c1.383-0.332,2.858-0.463,4.298-0.186
							c1.43,0.312,2.805,0.961,3.752,2.176c0.12,0.155,0.093,0.378-0.062,0.498c-0.159,0.124-0.376,0.086-0.502-0.06
							c-1.884-1.755-4.773-1.927-7.193-1.265c-1.466,0.447-3.18-0.148-4.29-1.129c-1.124-0.942-1.956-2.117-2.59-3.364
							c-0.09-0.176-0.019-0.391,0.157-0.481C171.935,175.519,172.13,175.572,172.23,175.718L172.23,175.718z"/>
					</g>
					<g>
						<path style="fill:#462837;" d="M177.891,178.482c-0.398-2.666,0.472-5.504,2.18-7.552c0.753-1.051,1.558-2.021,1.229-3.016
							c-0.238-1.023-1.167-1.993-2.008-2.821c-1.733-1.7-4.37-2.058-6.312-0.524c-1.88,1.419-3.002,3.972-2.609,6.384
							c0.037,0.197-0.096,0.387-0.294,0.419c-0.186,0.03-0.363-0.091-0.405-0.272c-0.99-4.003,2.208-9.012,6.634-8.654
							c2.8,0.205,6.44,3.406,6.18,6.395c-0.577,2.294-2.813,3.684-3.421,5.919c-0.411,1.156-0.508,2.414-0.462,3.674
							C178.626,178.88,177.928,178.932,177.891,178.482L177.891,178.482z"/>
					</g>
					
						<path style="fill:none;stroke:#462837;stroke-width:1.8;stroke-linecap:round;stroke-linejoin:round;stroke-miterlimit:10;" d="
						M186.279,184.919c-2.362,4.324-17.117,3.213-20.267-13.13c-2.579-13.381,11.337-19.781,18.16-9.388L186.279,184.919z"/>
				</g>
			</g>
			<g>
				<path style="fill:#C37D6E;" d="M247.395,221.071c-2.911,0.299-5.844,0.299-8.755,0c-18.568-1.91-37.299-6.312-47.142-16.699
					c-5.561-5.868-7.257-9.598-8.262-27.569c-0.351-6.277-3.997-21.298-3.997-32.401c0-10.924,1.701-20.771,5.951-29.989
					c8.749-18.982,32.798-30.061,57.829-30.061c25.031,0,49.079,11.079,57.829,30.061c4.249,9.219,5.951,19.065,5.951,29.989
					c0,11.103-3.646,26.125-3.997,32.401c-1.005,17.971-2.701,21.701-8.262,27.569C284.695,214.76,265.963,219.161,247.395,221.071z
					"/>
				<path style="opacity:0.5;fill:#C37D6E;" d="M300.847,114.413c-8.749-18.981-32.797-30.061-57.829-30.061
					c-25.032,0-49.08,11.079-57.829,30.061c-4.249,9.219-5.951,19.065-5.951,29.99c0,11.103,3.646,26.125,3.997,32.401
					c1.005,17.971,2.701,21.701,8.262,27.57c0.751,0.793,1.571,1.539,2.422,2.264c-2.367-19.023-0.59-40.829-1.271-64.112
					c9.751-5.116,17.159-13.314,25.059-20.826c17.273-16.424,31.902-21.562,42.52-11.693c10.534-5.763,17.086,5.389,25.298,20.239
					c2.3,4.159,5.061,7.314,7.948,9.72c-0.755,21.366,1.172,45.995-1.405,66.712c0.868-0.737,1.705-1.495,2.47-2.303
					c5.561-5.868,7.257-9.598,8.262-27.57c0.351-6.277,3.997-21.298,3.997-32.401C306.797,133.478,305.096,123.632,300.847,114.413z
					"/>
				<path style="fill:none;stroke:#462837;stroke-width:1.8;stroke-linecap:round;stroke-linejoin:round;stroke-miterlimit:10;" d="
					M247.395,221.071c-2.911,0.299-5.844,0.299-8.755,0c-18.568-1.91-37.299-6.312-47.142-16.699
					c-5.561-5.868-7.257-9.598-8.262-27.569c-0.351-6.277-3.997-21.298-3.997-32.401c0-10.924,1.701-20.771,5.951-29.989
					c8.749-18.982,32.798-30.061,57.829-30.061c25.031,0,49.079,11.079,57.829,30.061c4.249,9.219,5.951,19.065,5.951,29.989
					c0,11.103-3.646,26.125-3.997,32.401c-1.005,17.971-2.701,21.701-8.262,27.569C284.695,214.76,265.963,219.161,247.395,221.071z
					"/>
			</g>
			<g>
				<path style="fill:#A5F5D2;" d="M256.21,226.545h-1.5l0,1.144l1.182,0.324c-1.33,5.224-4.784,11.288-4.784,11.288
					c-10.216-7.278-21.282-12.859-21.282-12.859c-3.158,0.592-11.792,2.262-19.069,4.128l-1.128,0.288v33.054
					c-1.576,25.489-8.504,41.428-8.504,58.113c0,0,15.14,4.401,52.945,4.401c18.932,0,29.775-2.809,29.775-2.809
					c1.894-30.946-5.343-60.016-5.343-60.016c-3.743-17.684-9.556-32.937-9.604-33.089l-1.08-1.011
					C262.27,228.167,258.089,227.055,256.21,226.545z"/>
				<path style="opacity:0.5;fill:#A5F5D2;" d="M210.756,230.57l-1.128,0.288v33.054c-1.576,25.489-8.504,41.428-8.504,58.113
					c0,0,12.722,3.692,43.925,4.311c-2.467-52.763-14.043-93.937-15.76-99.794C225.779,227.207,217.661,228.799,210.756,230.57z"/>
				<path style="opacity:0.5;fill:#A5F5D2;" d="M278.502,263.602c-3.743-17.684-9.556-32.937-9.605-33.089l-1.08-1.011
					c-4.781-1.15-8.537-2.133-10.69-2.709c1.343,6.621,10.554,52.888,15.143,98.693c7.494-0.816,11.574-1.868,11.574-1.868
					C285.739,292.672,278.502,263.602,278.502,263.602z"/>
				<g>
					
						<path style="fill:none;stroke:#462837;stroke-width:1.8;stroke-linecap:round;stroke-linejoin:round;stroke-miterlimit:10;" d="
						M256.21,226.545h-1.5l0,1.144l1.182,0.324c-1.33,5.224-4.784,11.288-4.784,11.288c-10.216-7.278-21.282-12.859-21.282-12.859
						c-3.158,0.592-11.792,2.262-19.069,4.128l-1.128,0.288v33.054c-1.576,25.489-8.504,41.428-8.504,58.113
						c0,0,15.14,4.401,52.945,4.401c18.932,0,29.775-2.809,29.775-2.809c1.894-30.946-5.343-60.016-5.343-60.016
						c-3.743-17.684-9.556-32.937-9.604-33.089l-1.08-1.011C262.27,228.167,258.089,227.055,256.21,226.545z"/>
					
						<path style="fill:none;stroke:#462837;stroke-width:0.9;stroke-linecap:round;stroke-linejoin:round;stroke-miterlimit:10;" d="
						M259.525,228.939c-2.819,9.181-4.726,11.132-7.214,15.825c-7.418-5.854-24.855-15.573-24.174-14.974"/>
				</g>
			</g>
			<g>
				<g>
					<path style="fill:#C37D6E;" d="M309.18,240.49c0.501-2.014,0.832-7.218,0.98-11.342l-16.253-6.016l-5.009,13.667
						c0,0-1.408,8.441-4.496,20.773L307.647,261C308.188,255.234,308.721,248.425,309.18,240.49z"/>
				</g>
				<path style="opacity:0.5;fill:#C37D6E;" d="M288.754,237.622c-0.428,2.395-1.828,9.87-4.352,19.95L307.647,261
					c0.533-5.674,1.058-12.365,1.511-20.141C300.643,240.567,292.407,238.606,288.754,237.622z"/>
				<g>
					
						<path style="fill:none;stroke:#462837;stroke-width:1.8;stroke-linecap:round;stroke-linejoin:round;stroke-miterlimit:10;" d="
						M309.18,240.49c0.501-2.014,0.832-7.218,0.98-11.342l-16.253-6.016l-5.009,13.667c0,0-1.408,8.441-4.496,20.773L307.647,261
						C308.188,255.234,308.721,248.425,309.18,240.49z"/>
				</g>
			</g>
			<g>
				<g>
					<path style="fill:#FAFAFA;" d="M187.855,357.964c1.907-34.438,14.971-68.454,18.897-94.051l2.126-33.636l1.692-0.434
						c6.87-1.761,14.94-3.347,18.505-4.022c0,0,18.543,63.282,13.528,140.377C208.964,366.197,187.855,357.964,187.855,357.964z"/>
					
						<path style="fill:none;stroke:#462837;stroke-width:1.8;stroke-linecap:round;stroke-linejoin:round;stroke-miterlimit:10;" d="
						M187.855,357.964c1.907-34.438,14.971-68.454,18.897-94.051l2.126-33.636l1.692-0.434c6.87-1.761,14.94-3.347,18.505-4.022
						c0,0,18.543,63.282,13.528,140.377C208.964,366.197,187.855,357.964,187.855,357.964z"/>
					
						<path style="fill:none;stroke:#462837;stroke-width:1.2;stroke-linecap:round;stroke-linejoin:round;stroke-miterlimit:10;" d="
						M207.427,318.53c-2.364,10.154-4.456,20.684-5.607,31.197c-0.113,1.035,0.544,2,1.547,2.28
						c6.452,1.806,14.43,4.087,28.536,4.892c1.194,0.068,2.223-0.856,2.268-2.051c0.413-11.048,0.35-21.757-0.043-31.966
						C221.345,322.159,213.572,320.23,207.427,318.53z"/>
				</g>
				<g>
					<path style="fill:#FAFAFA;" d="M276.983,366.197c0-58.004-20.023-140.226-20.023-140.226c2.073,0.558,5.985,1.586,11.032,2.802
						l5.13,2.126v8.156c2.276,6.156,5.178,14.951,7.177,24.391c0,0,10.673,42.611,10.673,94.744
						C284.821,363.666,276.983,366.197,276.983,366.197z"/>
					
						<path style="fill:none;stroke:#462837;stroke-width:1.8;stroke-linecap:round;stroke-linejoin:round;stroke-miterlimit:10;" d="
						M280.298,263.447c0,0,10.673,42.611,10.673,94.744c-6.15,5.475-13.989,8.006-13.989,8.006
						c0-58.004-20.023-140.226-20.023-140.226c2.073,0.558,5.985,1.586,11.032,2.802c0,0,2.365,0.125,5.13,0.935"/>
					<g>
						<path style="fill:#462837;" d="M273.758,238.805c3.01,7.965,5.567,16.115,7.421,24.455c0.108,0.485-0.198,0.966-0.683,1.074
							c-0.485,0.108-0.966-0.198-1.074-0.683c-1.69-8.269-4.089-16.406-6.946-24.372
							C272.179,238.453,273.437,237.97,273.758,238.805L273.758,238.805z"/>
					</g>
					
						<path style="fill:none;stroke:#462837;stroke-width:1.2;stroke-linecap:round;stroke-linejoin:round;stroke-miterlimit:10;" d="
						M290.871,349.334c-2.175,1.847-4.513,3.415-7.039,4.521c-1.378,0.604-2.935-0.313-3.017-1.815
						c-0.671-12.214-2.464-31.284-2.464-31.284c4.083-1.822,7.453-4.01,10.28-6.365"/>
				</g>
				<g>
					<path style="fill:#FAFAFA;" d="M220.984,240.198c2.915,3.346,8.812,10.796,16.234,23.785
						c-3.004-18.274-6.233-31.11-7.542-35.988l1.648-0.306V224.5c-2.104,0.398-6.561,1.574-11.272,2.833
						c0,0-0.346,4.69-1.063,10.706h7.166C226.155,238.039,223.928,238.855,220.984,240.198z"/>
					
						<path style="fill:none;stroke:#462837;stroke-width:1.8;stroke-linecap:round;stroke-linejoin:round;stroke-miterlimit:10;" d="
						M220.984,240.198c2.915,3.346,8.812,10.796,16.234,23.785c-3.004-18.274-6.233-31.11-7.542-35.988l1.648-0.306V224.5
						c-2.104,0.398-6.561,1.574-11.272,2.833c0,0-0.346,4.69-1.063,10.706h7.166C226.155,238.039,223.928,238.855,220.984,240.198z"
						/>
				</g>
				<g>
					<path style="fill:#FAFAFA;" d="M267.825,240.198c-2.254-1.241-4.855-2.159-4.855-2.159h5.315
						c-3.3-6.076-4.382-10.588-4.382-10.588c-4.947-1.367-9.194-2.887-9.194-2.887l0,3.125l2.841,0.769
						c1.28,5.605,4.297,18.8,7.499,35.525C265.942,251.159,267.168,243.594,267.825,240.198z"/>
					
						<path style="fill:none;stroke:#462837;stroke-width:1.8;stroke-linecap:round;stroke-linejoin:round;stroke-miterlimit:10;" d="
						M267.825,240.198c-2.254-1.241-4.855-2.159-4.855-2.159h5.315c-3.3-6.076-4.382-10.588-4.382-10.588
						c-4.947-1.367-9.194-2.887-9.194-2.887l0,3.125l2.841,0.769c1.28,5.605,4.297,18.8,7.499,35.525
						C265.942,251.159,267.168,243.594,267.825,240.198z"/>
				</g>
			</g>
			<g>
				<path style="fill:#FAFAFA;" d="M311.217,244.088c-1.146,18.063-2.673,30.315-3.767,37.23c-0.669,4.242-3.555,7.78-7.529,9.233
					l-1.043,0.381l-17.509-30.576c3.182-10.661,4.828-17.542,5.41-20.107l1.469,0.089l-0.059,0.305
					c3.351,0.9,12.159,3.058,20.777,3.399l0.034-0.549L311.217,244.088z"/>
				<g>
					
						<path style="fill:none;stroke:#462837;stroke-width:1.8;stroke-linecap:round;stroke-linejoin:round;stroke-miterlimit:10;" d="
						M298.878,290.931l1.043-0.381c3.974-1.453,6.86-4.991,7.529-9.233c1.093-6.915,2.62-19.167,3.767-37.23L309,243.493
						l-0.034,0.549c-8.617-0.341-17.426-2.498-20.777-3.399l0.059-0.305l-1.469-0.089c-0.582,2.565-2.228,9.445-5.41,20.107
						c0,0-0.337,1.907-0.605,5.054"/>
					
						<path style="fill:none;stroke:#462837;stroke-width:1.8;stroke-linecap:round;stroke-linejoin:round;stroke-miterlimit:10;" d="
						M308.965,244.042c0.972,0.053,2.252,0.046,2.252,0.046"/>
				</g>
			</g>
			<g>
				<path style="fill:#FAFAFA;" d="M221.433,270.377l0.425-2.955c0-26.84-9.108-36.96-9.108-36.96l-2.292-0.587
					c-14.164,4.419-16.986,15.212-19.954,32.46c-0.867,5.04-1.605,9.948-2.194,14.587c-1.105,8.73,4.51,16.825,13.062,18.828
					L221.433,270.377z"/>
				<g>
					<g>
						<path style="fill:#462837;" d="M221.498,262.827c-0.788-10.455-2.41-21.242-7.7-30.456c-0.181-0.28,0.263-0.58,0.451-0.288
							c5.791,9.089,7.49,20.133,7.784,30.722C222.046,263.14,221.512,263.175,221.498,262.827L221.498,262.827z"/>
					</g>
					
						<line style="fill:none;stroke:#462837;stroke-width:1.8;stroke-linecap:round;stroke-linejoin:round;stroke-miterlimit:10;" x1="221.433" y1="270.377" x2="221.858" y2="267.422"/>
					
						<path style="fill:none;stroke:#462837;stroke-width:1.8;stroke-linecap:round;stroke-linejoin:round;stroke-miterlimit:10;" d="
						M210.457,229.875c-14.164,4.419-16.986,15.212-19.954,32.46c-0.867,5.04-1.605,9.948-2.194,14.587
						c-1.105,8.73,4.51,16.825,13.062,18.828"/>
				</g>
			</g>
			<g>
				<polygon style="fill:#9FAAFC;" points="269.371,299.892 231.103,299.892 217.431,248.868 255.699,248.868 				"/>
				
					<polygon style="fill:none;stroke:#462837;stroke-width:1.8;stroke-linecap:round;stroke-linejoin:round;stroke-miterlimit:10;" points="
					269.371,299.892 231.103,299.892 217.431,248.868 255.699,248.868 				"/>
				<path style="fill:#C8C8C8;" d="M244.751,252.057h-16.933c-0.481,0-0.902-0.323-1.027-0.788l-1.139-4.252
					c-0.181-0.675,0.328-1.338,1.027-1.338h16.933c0.481,0,0.902,0.323,1.027,0.788l1.139,4.252
					C245.959,251.394,245.45,252.057,244.751,252.057z"/>
				<path style="fill:none;stroke:#462837;stroke-width:1.8;stroke-linecap:round;stroke-linejoin:round;stroke-miterlimit:10;" d="
					M244.751,252.057h-16.933c-0.481,0-0.902-0.323-1.027-0.788l-1.139-4.252c-0.181-0.675,0.328-1.338,1.027-1.338h16.933
					c0.481,0,0.902,0.323,1.027,0.788l1.139,4.252C245.959,251.394,245.45,252.057,244.751,252.057z"/>
			</g>
			<g>
				<path style="fill:#C37D6E;" d="M259.827,289.13c0.335-0.201,0.558-0.419,0.595-0.66c0.212-1.401-2.212-2.533-8-3.589
					c-2.002-0.365-3.297-1.723-2.805-2.915c4.084,0.094,7.148-0.048,7.621-1.813c0.364-1.358-2.681-3.238-7.841-4.3
					c-4.538-0.934-8.271,0.04-10.222,2.072c0,0-11.313-2.991-20.352-6.045l-16.939,21.679c7.883,1.847,19.538,3.63,35.165,3.63
					c0,0,4.857,0.525,10.415,0.525c6.387,0,9.835-0.451,9.849-1.901c0.004-0.395-0.193-0.747-0.535-1.069
					c1.482-0.122,2.486-0.422,2.644-1.01c0.163-0.606-0.103-1.147-0.717-1.653c1.29-0.215,2.127-0.606,2.29-1.214
					C261.169,290.215,260.73,289.654,259.827,289.13z"/>
				<path style="opacity:0.5;fill:#C37D6E;" d="M239.175,277.926c0,0-11.313-2.991-20.352-6.045l-16.939,21.679
					c7.883,1.847,19.538,3.63,35.165,3.63c0,0,1.039,0.112,2.694,0.232C238.219,288.237,239.175,277.926,239.175,277.926z"/>
				<g>
					<path style="fill:none;stroke:#462837;stroke-width:1.8;stroke-linejoin:round;stroke-miterlimit:10;" d="M260.995,290.867
						c0.173-0.648-0.255-1.205-1.146-1.726"/>
					<g>
						<path style="fill:#462837;" d="M249.799,291.201c2.845,0.256,5.756,0.484,8.565,0.073c0.498-0.052,1.599-0.368,1.762-0.641
							c0.323-1.136,2.027-0.682,1.739,0.466c-1.232,3.2-9.444,1.695-12.227,1.459C248.767,292.437,248.921,291.118,249.799,291.201
							L249.799,291.201z"/>
					</g>
					<path style="fill:none;stroke:#462837;stroke-width:1.8;stroke-linejoin:round;stroke-miterlimit:10;" d="M259.422,293.733
						c0.158-0.589-0.083-1.116-0.659-1.609"/>
					<g>
						<path style="fill:#462837;" d="M248.757,293.823c3.157,0.103,7.034,0.567,9.795-0.322c0.129-0.48,0.622-0.765,1.102-0.637
							c0.48,0.129,0.765,0.622,0.636,1.102c-0.972,2.827-9.145,1.281-11.64,1.22C247.78,295.099,247.879,293.775,248.757,293.823
							L248.757,293.823z"/>
					</g>
					<g>
						<path style="fill:#462837;" d="M261.311,288.606c-0.807,2.977-8.453,2.219-10.933,2.178c-0.875-0.058-0.819-1.382,0.061-1.366
							c3-0.06,6.344,0.234,9.064-1.116c0.11-0.071,0.032-0.093,0.029,0.034C259.727,287.17,261.47,287.433,261.311,288.606
							L261.311,288.606z"/>
					</g>
					
						<path style="fill:none;stroke:#462837;stroke-width:1.8;stroke-linecap:round;stroke-linejoin:round;stroke-miterlimit:10;" d="
						M257.313,295.813c-0.015,1.45-3.462,1.901-9.849,1.901c-5.558,0-10.415-0.525-10.415-0.525c-15.627,0-27.282-1.782-35.165-3.63
						l16.939-21.679c9.039,3.054,20.352,6.045,20.352,6.045c1.951-2.032,5.684-3.006,10.222-2.072c5.16,1.062,8.205,2.942,7.841,4.3
						c-0.473,1.766-3.537,1.908-7.621,1.813c-0.491,1.192,0.803,2.55,2.805,2.915c5.788,1.056,8.212,2.187,8,3.589"/>
					<path style="fill:none;stroke:#462837;stroke-width:1.8;stroke-miterlimit:10;" d="M256.802,294.751
						c0.335,0.319,0.514,0.671,0.51,1.062"/>
				</g>
			</g>
			<g>
				<path style="fill:#FAFAFA;" d="M188.309,276.922c-1.105,8.73,4.51,16.825,13.062,18.828c10.417,2.442,22.38,3.683,35.561,3.69
					l0.319-2.23l-0.202-0.021l-0.36,0c-0.973-10.243,0.254-16.596,1.143-19.624l0.782,0.211l-0.014-2.334
					c-2.829-0.766-10.39-2.855-17.167-5.065l0.425-2.955L188.309,276.922z"/>
				<g>
					
						<path style="fill:none;stroke:#462837;stroke-width:1.8;stroke-linecap:round;stroke-linejoin:round;stroke-miterlimit:10;" d="
						M221.433,270.377c6.776,2.21,14.338,4.299,17.167,5.065l0.014,2.334l-0.782-0.211c-0.89,3.027-2.116,9.381-1.143,19.624l0.36,0
						l0.202,0.021l-0.319,2.23c-13.181-0.007-25.144-1.248-35.561-3.69c-8.552-2.002-14.167-10.097-13.062-18.828l0.28-2.139"/>
					<g>
						<path style="fill:#462837;" d="M222.534,267.52l-0.21,2.985c-0.035,0.497-0.466,0.872-0.964,0.837
							c-0.544-0.034-0.938-0.562-0.818-1.093l0.639-2.924C221.357,266.507,222.599,266.691,222.534,267.52L222.534,267.52z"/>
					</g>
					
						<path style="fill:none;stroke:#462837;stroke-width:1.8;stroke-linecap:round;stroke-linejoin:round;stroke-miterlimit:10;" d="
						M238.6,275.442c0,0-0.562,1.381-0.768,2.123"/>
					
						<path style="fill:none;stroke:#462837;stroke-width:1.8;stroke-linecap:round;stroke-linejoin:round;stroke-miterlimit:10;" d="
						M236.689,297.189c0,0,0.111,1.232,0.243,2.251"/>
					<g>
						<path style="fill:#462837;" d="M221.454,271.277c-5.925,0.339-11.793,2.493-16.757,5.736c-0.74,0.471-1.483-0.648-0.748-1.144
							c3.856-2.661,8.199-4.61,12.768-5.666c1.537-0.353,3.047-0.624,4.695-0.726c0.496-0.031,0.923,0.347,0.954,0.843
							C222.4,270.842,221.976,271.282,221.454,271.277L221.454,271.277z"/>
					</g>
				</g>
			</g>
			<g>
				<path style="fill:#51303D;" d="M272.636,110.006c-5.275-0.792-12.451,0.375-12.451,0.375
					c-14.889-4.853-31.883-0.375-31.883-0.375v-9.763h44.334V110.006z"/>
				<path style="opacity:0.5;fill:#51303D;" d="M272.636,110.006c-5.275-0.792-12.451,0.375-12.451,0.375
					c-14.889-4.853-31.883-0.375-31.883-0.375v-9.763h44.334V110.006z"/>
				<path style="fill:#51303D;" d="M192.375,135.597h-8.203l-12.434,8.805c0,24.375-9.78,44.725-9.78,56.662
					c0,15.906,9.78,21.26,9.78,21.26s-0.894-10.871,0-21.26c0,0,0.399,13.911,5.315,21.26h3.189c0,0-0.436-8.877,0-13.025
					l-0.002-0.018c2.589,5.627,6.448,9.501,12.135,12.197C186.622,197.631,192.375,167.867,192.375,135.597z"/>
				<path style="fill:#51303D;" d="M314.298,144.402l-12.434-8.805h-8.202c-0.087,27.574,5.746,61.738,0,85.881
					c5.687-2.696,9.545-6.57,12.134-12.197l-0.002,0.019c0.436,4.148,0,13.025,0,13.025h3.189c4.916-7.349,5.315-21.26,5.315-21.26
					c0.894,10.389,0,21.26,0,21.26s9.78-5.354,9.78-21.26C324.077,189.127,314.298,168.777,314.298,144.402z"/>
				<path style="fill:#51303D;" d="M314.297,144.402c0,0-18.749,0.779-28.772-17.347c-8.212-14.85-14.763-22.813-25.298-17.049
					c-10.618-9.869-25.246-7.92-42.52,8.504c-12.682,12.059-24.089,25.892-45.969,25.892c0-12.601,2.172-23.438,6.639-33.127
					c9.639-20.911,30.945-35.108,64.641-37.127c21.025-1.26,28.675,7.278,28.675,7.278c17.11,0,29.652,16.152,35.966,29.849
					C312.125,120.964,314.297,131.801,314.297,144.402z"/>
				<g style="opacity:0.25;">
					<path style="fill:#FAFAFA;" d="M218.209,118.054c-4.745-0.981-9.436-2.211-14.037-3.698
						c-7.554-2.608-15.187-5.669-22.157-9.729c-1.347,2.134-2.576,4.342-3.638,6.647c-1.699,3.686-3.062,7.541-4.103,11.592
						c2.128,0.31,4.242,0.615,6.31,0.921c9.371,1.361,18.74,2.525,28.115,3.428c3.035-2.863,5.987-5.834,9.008-8.706
						C217.876,118.349,218.041,118.212,218.209,118.054z"/>
					<path style="fill:#FAFAFA;" d="M307.658,111.274c-0.984-2.135-2.119-4.329-3.4-6.513c-7.886,4.992-16.59,8.7-25.544,11.373
						c2.223,2.97,4.448,6.648,6.811,10.921c0.006,0.011,0.013,0.021,0.019,0.032c8.747-1.025,17.428-2.37,26.281-3.944
						C310.775,118.991,309.395,115.043,307.658,111.274z"/>
				</g>
				<g>
					
						<path style="fill:none;stroke:#462837;stroke-width:1.8;stroke-linecap:round;stroke-linejoin:round;stroke-miterlimit:10;" d="
						M314.298,144.402c0,24.375,9.78,44.726,9.78,56.663c0,15.906-9.78,21.26-9.78,21.26s0.894-10.871,0-21.26
						c0,0-0.399,13.911-5.315,21.26h-3.189c0,0,0.436-8.877,0-13.025"/>
					
						<path style="fill:none;stroke:#462837;stroke-width:1.8;stroke-linecap:round;stroke-linejoin:round;stroke-miterlimit:10;" d="
						M192.375,221.478c-5.521-22.887-0.444-51.225-0.027-81.998"/>
					<g>
						<path style="fill:#462837;" d="M176.012,169.938c0.094,9.519,0.21,19.141,1.862,28.519c1.611,9.505,5.722,18.11,14.886,22.208
							c1.064,0.501,0.321,2.138-0.771,1.627c-14.705-6.63-16.43-23.738-17.096-37.947c-0.237-4.806-0.235-9.607-0.249-14.406
							C174.648,169.064,176.007,169.024,176.012,169.938L176.012,169.938z"/>
					</g>
					
						<path style="fill:none;stroke:#462837;stroke-width:1.8;stroke-linecap:round;stroke-linejoin:round;stroke-miterlimit:10;" d="
						M171.738,144.402c0,24.375-9.779,44.726-9.779,56.663c0,15.906,9.779,21.26,9.779,21.26s-0.894-10.871,0-21.26
						c0,0,0.399,13.911,5.315,21.26h3.189c0,0-0.436-8.877,0-13.025"/>
					
						<path style="fill:none;stroke:#462837;stroke-width:1.8;stroke-linecap:round;stroke-linejoin:round;stroke-miterlimit:10;" d="
						M293.662,221.478c5.654-23.753,0.099-57.204,0-84.538"/>
					<g>
						<path style="fill:#462837;" d="M311.391,169.938c-0.024,9.62-0.066,19.267-1.671,28.8
							c-1.618,10.029-5.992,19.119-15.673,23.553c-1.065,0.502-1.853-1.111-0.771-1.626c14.021-6.136,15.638-22.898,16.393-36.393
							c0.271-4.765,0.305-9.551,0.355-14.334C310.026,169.064,311.379,169.016,311.391,169.938L311.391,169.938z"/>
					</g>
					
						<path style="fill:none;stroke:#462837;stroke-width:1.8;stroke-linecap:round;stroke-linejoin:round;stroke-miterlimit:10;" d="
						M314.297,144.402c0,0-18.749,0.779-28.772-17.347c-8.212-14.85-14.763-22.813-25.298-17.049
						c-10.618-9.869-25.246-7.92-42.52,8.504c-12.682,12.059-24.089,25.892-45.969,25.892c0-12.601,2.172-23.438,6.639-33.127
						c9.639-20.911,30.945-35.108,64.641-37.127c21.025-1.26,28.675,7.278,28.675,7.278c17.11,0,29.652,16.152,35.966,29.849
						C312.125,120.964,314.297,131.801,314.297,144.402z"/>
					<g>
						
							<path style="fill:none;stroke:#462837;stroke-width:0.3;stroke-linecap:round;stroke-linejoin:round;stroke-miterlimit:10;" d="
							M302.221,141.981c0,37.411,7.752,57.726-1.527,74.694"/>
						
							<path style="fill:none;stroke:#462837;stroke-width:0.3;stroke-linecap:round;stroke-linejoin:round;stroke-miterlimit:10;" d="
							M298.712,140.336c0,30.377,6.542,46.15,6.542,54.86"/>
						
							<path style="fill:none;stroke:#462837;stroke-width:0.3;stroke-linecap:round;stroke-linejoin:round;stroke-miterlimit:10;" d="
							M314.935,175.9c1.863,9.825,11.195,28.876,3.151,43.129"/>
						
							<path style="fill:none;stroke:#462837;stroke-width:0.3;stroke-linecap:round;stroke-linejoin:round;stroke-miterlimit:10;" d="
							M310.339,185.791c0,13.511,2.241,27.615-1.356,36.533"/>
						
							<path style="fill:none;stroke:#462837;stroke-width:0.3;stroke-linecap:round;stroke-linejoin:round;stroke-miterlimit:10;" d="
							M183.813,142.837c-0.116,36.865-7.68,57,1.528,73.838"/>
						
							<path style="fill:none;stroke:#462837;stroke-width:0.3;stroke-linecap:round;stroke-linejoin:round;stroke-miterlimit:10;" d="
							M187.319,141.712c-0.193,29.479-6.538,44.906-6.538,53.484"/>
						
							<path style="fill:none;stroke:#462837;stroke-width:0.3;stroke-linecap:round;stroke-linejoin:round;stroke-miterlimit:10;" d="
							M171.101,175.9c-1.863,9.825-11.195,28.876-3.151,43.129"/>
						
							<path style="fill:none;stroke:#462837;stroke-width:0.3;stroke-linecap:round;stroke-linejoin:round;stroke-miterlimit:10;" d="
							M175.697,185.791c0,13.511-2.241,27.615,1.356,36.533"/>
						
							<path style="fill:none;stroke:#462837;stroke-width:0.3;stroke-linecap:round;stroke-linejoin:round;stroke-miterlimit:10;" d="
							M240.376,104.623c-28.343,5.218-47.25,24.018-67.347,24.018"/>
						
							<path style="fill:none;stroke:#462837;stroke-width:0.3;stroke-linecap:round;stroke-linejoin:round;stroke-miterlimit:10;" d="
							M172.391,132.99c7.292,3.976,29.971-13.783,29.971-13.783"/>
						
							<path style="fill:none;stroke:#462837;stroke-width:0.3;stroke-linecap:round;stroke-linejoin:round;stroke-miterlimit:10;" d="
							M260.185,91.426c-17.167-14.309-47.779,2.969-67.313,8.816"/>
						
							<path style="fill:none;stroke:#462837;stroke-width:0.3;stroke-linecap:round;stroke-linejoin:round;stroke-miterlimit:10;" d="
							M263.047,83.754c-10.452-7.714-23.06,0.598-37.203,4.955"/>
						
							<path style="fill:none;stroke:#462837;stroke-width:0.3;stroke-linecap:round;stroke-linejoin:round;stroke-miterlimit:10;" d="
							M272.078,94.395c19.836,0,25.535,42.761,42.22,50.007"/>
						
							<path style="fill:none;stroke:#462837;stroke-width:0.3;stroke-linecap:round;stroke-linejoin:round;stroke-miterlimit:10;" d="
							M277.107,88.708c13.687,0,14.522,23.222,21.605,36.447"/>
						
							<path style="fill:none;stroke:#462837;stroke-width:0.3;stroke-linecap:round;stroke-linejoin:round;stroke-miterlimit:10;" d="
							M171.738,144.402c0,20.96-20.175,50.421-12.875,65.518"/>
						
							<path style="fill:none;stroke:#462837;stroke-width:0.3;stroke-linecap:round;stroke-linejoin:round;stroke-miterlimit:10;" d="
							M191.525,159.963c0,20.26-3.298,44.388,6.324,56.712"/>
						
							<path style="fill:none;stroke:#462837;stroke-width:0.3;stroke-linecap:round;stroke-linejoin:round;stroke-miterlimit:10;" d="
							M275.579,112.441c4.679,6.958,14.178,40.403,38.719,31.961"/>
						
							<path style="fill:none;stroke:#462837;stroke-width:0.3;stroke-linecap:round;stroke-linejoin:round;stroke-miterlimit:10;" d="
							M314.298,144.402c3.823,31.499,20.749,58.218,11.259,74.628"/>
						
							<path style="fill:none;stroke:#462837;stroke-width:0.3;stroke-linecap:round;stroke-linejoin:round;stroke-miterlimit:10;" d="
							M225.845,76.429c-23.482,1.933-52.815,15.205-52.815,52.211"/>
					</g>
					<g>
						<path style="fill:#462837;" d="M270.151,84.532c-3.333,6.424-5.984,13.125-8.233,20.002c-0.062,0.187-0.265,0.289-0.452,0.227
							c-0.174-0.058-0.273-0.24-0.236-0.416c0.779-3.567,1.931-7.046,3.289-10.438C264.693,93.305,270.073,81.41,270.151,84.532
							L270.151,84.532z"/>
					</g>
					
						<path style="fill:none;stroke:#462837;stroke-width:1.2;stroke-linecap:round;stroke-linejoin:round;stroke-miterlimit:10;" d="
						M228.302,110.006c0,0,16.994-4.478,31.883,0.375c0,0,7.175-1.167,12.451-0.375"/>
				</g>
			</g>
			<g>
				<g>
					<path style="fill:#C8C8C8;" d="M319.394,284.839c-0.921,0-1.836-0.239-2.654-0.71c-1.362-0.787-2.303-2.127-2.578-3.677
						l-5.508-30.996c-0.649-3.656,1.414-7.235,4.904-8.506l3.382-1.23c3.488-1.266,7.37,0.144,9.223,3.363l15.706,27.286
						c0.785,1.365,0.926,2.996,0.387,4.474c-0.539,1.478-1.696,2.635-3.176,3.174l-2.168,0.789c-0.62,0.226-1.311-0.094-1.538-0.718
						c-0.227-0.623,0.095-1.311,0.718-1.538l2.168-0.79c0.811-0.294,1.446-0.93,1.742-1.74c0.296-0.811,0.218-1.705-0.212-2.454
						l-15.706-27.286c-1.269-2.206-3.93-3.179-6.322-2.306l-3.382,1.23c-2.392,0.872-3.806,3.324-3.36,5.832l5.508,30.996
						c0.151,0.85,0.665,1.585,1.414,2.016c0.749,0.432,1.642,0.511,2.454,0.214l2.168-0.79c0.622-0.22,1.313,0.094,1.538,0.718
						c0.227,0.622-0.095,1.311-0.718,1.538l-2.168,0.79C320.623,284.734,320.006,284.839,319.394,284.839z"/>
					
						<path style="fill:none;stroke:#462837;stroke-width:1.2;stroke-linecap:round;stroke-linejoin:round;stroke-miterlimit:10;" d="
						M319.394,284.839c-0.921,0-1.836-0.239-2.654-0.71c-1.362-0.787-2.303-2.127-2.578-3.677l-5.508-30.996
						c-0.649-3.656,1.414-7.235,4.904-8.506l3.382-1.23c3.488-1.266,7.37,0.144,9.223,3.363l15.706,27.286
						c0.785,1.365,0.926,2.996,0.387,4.474c-0.539,1.478-1.696,2.635-3.176,3.174l-2.168,0.789c-0.62,0.226-1.311-0.094-1.538-0.718
						c-0.227-0.623,0.095-1.311,0.718-1.538l2.168-0.79c0.811-0.294,1.446-0.93,1.742-1.74c0.296-0.811,0.218-1.705-0.212-2.454
						l-15.706-27.286c-1.269-2.206-3.93-3.179-6.322-2.306l-3.382,1.23c-2.392,0.872-3.806,3.324-3.36,5.832l5.508,30.996
						c0.151,0.85,0.665,1.585,1.414,2.016c0.749,0.432,1.642,0.511,2.454,0.214l2.168-0.79c0.622-0.22,1.313,0.094,1.538,0.718
						c0.227,0.622-0.095,1.311-0.718,1.538l-2.168,0.79C320.623,284.734,320.006,284.839,319.394,284.839z"/>
					<path style="fill:#A0E1F0;" d="M304.794,251.344v-0.75c0-10.626-2.024-18.274-12.104-23.559
						c-2.209-1.156-4.255-2.121-6.319-3.094c-4.402-2.073-7.879-3.709-9.967-6.009c-2.687-2.961-1.002-5.654-0.422-6.41
						c1.283-1.67,3.719-2.766,6.268-1.45c3.97,2.049,5.107,4.723,6.426,7.824c1.233,2.897,2.509,5.895,6.07,8.26
						c10.8,7.176,15.683,11.893,17.815,14.398c-3.381,1.607-5.313,5.281-4.646,9.034l1.516,8.531l3.721-1.355l-1.396-7.859
						c-0.381-2.147,0.829-4.248,2.878-4.995l3.384-1.23c2.045-0.747,4.327,0.082,5.414,1.975l3.982,6.917l3.721-1.355l-4.322-7.508
						c-2.032-3.533-6.292-5.086-10.129-3.694l-0.27,0.098c-3.144-4.179-10.034-9.905-19.51-16.203
						c-2.588-1.721-3.539-3.956-4.642-6.545c-1.408-3.311-3.003-7.064-8.222-9.759c-3.875-1.999-8.461-0.956-11.15,2.54
						c-2.708,3.524-2.464,8.002,0.626,11.407c2.613,2.878,6.59,4.751,11.207,6.924c1.964,0.924,3.995,1.879,6.157,3.013
						c8.418,4.414,10.015,10.471,10.015,20.104v0.75H304.794z"/>
					<path style="fill:#969696;" d="M324.363,284.404l-1.744,0.399c-0.727,0.166-1.464-0.235-1.72-0.936l-0.321-0.882
						c-0.255-0.701,0.052-1.482,0.716-1.822l1.592-0.816c0.792-0.406,1.76-0.025,2.064,0.811l0.473,1.299
						C325.728,283.292,325.231,284.206,324.363,284.404z"/>
					<path style="fill:#969696;" d="M336.587,279.932l1.592-0.816c0.664-0.34,0.971-1.121,0.716-1.822l-0.321-0.882
						c-0.255-0.701-0.992-1.102-1.719-0.936l-1.744,0.398c-0.867,0.198-1.365,1.112-1.06,1.948l0.473,1.299
						C334.827,279.957,335.795,280.337,336.587,279.932z"/>
					
						<path style="fill:none;stroke:#462837;stroke-width:1.2;stroke-linecap:round;stroke-linejoin:round;stroke-miterlimit:10;" d="
						M304.794,251.344v-0.75c0-10.626-2.024-18.274-12.104-23.559c-2.209-1.156-4.255-2.121-6.319-3.094
						c-4.402-2.073-7.879-3.709-9.967-6.009c-2.687-2.961-1.002-5.654-0.422-6.41c1.283-1.67,3.719-2.766,6.268-1.45
						c3.97,2.049,5.107,4.723,6.426,7.824c1.233,2.897,2.509,5.895,6.07,8.26c10.8,7.176,15.683,11.893,17.815,14.398
						c-3.381,1.607-5.313,5.281-4.646,9.034l1.516,8.531l3.721-1.355l-1.396-7.859c-0.381-2.147,0.829-4.248,2.878-4.995l3.384-1.23
						c2.045-0.747,4.327,0.082,5.414,1.975l3.982,6.917l3.721-1.355l-4.322-7.508c-2.032-3.533-6.292-5.086-10.129-3.694
						l-0.27,0.098c-3.144-4.179-10.034-9.905-19.51-16.203c-2.588-1.721-3.539-3.956-4.642-6.545
						c-1.408-3.311-3.003-7.064-8.222-9.759c-3.875-1.999-8.461-0.956-11.15,2.54c-2.708,3.524-2.464,8.002,0.626,11.407
						c2.613,2.878,6.59,4.751,11.207,6.924c1.964,0.924,3.995,1.879,6.157,3.013c8.418,4.414,10.015,10.471,10.015,20.104v0.75
						H304.794z"/>
					
						<path style="fill:none;stroke:#462837;stroke-width:1.2;stroke-linecap:round;stroke-linejoin:round;stroke-miterlimit:10;" d="
						M324.363,284.404l-1.744,0.399c-0.727,0.166-1.464-0.235-1.72-0.936l-0.321-0.882c-0.255-0.701,0.052-1.482,0.716-1.822
						l1.592-0.816c0.792-0.406,1.76-0.025,2.064,0.811l0.473,1.299C325.728,283.292,325.231,284.206,324.363,284.404z"/>
					
						<path style="fill:none;stroke:#462837;stroke-width:1.2;stroke-linecap:round;stroke-linejoin:round;stroke-miterlimit:10;" d="
						M336.587,279.932l1.592-0.816c0.664-0.34,0.971-1.121,0.716-1.822l-0.321-0.882c-0.255-0.701-0.992-1.102-1.719-0.936
						l-1.744,0.398c-0.867,0.198-1.365,1.112-1.06,1.948l0.473,1.299C334.827,279.957,335.795,280.337,336.587,279.932z"/>
				</g>
				<g>
					<path style="fill:#C8C8C8;" d="M312.056,256.197c-0.897-5.088-5.749-8.485-10.836-7.588c-5.088,0.897-8.485,5.749-7.588,10.837
						c0.897,5.088,5.749,8.485,10.837,7.588C309.556,266.136,312.954,261.285,312.056,256.197z"/>
					<path style="fill:#969696;" d="M307.45,257.009c-0.448-2.544-2.874-4.243-5.418-3.794c-2.544,0.449-4.242,2.874-3.794,5.418
						c0.449,2.544,2.874,4.242,5.418,3.794C306.2,261.979,307.899,259.553,307.45,257.009z"/>
					<path style="opacity:0.5;fill:#969696;" d="M305.985,257.267c-0.306-1.734-1.96-2.893-3.694-2.587
						c-1.734,0.306-2.893,1.96-2.587,3.694c0.306,1.734,1.96,2.893,3.694,2.587C305.133,260.656,306.291,259.002,305.985,257.267z"
						/>
					<g>
						
							<path style="fill:none;stroke:#462837;stroke-width:1.2;stroke-linecap:round;stroke-linejoin:round;stroke-miterlimit:10;" d="
							M312.056,256.197c-0.897-5.088-5.749-8.485-10.836-7.588c-5.088,0.897-8.485,5.749-7.588,10.837
							c0.897,5.088,5.749,8.485,10.837,7.588C309.556,266.136,312.954,261.285,312.056,256.197z"/>
						
							<path style="fill:none;stroke:#462837;stroke-width:0.9;stroke-linecap:round;stroke-linejoin:round;stroke-miterlimit:10;" d="
							M307.45,257.009c-0.448-2.544-2.874-4.243-5.418-3.794c-2.544,0.449-4.242,2.874-3.794,5.418
							c0.449,2.544,2.874,4.242,5.418,3.794C306.2,261.979,307.899,259.553,307.45,257.009z"/>
					</g>
					<g style="opacity:0.5;">
						<path style="fill:#FAFAFA;" d="M303.951,264.098c3.21-1.113,5.225-3.985,5.169-7.383c-0.037-0.609,0.885-0.765,1.055-0.186
							c0.987,2.907-0.51,6.35-3.178,7.81c-0.644,0.375-3.297,1.467-3.417,0.289C303.572,264.383,303.729,264.171,303.951,264.098
							L303.951,264.098z"/>
					</g>
				</g>
			</g>
			<g>
				<path style="fill:#C37D6E;" d="M306.762,223.923l0.011-0.023c-0.644-1.105-1.828-1.558-2.89-1.26
					c-0.648-1.58-2.335-2.025-3.592-1.266l0.008-0.033c-1.188-1.439-3.459-1.318-4.406,0.842c-1.478,3.371,1.02,5.245,2.668,4.495
					c0.175-0.08,0.337-0.178,0.486-0.286l0.003-0.01c0.574,1.255,1.802,1.808,2.978,1.015l0.002-0.006
					c0.553,1.234,1.773,1.842,2.518,1.422l0.03-0.065c0.399,1.102,1.383,1.447,2.102,1.217l3.44-0.003
					c0.018-0.275,0.031-0.546,0.041-0.815C310.3,225.239,308.416,223.611,306.762,223.923z"/>
				<g>
					
						<path style="fill:none;stroke:#462837;stroke-width:1.8;stroke-linecap:round;stroke-linejoin:round;stroke-miterlimit:10;" d="
						M303.885,222.643c-0.909-2.227-3.9-2.252-4.821,0.251c-1.216,3.304,0.956,5.856,2.962,4.503"/>
					
						<path style="fill:none;stroke:#462837;stroke-width:1.8;stroke-linecap:round;stroke-linejoin:round;stroke-miterlimit:10;" d="
						M306.773,223.899c-1.082-1.856-3.693-1.924-4.678,0.441c-1.288,3.091,1.228,5.163,2.452,4.473"/>
					
						<path style="fill:none;stroke:#462837;stroke-width:1.8;stroke-linecap:round;stroke-linejoin:round;stroke-miterlimit:10;" d="
						M300.298,221.341c-1.188-1.439-3.459-1.318-4.406,0.842c-1.477,3.371,1.02,5.245,2.668,4.495
						c0.175-0.08,0.337-0.178,0.486-0.286"/>
					
						<path style="fill:none;stroke:#462837;stroke-width:1.8;stroke-linecap:round;stroke-linejoin:round;stroke-miterlimit:10;" d="
						M310.119,229.962c0.017-0.274,0.031-0.546,0.041-0.815c0.226-6.315-4.833-6.69-5.663-2.52
						c-0.557,2.802,1.118,3.678,2.181,3.338"/>
					<g>
						<path style="fill:#462837;" d="M306.404,229.108c0.718-0.144,1.248-0.928,1.489-1.651c0.126-0.356,0.518-0.542,0.874-0.416
							c0.964,0.432,0.132,1.807-0.234,2.482c-0.457,0.773-2.159,2.155-2.806,0.799C305.522,229.803,305.856,229.207,306.404,229.108
							L306.404,229.108z"/>
					</g>
					<g>
						<path style="fill:#462837;" d="M306.404,229.108c0.718-0.144,1.248-0.928,1.489-1.651c0.126-0.356,0.518-0.542,0.874-0.416
							c0.964,0.432,0.132,1.807-0.234,2.482c-0.457,0.773-2.159,2.155-2.806,0.799C305.522,229.803,305.856,229.207,306.404,229.108
							L306.404,229.108z"/>
					</g>
				</g>
				<g>
					<path style="fill:#C37D6E;" d="M295.605,238.019c1.715-4.77-0.578-9.212-0.578-9.212c1.057,0,4.244-1.158,4.244-3.621
						c0-4.206-9.151-4.052-11.361,1.391c-1.43,3.52-0.664,8.244,0.988,10.222L295.605,238.019z"/>
					
						<path style="fill:none;stroke:#462837;stroke-width:1.8;stroke-linecap:round;stroke-linejoin:round;stroke-miterlimit:10;" d="
						M295.605,238.019c1.715-4.77-0.578-9.212-0.578-9.212c1.057,0,4.244-1.158,4.244-3.621c0-4.206-9.151-4.052-11.361,1.391
						c-1.43,3.52-0.664,8.244,0.988,10.222"/>
				</g>
			</g>
			<g>
				<path style="fill:#FAFAFA;" d="M214.198,181.485c10.574,0,14.115-9.469,12.304-15.084c-1.662-5.153-6.879-9.135-12.541-9.135
					c-5.662,0-10.406,3.982-12.068,9.135C200.083,172.016,203.623,181.485,214.198,181.485z"/>
				<g>
					<path style="fill:#462837;" d="M253.952,195.059c-5.234,3.227-16.63,3.228-21.874,0c-0.244-0.162-0.31-0.492-0.148-0.735
						c0.173-0.262,0.509-0.296,0.762-0.143c3.193,1.315,6.88,1.401,10.323,1.45c3.442-0.05,7.131-0.137,10.323-1.45
						C253.932,193.8,254.537,194.641,253.952,195.059L253.952,195.059z"/>
				</g>
				<g>
					<path style="fill:#462837;" d="M221.235,149.905c-4.334-2.819-10.223-2.825-14.555,0c-0.97,0.773-2.285-0.384-1.602-1.422
						c3.024-4.285,9.229-5.402,13.841-3.222c1.207,0.528,5.456,3.274,3.627,4.711C222.126,150.259,221.616,150.183,221.235,149.905
						L221.235,149.905z"/>
				</g>
				<ellipse style="opacity:0.25;fill:#C37D6E;" cx="204.02" cy="189.558" rx="10.098" ry="8.073"/>
				<path style="fill:#462837;" d="M224.46,170.27c0,6.688-4.521,11.215-10.098,11.215c-5.577,0-10.098-4.527-10.098-11.215
					c0-6.688,4.521-13.003,10.098-13.003C219.938,157.267,224.46,163.583,224.46,170.27z"/>
				<ellipse style="fill:#FAFAFA;" cx="220.58" cy="174.687" rx="3.03" ry="2.27"/>
				<g>
					<path style="fill:#462837;" d="M222.045,179.73c-4.483,3.103-10.98,3.137-15.51,0.109c-0.359-0.236-0.027-0.813,0.357-0.618
						c4.643,2.257,10.176,2.226,14.786-0.104C222.058,178.916,222.404,179.491,222.045,179.73L222.045,179.73z"/>
				</g>
				<g>
					<path style="fill:#462837;" d="M225.892,165.796c-5.822-9.277-18.803-8.805-23.826,0.958c-0.524,1.167-2.339,0.529-2.022-0.705
						c2.439-9.384,14.262-13.586,22.223-8.095c2.549,1.662,4.572,4.118,5.562,6.929c0.197,0.561-0.097,1.175-0.657,1.372
						C226.681,166.429,226.149,166.224,225.892,165.796L225.892,165.796z"/>
				</g>
				<g>
					<path style="fill:#462837;" d="M201.789,157.04c0.657,1.158,1.925,2.158,3.241,2.346c0.828,0.147,1.379,0.938,1.232,1.765
						c-0.163,1.028-1.378,1.581-2.265,1.051c-1.898-0.968-3.201-2.659-3.676-4.709c-0.094-0.412,0.163-0.823,0.575-0.917
						C201.28,156.486,201.63,156.707,201.789,157.04L201.789,157.04z"/>
				</g>
				<g>
					<path style="fill:#462837;" d="M263.31,150.671c2.636-4.536,8.723-6.185,13.507-4.415c1.248,0.421,5.72,2.784,4.026,4.375
						c-0.336,0.272-0.786,0.308-1.15,0.128c-3.43-1.818-7.666-2.185-11.296-0.706c-1.233,0.483-2.48,1.23-3.513,2.001
						C263.983,152.741,262.748,151.639,263.31,150.671L263.31,150.671z"/>
				</g>
				<g>
					<path style="fill:#462837;" d="M243.919,185.087c0.402,1.019-1.111,2.52-1.786,1.288
						C241.636,185.313,243.297,183.712,243.919,185.087L243.919,185.087z"/>
				</g>
				<ellipse style="opacity:0.25;fill:#C37D6E;" cx="282.015" cy="189.552" rx="10.098" ry="8.079"/>
				<g>
					<path style="fill:#462837;" d="M259.887,178.527c2.311-9.129,13.706-13.098,20.534-6.087c2.021,1.983,3.433,4.533,3.887,7.26
						c0.114,0.686-0.349,1.334-1.035,1.448c-0.581,0.097-1.133-0.221-1.36-0.735c-2.754-5.894-9.408-9.74-15.273-5.732
						c-1.771,1.151-3.276,2.832-4.451,4.806C261.47,180.727,259.511,179.894,259.887,178.527L259.887,178.527z"/>
				</g>
				<g>
					<path style="fill:#462837;" d="M283.853,171.111c-0.386,2.062-1.683,3.782-3.57,4.742c-0.754,0.437-1.732,0.159-2.129-0.621
						c-0.383-0.749-0.087-1.667,0.661-2.05c0.749-0.267,1.527-0.331,2.198-0.892c0.536-0.379,1.052-1.011,1.353-1.571
						C282.717,169.847,284.007,170.187,283.853,171.111L283.853,171.111z"/>
				</g>
			</g>
			<g>
				<path style="fill:#A0E1F0;" d="M180.586,142.471c-2.327,3.155-5.715,5.193-9.65,5.79c-0.981,0.104-1.861-0.607-1.965-1.588
					c0.157-2.278,2.965-3.904,4.555-5.032c1.825-0.943,6.642-3.717,7.344-0.306C180.906,141.751,180.797,142.146,180.586,142.471
					L180.586,142.471z"/>
				<path style="opacity:0.5;fill:#A0E1F0;" d="M180.392,140.297c-2.32,3.014-5.624,4.97-9.455,5.551
					c-0.591,0.063-1.122-0.192-1.492-0.601c-0.257,0.446-0.439,0.917-0.474,1.426c0.104,0.981,0.984,1.692,1.965,1.588
					c3.935-0.597,7.322-2.635,9.65-5.79c0.211-0.325,0.319-0.72,0.284-1.135C180.778,140.886,180.611,140.55,180.392,140.297z"/>
				<path style="fill:none;stroke:#462837;stroke-width:1.8;stroke-linecap:round;stroke-linejoin:round;stroke-miterlimit:10;" d="
					M180.586,142.471c-2.327,3.155-5.715,5.193-9.65,5.79c-0.981,0.104-1.861-0.607-1.965-1.588
					c0.157-2.278,2.965-3.904,4.555-5.032c1.825-0.943,6.642-3.717,7.344-0.306C180.906,141.751,180.797,142.146,180.586,142.471
					L180.586,142.471z"/>
			</g>
			<g>
				<path style="fill:#A0E1F0;" d="M305.484,142.471c2.327,3.155,5.715,5.193,9.65,5.79c0.981,0.104,1.861-0.607,1.965-1.588
					c-0.157-2.278-2.965-3.904-4.555-5.032c-1.825-0.943-6.642-3.717-7.343-0.306C305.165,141.751,305.274,142.146,305.484,142.471
					L305.484,142.471z"/>
				<path style="opacity:0.5;fill:#A0E1F0;" d="M305.678,140.297c2.32,3.014,5.624,4.97,9.455,5.551
					c0.591,0.063,1.122-0.192,1.492-0.601c0.257,0.446,0.439,0.917,0.474,1.426c-0.104,0.981-0.984,1.692-1.965,1.588
					c-3.935-0.597-7.322-2.635-9.65-5.79c-0.21-0.325-0.319-0.72-0.284-1.135C305.292,140.886,305.46,140.55,305.678,140.297z"/>
				<path style="fill:none;stroke:#462837;stroke-width:1.8;stroke-linecap:round;stroke-linejoin:round;stroke-miterlimit:10;" d="
					M305.484,142.471c2.327,3.155,5.715,5.193,9.65,5.79c0.981,0.104,1.861-0.607,1.965-1.588c-0.157-2.278-2.965-3.904-4.555-5.032
					c-1.825-0.943-6.642-3.717-7.343-0.306C305.165,141.751,305.274,142.146,305.484,142.471L305.484,142.471z"/>
			</g>
		</g>
	</g>
</g>
</svg>
