<?xml version="1.0" standalone="no"?>
<!DOCTYPE svg PUBLIC "-//W3C//DTD SVG 20010904//EN"
 "http://www.w3.org/TR/2001/REC-SVG-20010904/DTD/svg10.dtd">
<svg version="1.0" xmlns="http://www.w3.org/2000/svg"
 width="978.000000pt" height="1280.000000pt" viewBox="0 0 978.000000 1280.000000"
 preserveAspectRatio="xMidYMid meet">
<metadata>
Created by potrace 1.15, written by Peter Selinger 2001-2017
</metadata>
<g transform="translate(0.000000,1280.000000) scale(0.100000,-0.100000)"
fill="#000000" stroke="none">
<path d="M4805 12789 c-884 -96 -1641 -686 -1949 -1522 -135 -363 -175 -799
-110 -1187 107 -636 473 -1199 1019 -1565 125 -84 385 -211 529 -260 850 -285
1777 -68 2404 563 355 357 582 812 658 1317 25 165 25 494 1 660 -153 1026
-944 1823 -1967 1980 -127 20 -460 27 -585 14z"/>
<path d="M4285 8026 c-530 -188 -1291 -628 -1815 -1050 -465 -373 -952 -876
-1297 -1336 -446 -597 -790 -1267 -1047 -2044 -110 -328 -144 -569 -117 -805
29 -249 101 -395 289 -593 233 -245 544 -330 1352 -369 316 -15 2913 -6 3005
11 347 63 615 311 708 655 31 115 31 316 -1 433 -84 311 -333 560 -632 632
-30 8 -60 18 -67 24 -11 10 -163 390 -163 408 0 5 39 60 86 123 82 109 89 123
139 267 30 84 120 342 200 573 81 231 249 715 375 1075 126 360 328 940 449
1289 122 349 220 640 217 647 -4 9 -176 70 -281 98 -16 5 -82 -56 -330 -304
-170 -171 -312 -310 -316 -310 -3 0 -138 140 -299 310 -201 212 -301 310 -315
309 -11 0 -74 -19 -140 -43z m-810 -2151 c251 -643 528 -1352 615 -1575 87
-223 197 -504 244 -625 48 -121 97 -236 111 -257 32 -49 97 -86 192 -109 126
-31 216 -81 304 -168 121 -121 179 -262 179 -431 0 -104 -18 -180 -67 -280
-48 -98 -158 -210 -259 -263 -145 -75 -50 -70 -1419 -78 -1510 -9 -1903 0
-2270 52 -189 26 -321 62 -434 115 -80 38 -107 57 -181 132 -182 182 -228 311
-217 611 7 185 21 254 108 518 292 889 699 1620 1286 2310 160 188 627 655
801 802 185 155 540 426 548 418 1 -1 208 -528 459 -1172z"/>
<path d="M6220 7855 c0 -3 -20 -132 -45 -288 -24 -155 -94 -599 -155 -987
-116 -741 -283 -1800 -401 -2550 -38 -245 -80 -512 -93 -595 -24 -148 -24
-150 -5 -210 29 -94 68 -261 84 -360 55 -331 -58 -679 -301 -927 -150 -153
-313 -249 -531 -310 -78 -22 -83 -22 -1181 -25 l-1103 -4 4 -777 c2 -427 7
-787 11 -799 l8 -23 2533 0 2532 0 6 83 c4 45 7 829 7 1742 0 912 4 1655 8
1650 18 -20 113 -393 166 -652 145 -703 215 -1413 236 -2373 4 -223 11 -415
15 -427 l7 -23 868 0 c817 0 868 1 876 18 23 53 11 798 -21 1302 -101 1547
-390 2798 -881 3805 -195 401 -361 660 -668 1044 -606 759 -1185 1266 -1865
1635 -107 58 -111 59 -111 51z"/>
</g>
</svg>
