<?xml version="1.0" standalone="no"?>
<!DOCTYPE svg PUBLIC "-//W3C//DTD SVG 20010904//EN"
 "http://www.w3.org/TR/2001/REC-SVG-20010904/DTD/svg10.dtd">
<svg version="1.0" xmlns="http://www.w3.org/2000/svg"
 width="1221.000000pt" height="1280.000000pt" viewBox="0 0 1221.000000 1280.000000"
 preserveAspectRatio="xMidYMid meet">
<metadata>
Created by potrace 1.15, written by Peter Selinger 2001-2017
</metadata>
<g transform="translate(0.000000,1280.000000) scale(0.100000,-0.100000)"
fill="#000000" stroke="none">
<path d="M11846 12775 c-13 -14 -47 -81 -76 -148 -66 -156 -214 -454 -243
-489 -30 -38 -132 -64 -182 -48 -36 12 -45 27 -105 172 -35 86 -70 123 -125
134 -39 7 -86 -2 -96 -18 -4 -6 11 -47 32 -92 51 -110 83 -224 108 -391 12
-77 29 -170 37 -208 l16 -68 -26 -39 c-16 -24 -34 -40 -46 -40 -26 0 -50 -37
-50 -77 0 -30 -8 -37 -112 -106 -62 -41 -148 -95 -191 -121 -43 -27 -115 -76
-160 -109 -45 -34 -112 -76 -149 -93 -37 -18 -93 -49 -125 -70 -32 -20 -110
-64 -173 -97 -122 -63 -290 -167 -312 -194 -21 -26 -110 -89 -163 -115 -77
-39 -283 -105 -350 -113 -93 -10 -167 -33 -330 -100 -82 -34 -231 -92 -330
-129 -99 -37 -223 -89 -275 -114 -91 -44 -101 -47 -230 -59 -74 -7 -179 -12
-232 -13 -73 0 -110 -5 -148 -20 -28 -11 -68 -20 -88 -20 -56 0 -198 -51 -288
-104 -43 -25 -82 -46 -87 -46 -4 0 -31 -18 -60 -39 -29 -22 -71 -47 -94 -56
-23 -9 -44 -23 -47 -31 -7 -18 -145 -84 -175 -84 -12 0 -36 -7 -52 -16 -18 -9
-48 -14 -76 -12 l-46 3 38 49 c21 27 49 72 63 100 13 28 33 60 43 71 10 11 36
70 57 130 22 61 51 138 66 172 27 64 65 260 67 347 3 102 -92 330 -236 572
-61 101 -88 158 -96 198 l-12 56 -39 0 c-45 0 -72 13 -148 69 -82 62 -241 111
-360 111 -106 0 -147 -14 -184 -63 -33 -43 -66 -54 -73 -26 -9 34 -38 18 -38
-20 0 -30 -4 -34 -49 -52 -27 -10 -61 -29 -75 -42 -14 -12 -43 -31 -64 -40
-21 -9 -40 -25 -44 -34 -3 -10 -30 -52 -59 -94 -58 -83 -87 -143 -98 -201 -4
-21 -16 -57 -26 -80 -12 -27 -20 -65 -20 -104 0 -33 -7 -83 -15 -110 -8 -29
-15 -101 -17 -179 -1 -108 1 -137 16 -170 10 -22 22 -64 27 -94 4 -29 16 -63
27 -75 27 -29 58 -94 66 -138 4 -20 23 -60 42 -89 20 -28 47 -82 59 -120 13
-38 31 -79 39 -91 22 -32 20 -67 -8 -112 l-24 -40 -140 3 c-77 1 -157 7 -178
12 -22 5 -56 9 -77 9 -28 0 -61 14 -121 50 -103 62 -210 112 -310 144 -145 48
-226 58 -521 66 -154 5 -291 11 -305 15 -29 9 -166 66 -225 95 -22 11 -88 38
-147 60 -59 22 -161 62 -227 90 -66 28 -239 84 -383 126 -145 41 -304 90 -353
109 -98 38 -241 128 -382 241 -47 38 -98 75 -112 83 -14 8 -57 35 -96 61 -38
26 -125 78 -193 116 -68 38 -149 90 -180 116 -31 26 -91 70 -132 97 -41 28
-132 89 -201 137 l-126 86 -12 54 c-15 65 -52 108 -110 125 -35 10 -47 20 -58
48 -14 33 -13 43 10 131 14 52 31 122 38 155 25 128 103 312 190 451 51 79 51
100 0 115 -80 24 -164 -36 -236 -167 -74 -134 -109 -164 -195 -164 -99 0 -188
80 -340 306 -115 171 -204 288 -259 337 -36 33 -47 37 -92 37 -29 0 -69 5 -89
11 -39 12 -90 6 -90 -11 0 -5 38 -92 85 -194 47 -101 85 -187 85 -191 0 -23
-32 26 -60 93 -40 93 -73 140 -108 153 -33 13 -72 -3 -72 -28 0 -10 21 -65 45
-122 50 -115 57 -156 26 -146 -14 4 -23 0 -30 -14 -18 -32 -13 -65 15 -102 15
-19 42 -66 60 -106 40 -85 79 -137 170 -229 38 -38 110 -130 161 -204 51 -74
114 -162 140 -195 27 -33 59 -76 73 -95 13 -19 56 -71 96 -116 97 -110 108
-128 94 -153 -6 -12 -28 -30 -50 -41 -51 -26 -62 -47 -45 -81 19 -36 80 -88
129 -108 69 -30 112 -32 171 -10 l53 20 206 -203 c241 -239 314 -302 467 -406
63 -43 172 -121 242 -173 165 -124 304 -206 444 -263 177 -73 234 -110 674
-437 332 -246 348 -256 699 -412 252 -112 434 -203 491 -245 55 -41 83 -82
172 -247 98 -184 134 -245 234 -397 45 -70 92 -151 104 -180 11 -29 45 -92 76
-141 67 -107 83 -156 83 -261 0 -105 15 -274 45 -516 53 -427 56 -590 15 -860
-12 -74 -35 -225 -51 -335 -37 -239 -50 -567 -30 -732 62 -498 308 -958 767
-1432 115 -119 298 -290 383 -358 l24 -20 -168 -164 c-346 -338 -584 -655
-774 -1029 -172 -337 -270 -649 -317 -1005 -34 -266 -16 -689 38 -832 34 -91
120 -142 217 -129 99 14 181 97 181 184 0 23 -6 86 -14 140 -8 53 -16 124 -18
157 l-3 60 405 6 c223 4 762 7 1197 8 l793 1 6 -24 c3 -13 -4 -94 -16 -179
-25 -173 -23 -207 19 -264 89 -123 295 -105 356 30 53 116 76 337 63 597 -27
569 -250 1177 -625 1707 -127 181 -243 314 -450 522 l-213 213 214 212 c410
406 645 722 801 1081 107 245 150 457 149 735 0 223 -13 321 -94 705 -91 435
-98 484 -155 1160 -29 337 -37 398 -66 504 -17 61 -20 95 -17 185 6 143 29
212 155 461 53 105 135 289 183 410 79 201 91 224 136 270 56 58 130 109 224
155 75 36 64 30 282 148 110 60 210 123 289 184 317 244 446 338 589 433 179
119 208 134 350 187 148 56 239 105 413 226 84 58 214 147 291 199 176 119
191 130 371 293 83 74 173 153 200 175 28 22 100 90 160 151 73 75 128 121
163 138 48 24 52 29 52 62 0 26 8 43 28 62 41 40 193 274 245 377 45 91 66
140 108 250 21 58 175 395 265 582 24 50 44 98 44 106 0 18 -28 42 -58 52 -17
5 -22 11 -17 23 18 42 17 55 0 68 -33 24 -53 15 -102 -46 -71 -88 -110 -153
-128 -215 -8 -30 -20 -55 -25 -55 -14 0 -13 12 20 150 30 127 35 166 24 194
-9 24 -52 19 -78 -9z m-4383 -6932 c19 -43 42 -94 50 -114 l15 -36 -337 -6
c-185 -4 -654 -7 -1043 -7 -661 0 -708 1 -708 17 0 9 21 63 48 120 l47 102
946 1 946 0 36 -77z m128 -615 c42 -78 -111 -690 -190 -762 -17 -15 -101 -17
-922 -23 l-904 -6 -52 109 c-59 126 -94 233 -122 371 -28 139 -42 296 -27 305
6 4 209 8 451 9 369 2 982 8 1617 17 132 2 138 1 149 -20z m-491 -1218 c0 -19
-385 -397 -497 -488 l-112 -92 -55 38 c-85 57 -254 211 -419 382 -147 153
-149 155 -121 161 50 11 1204 10 1204 -1z m-494 -1218 c144 -131 326 -321 435
-457 l88 -110 -631 -3 c-347 -1 -633 0 -636 3 -7 7 132 176 255 311 112 121
356 354 371 354 5 0 58 -44 118 -98z m804 -1032 c70 -93 229 -562 246 -728 l7
-59 -429 -6 c-236 -4 -758 -7 -1160 -7 -624 0 -733 2 -743 14 -32 39 96 478
213 732 29 61 38 73 62 77 16 3 424 4 907 3 l878 -1 19 -25z"/>
</g>
</svg>
