<?xml version="1.0" encoding="utf-8"?>
<!-- Generator: Adobe Illustrator 27.5.0, SVG Export Plug-In . SVG Version: 6.00 Build 0)  -->
<svg version="1.1" xmlns="http://www.w3.org/2000/svg" xmlns:xlink="http://www.w3.org/1999/xlink" x="0px" y="0px"
	 viewBox="0 0 499.999 500" style="enable-background:new 0 0 499.999 500;" xml:space="preserve">
<g id="BACKGROUND">
	<rect x="0" style="fill:#E0F2F1;" width="500" height="500"/>
</g>
<g id="OBJECTS">
	<g>
		<g>
			
				<line style="fill:none;stroke:#000000;stroke-width:0.5;stroke-linecap:round;stroke-miterlimit:10;" x1="56.451" y1="442.957" x2="434.981" y2="442.957"/>
			
				<line style="fill:none;stroke:#000000;stroke-width:0.5;stroke-linecap:round;stroke-miterlimit:10;" x1="266.279" y1="452.595" x2="384.902" y2="452.595"/>
			<g>
				<rect x="307.912" y="337.251" style="fill:#EED43B;" width="103.394" height="97.823"/>
				
					<line style="fill:none;stroke:#000000;stroke-linecap:round;stroke-miterlimit:10;" x1="307.669" y1="413.266" x2="411.214" y2="413.266"/>
				
					<line style="fill:none;stroke:#000000;stroke-linecap:round;stroke-miterlimit:10;" x1="307.669" y1="388.462" x2="411.214" y2="388.462"/>
				
					<line style="fill:none;stroke:#000000;stroke-linecap:round;stroke-miterlimit:10;" x1="307.669" y1="363.658" x2="411.214" y2="363.658"/>
				<path d="M360.424,397.89c0,1.058-0.858,1.916-1.916,1.916s-1.916-0.858-1.916-1.916s0.858-1.916,1.916-1.916
					S360.424,396.832,360.424,397.89z"/>
				<path d="M360.424,372.52c0,1.058-0.858,1.916-1.916,1.916s-1.916-0.858-1.916-1.916c0-1.058,0.858-1.916,1.916-1.916
					S360.424,371.461,360.424,372.52z"/>
				<path d="M360.424,351.519c0,1.058-0.858,1.916-1.916,1.916s-1.916-0.858-1.916-1.916s0.858-1.916,1.916-1.916
					S360.424,350.461,360.424,351.519z"/>
				<path d="M360.424,422.552c0,1.058-0.858,1.916-1.916,1.916s-1.916-0.858-1.916-1.916s0.858-1.916,1.916-1.916
					S360.424,421.494,360.424,422.552z"/>
			</g>
			<path style="fill:none;stroke:#E36D78;stroke-miterlimit:10;" d="M420.48,128.497c4.541,26.518,3.946,53.906-1.743,80.201"/>
			<path style="fill:none;stroke:#E36D78;stroke-miterlimit:10;" d="M417.353,190.443c0.231,4.61-0.018,9.244-0.743,13.802"/>
			<path style="fill:none;stroke:#E36D78;stroke-miterlimit:10;" d="M174.441,243.747c3.153-5.922,9.441-10.054,16.128-10.599"/>
			<path style="fill:none;stroke:#E36D78;stroke-miterlimit:10;" d="M197.253,233.393c2.361,0.752,4.721,1.505,7.081,2.257"/>
			<path style="fill:none;stroke:#E36D78;stroke-miterlimit:10;" d="M68.744,106.41c-8.174,16.343-12.816,34.442-13.515,52.702"/>
			<path style="fill:none;stroke:#E36D78;stroke-miterlimit:10;" d="M61.86,143.442c-0.622,1.741-1.243,3.481-1.865,5.222"/>
			<path style="fill:none;stroke:#E36D78;stroke-miterlimit:10;" d="M108.109,80.297c7.615-0.449,15.163,5.051,17.068,12.438"/>
			<path style="fill:none;stroke:#E36D78;stroke-miterlimit:10;" d="M125.648,97.187c0.137,1.622,0.01,3.267-0.373,4.849"/>
			<path style="fill:none;stroke:#E36D78;stroke-miterlimit:10;" d="M287.861,271.838c4.378,3.958,9.495,7.095,15.007,9.202"/>
			<path style="fill:none;stroke:#E36D78;stroke-miterlimit:10;" d="M273.737,53.44c5.844-0.115,11.689-0.229,17.533-0.344"/>
			<path style="fill:none;stroke:#E36D78;stroke-miterlimit:10;" d="M296.868,53.166c2.716,0.376,5.467,0.502,8.206,0.373"/>
			
				<line style="fill:none;stroke:#000000;stroke-width:0.5;stroke-linecap:round;stroke-miterlimit:10;" x1="87.226" y1="435.124" x2="456.523" y2="435.124"/>
			<g>
				<path style="fill:#FFE0E0;" d="M414.05,248.338c0.052-0.081,0.105-0.162,0.156-0.243c0.55-0.867,1.087-1.74,1.612-2.618
					c0.073-0.122,0.147-0.244,0.219-0.366c0.508-0.855,1.003-1.715,1.488-2.579c0.081-0.145,0.162-0.29,0.242-0.435
					c0.474-0.853,0.937-1.711,1.389-2.574c0.081-0.155,0.161-0.311,0.242-0.466c0.447-0.863,0.885-1.729,1.311-2.601
					c0.072-0.148,0.143-0.297,0.215-0.446c0.428-0.885,0.849-1.774,1.255-2.668c0.056-0.122,0.109-0.246,0.165-0.368
					c0.418-0.927,0.829-1.857,1.224-2.793c0.022-0.051,0.042-0.102,0.063-0.153c2.126-5.043,3.934-10.219,5.464-15.511
					c0.036-0.124,0.074-0.247,0.11-0.372c0.237-0.83,0.463-1.665,0.687-2.5c0.083-0.309,0.169-0.616,0.25-0.925
					c0.197-0.752,0.384-1.508,0.571-2.265c0.098-0.398,0.199-0.796,0.294-1.196c0.168-0.706,0.329-1.415,0.489-2.124
					c0.103-0.456,0.206-0.911,0.305-1.369c0.146-0.676,0.287-1.354,0.425-2.033c0.101-0.496,0.202-0.993,0.299-1.49
					c0.128-0.653,0.251-1.308,0.372-1.964c0.098-0.531,0.193-1.063,0.287-1.596c0.111-0.632,0.219-1.264,0.324-1.899
					c0.093-0.565,0.183-1.132,0.272-1.699c0.095-0.61,0.19-1.221,0.28-1.833c0.088-0.6,0.172-1.203,0.255-1.805
					c0.081-0.587,0.163-1.174,0.239-1.763c0.083-0.64,0.16-1.282,0.238-1.924c0.067-0.557,0.136-1.113,0.199-1.671
					c0.079-0.696,0.151-1.394,0.223-2.092c0.053-0.512,0.11-1.023,0.16-1.536c0.077-0.79,0.146-1.582,0.216-2.374
					c0.038-0.427,0.079-0.852,0.114-1.28c0.101-1.222,0.195-2.447,0.28-3.676c1.326-19.232,0.916-38.788-4.473-57.406
					c-5.389-18.617-16.106-36.345-32.57-48.188c-29.882-21.495-71.39-19.968-109.269-19.729c-38.883,0.246-77.9-1.928-116.57,1.833
					c-29.635,2.882-59.45,9.412-86.079,22.811C67.112,82.474,51.688,100.4,47.096,122.135c-4.946,23.411-6.262,53.613,5.463,75.323
					c8.647,16.011,22.995,24.828,40.397,29.583c17.843,4.875,37.505-0.704,54.191,7.721c11.268,5.689,19.747,17.475,19.04,29.862
					c2.6-5.65,5.28-11.419,9.657-15.897c16.163-16.537,45.716-3.307,62.733,5.054c11.314,5.56,21.662,12.57,32.58,18.728
					c32.24,16.496,84.751,29.813,115.248,6.013c10.632-8.297,19.105-17.508,25.846-27.446c0.007-0.01,0.014-0.02,0.021-0.031
					C412.879,250.149,413.47,249.246,414.05,248.338z"/>
				<g>
					<polyline style="fill:none;stroke:#000000;stroke-width:2;stroke-linecap:round;stroke-miterlimit:10;" points="
						99.429,438.379 120.83,379.201 150.426,377.008 171.826,438.379 					"/>
					<polyline style="fill:none;stroke:#000000;stroke-width:2;stroke-linecap:round;stroke-miterlimit:10;" points="
						87.363,442.767 108.764,383.589 138.36,381.395 159.76,442.767 					"/>
					<path style="fill:#61BA89;" d="M125.7,409.735c-7.952-1.527-15.794-3.631-23.439-6.3c-17.789-6.212-32.12-24.892-37.789-42.347
						c-5.956-18.337-8.123-41.567-4.954-60.534c2.042-12.218,9.034-24.663,20.774-28.615c8.447-2.844,17.741-0.827,26.155,2.115
						c11.342,3.966,17.772,9.533,22.725,20.329c5.309,11.571,9.209,23.819,15.85,34.749c9.338,15.369,23.945,27.469,40.784,33.784
						c11.066,4.15,32.674,7.109,28.383,23.421c-4.67,17.75-23.381,23.842-39.846,25.54
						C158.139,413.548,141.695,412.807,125.7,409.735z"/>
					<path style="fill:#E36D78;" d="M333.705,416.523c-0.276-0.335-0.676-0.573-1.096-0.567c-0.743,0.011-1.307,0.564-2.001,0.686
						c-0.055-0.377,0.25-0.76,0.318-1.152c0.111-0.647-0.075-1.369-0.406-1.931c-0.601-1.019-1.944-1.484-3.058-1.134
						c-0.09-0.202,0-0.27,0.03-0.468c0.071-0.475,0.127-1.015,0.047-1.507c-0.277-1.702-1.82-1.727-3.132-1.129
						c-0.55-1.584-0.351-3.487-1.818-4.67c-1.082-0.873-2.849-0.909-3.78,0.123c-0.468,0.518-0.678,1.211-0.892,1.875
						c-1.496,4.643-3.91,8.808-6.526,12.889c-2.012,3.138-4.873,5.1-7.752,7.417c-12.879-6.06-25.313-13.066-37.17-20.942
						c-2.621-1.741-5.496-3.603-8.63-3.322c-1.806,0.162-3.481,1.039-4.922,2.141c-3.867,2.957-6.328,7.806-6.027,12.664
						c0.745,12.008,17.712,17.865,26.99,21.233c6.735,2.445,12.895,6.297,19.19,9.715c1.29,0.7,2.6,1.417,3.927,2.052
						c4.708,2.254,10.909,3.423,14.638-1.213c0.679-0.845,1.215-1.796,1.871-2.659c3.569-4.702,7.855-8.797,11.227-13.708
						c2.64-3.845,5.967-7.432,8.148-11.562c0.607-1.149,1.411-2.758,1.177-4.099C334.01,416.997,333.883,416.74,333.705,416.523z"/>
					<path style="fill:#222221;" d="M279.994,441.364c1.062-3.315,1.8-6.741,2.336-10.175c0.749-4.799,1.134-9.642,1.544-14.48
						c-5.924-3.362-11.733-6.926-17.407-10.695c-2.621-1.741-5.496-3.603-8.63-3.322c-1.806,0.162-3.481,1.039-4.922,2.141
						c-3.867,2.957-6.328,7.806-6.027,12.664c0.745,12.008,17.712,17.865,26.99,21.233
						C275.966,439.488,277.995,440.391,279.994,441.364z"/>
					<path style="fill:#170303;" d="M189.268,375.558l-2.354-1.731c7.427-10.098,10.298-21.397,8.083-31.815
						c-2.398-11.284-10.911-21.203-22.773-26.533c-18.611-8.364-42.001-5.003-64.505-0.124L107.1,312.5
						c22.992-4.984,46.94-8.396,66.322,0.314c12.708,5.711,21.842,16.399,24.434,28.592
						C200.245,352.649,197.196,364.778,189.268,375.558z"/>
					<path style="fill:#E36D78;" d="M211.439,340.977c-0.112-2.844-0.664-5.84-2.362-8.274c-2.733-3.918-8.038-5.458-12.22-4.26
						c-4.182,1.198-7.264,4.681-8.985,8.704c-0.975,2.278-1.563,4.726-1.948,7.241c-0.295,1.926-0.47,3.892-0.607,5.85
						c-0.462,6.59-1.005,13.641,0.026,20.348c0.076,0.494,0.177,0.962,0.293,1.418c0.667,0.637,1.291,1.317,1.991,1.913
						c0.425,0.302,0.852,0.601,1.284,0.893c1.807,0.983,3.817,1.284,5.759,1.883c2,0.616,3.936,1.449,6.043,1.621
						c0.309,0.025,0.615,0.048,0.919,0.075c0.132-0.29,0.277-0.658,0.451-1.129c1.722-4.653,4.629-16.623,6.351-21.276
						c0.881-2.381,1.764-4.77,2.323-7.281C211.312,346.207,211.542,343.603,211.439,340.977z"/>
					<path d="M186.274,354.01c1.933,1.168,4.36,1.156,6.516,1.596c1.299,0.265,2.579,0.656,3.867,0.975
						c1.315,0.327,2.63,0.658,3.921,1.072c2.23,0.714,4.336,1.739,6.434,2.781c0.521-1.772,1.007-3.328,1.423-4.452
						c0.881-2.381,1.764-4.77,2.323-7.281c0.555-2.495,0.785-5.098,0.682-7.725c-0.112-2.844-0.664-5.84-2.362-8.274
						c-2.733-3.918-8.037-5.458-12.22-4.26c-4.182,1.198-7.264,4.681-8.985,8.704c-0.975,2.278-1.563,4.726-1.948,7.241
						c-0.295,1.926-0.47,3.892-0.607,5.85c-0.061,0.864-0.122,1.737-0.182,2.616C185.388,353.298,185.752,353.694,186.274,354.01z"
						/>
					<path style="fill:#1F5DAD;" d="M263.964,451.403c1.443-2.109,3.031-4.095,4.613-6.117c3.279-4.193,6.476-8.499,9.034-13.179
						c2.285-4.181,3.917-8.653,4.74-13.351c0.343-1.959,0.539-3.937,0.634-5.921c-16.211-9.549-32.719-18.594-49.494-27.111
						c-17.221-8.744-35.306-19.32-54.357-23.369c-6.286-1.336-12.311-1.098-18.255-3.379c-6.866-2.634-13.545-5.858-20.362-8.632
						c-8.309-3.382-16.081-7.985-24.422-11.287c-7.098-2.81-16.126-2.582-22.123,2.597c-8.014,6.923-6.601,17.086-2.851,26.004
						c5.914,14.065,15.292,19.799,29.311,24.311c16.149,5.198,32.295,10.404,48.447,15.593c13.172,4.232,27.911,9.193,39.829,16.314
						c10.07,6.017,21.1,10.487,30.93,17.076c4.32,2.895,8.511,6.139,13.415,7.87C256.511,450.043,260.354,450.544,263.964,451.403z"
						/>
					<g>
						<path style="fill:#EED43B;" d="M215.427,411.872c-1.317,1.279-2.635,2.558-3.953,3.837c-0.463,0.449,0.245,1.156,0.707,0.707
							c1.318-1.279,2.635-2.558,3.953-3.837C216.597,412.13,215.889,411.423,215.427,411.872z"/>
						<path style="fill:#EED43B;" d="M208.938,400.721c-0.881-2.326-1.609-4.706-2.181-7.126c-0.148-0.626-1.112-0.361-0.964,0.266
							c0.571,2.421,1.3,4.801,2.181,7.126C208.199,401.583,209.166,401.324,208.938,400.721z"/>
						<path style="fill:#EED43B;" d="M224.04,399.784c-0.066-0.24-0.362-0.448-0.615-0.349c-1.886,0.736-3.831,1.305-5.816,1.7
							c-0.631,0.126-0.364,1.09,0.266,0.964c1.985-0.396,3.931-0.964,5.816-1.7C223.942,400.301,224.117,400.063,224.04,399.784z"/>
						<path style="fill:#EED43B;" d="M217.002,385.279c-0.028-0.269-0.21-0.5-0.5-0.5c-0.249,0-0.528,0.23-0.5,0.5
							c0.161,1.564,0.323,3.127,0.484,4.691c0.028,0.269,0.21,0.5,0.5,0.5c0.249,0,0.528-0.23,0.5-0.5
							C217.324,388.406,217.163,386.843,217.002,385.279z"/>
						<path style="fill:#EED43B;" d="M205.228,407.997c-2.293,0.803-4.817,0.372-7.063,1.377c-0.249,0.111-0.303,0.468-0.179,0.684
							c0.145,0.255,0.439,0.289,0.684,0.179c2.143-0.958,4.622-0.505,6.824-1.276C206.098,408.75,205.838,407.784,205.228,407.997z"
							/>
						<path style="fill:#EED43B;" d="M194.929,396.345c-1.389-0.791-2.779-1.582-4.168-2.373c-0.56-0.319-1.065,0.545-0.505,0.863
							c1.389,0.791,2.778,1.582,4.168,2.373C194.984,397.527,195.489,396.664,194.929,396.345z"/>
						<path style="fill:#EED43B;" d="M203.411,380.491c-0.027-0.259-0.211-0.513-0.5-0.5c-0.248,0.011-0.529,0.221-0.5,0.5
							c0.094,0.907,0.188,1.815,0.282,2.722c0.027,0.259,0.211,0.513,0.5,0.5c0.248-0.011,0.529-0.221,0.5-0.5
							C203.598,382.305,203.504,381.398,203.411,380.491z"/>
						<path style="fill:#EED43B;" d="M233.281,416.334c-2.21,0.502-4.455,0.806-6.72,0.912c-0.641,0.03-0.644,1.03,0,1
							c2.351-0.109,4.69-0.426,6.986-0.947C234.174,417.156,233.909,416.192,233.281,416.334z"/>
						<path style="fill:#EED43B;" d="M241.257,403.515c-0.911-1.799-1.74-3.638-2.48-5.513c-0.099-0.251-0.335-0.426-0.615-0.349
							c-0.239,0.066-0.449,0.362-0.349,0.615c0.772,1.956,1.631,3.876,2.581,5.752C240.684,404.594,241.547,404.088,241.257,403.515
							z"/>
						<path style="fill:#EED43B;" d="M249.357,428.996c-2.435,1.791-4.869,3.582-7.304,5.372c-0.513,0.377-0.015,1.246,0.505,0.864
							c2.435-1.791,4.869-3.582,7.304-5.373C250.375,429.482,249.876,428.614,249.357,428.996z"/>
						<path style="fill:#EED43B;" d="M247.829,418.249c-0.745-1.601-1.2-3.338-1.34-5.097c-0.021-0.269-0.214-0.5-0.5-0.5
							c-0.254,0-0.521,0.229-0.5,0.5c0.155,1.947,0.652,3.831,1.476,5.602c0.114,0.245,0.467,0.307,0.684,0.179
							C247.9,418.786,247.943,418.495,247.829,418.249z"/>
						<path style="fill:#EED43B;" d="M262.524,446.523c-0.82-2.017-1.203-4.166-1.119-6.342c0.025-0.643-0.975-0.642-1,0
							c-0.087,2.255,0.305,4.517,1.155,6.608c0.102,0.25,0.333,0.427,0.615,0.349C262.411,447.073,262.626,446.775,262.524,446.523z
							"/>
						<path style="fill:#EED43B;" d="M272.343,429.631c-2.161,0.65-4.322,1.3-6.482,1.949c-0.615,0.185-0.353,1.15,0.266,0.964
							c2.161-0.65,4.322-1.3,6.482-1.949C273.224,430.41,272.962,429.445,272.343,429.631z"/>
						<path style="fill:#EED43B;" d="M266.599,416.445c-0.178-0.178-0.533-0.208-0.707,0c-1.108,1.327-2.311,2.571-3.602,3.722
							c-0.202,0.18-0.183,0.524,0,0.707c0.2,0.2,0.505,0.18,0.707,0c1.29-1.151,2.494-2.395,3.602-3.722
							C266.772,416.945,266.802,416.648,266.599,416.445z"/>
						<path style="fill:#EED43B;" d="M256.809,402.213c-0.107-0.248-0.472-0.304-0.684-0.179c-0.257,0.15-0.286,0.435-0.179,0.684
							c0.757,1.765,1.318,3.612,1.695,5.494c0.126,0.63,1.09,0.364,0.964-0.266C258.209,405.974,257.601,404.06,256.809,402.213z"/>
						<path style="fill:#EED43B;" d="M259.576,429.692c-1.151-1.057-2.167-2.249-3.019-3.559c-0.147-0.226-0.443-0.32-0.684-0.179
							c-0.225,0.132-0.327,0.457-0.179,0.684c0.897,1.38,1.963,2.648,3.175,3.761c0.199,0.183,0.51,0.197,0.707,0
							C259.761,430.214,259.776,429.875,259.576,429.692z"/>
						<path style="fill:#EED43B;" d="M232.188,388.77c-1.878-0.18-3.756-0.359-5.633-0.539c-0.269-0.026-0.5,0.248-0.5,0.5
							c0,0.292,0.23,0.474,0.5,0.5c1.878,0.18,3.756,0.359,5.633,0.539c0.269,0.026,0.5-0.248,0.5-0.5
							C232.688,388.978,232.458,388.795,232.188,388.77z"/>
						<path style="fill:#EED43B;" d="M177.427,400.249c-2.137,0.666-4.477,0.466-6.459-0.582c-0.569-0.301-1.074,0.562-0.505,0.863
							c2.213,1.169,4.837,1.428,7.23,0.682C178.305,401.022,178.044,400.057,177.427,400.249z"/>
						<path style="fill:#EED43B;" d="M182.476,377.751c-0.284-0.078-0.516,0.097-0.615,0.349c-0.795,2.026-1.26,4.162-1.404,6.333
							c-0.042,0.642,0.958,0.64,1,0c0.137-2.082,0.606-4.125,1.368-6.067C182.924,378.114,182.717,377.817,182.476,377.751z"/>
						<path style="fill:#EED43B;" d="M197.207,372.535c-1.502,1.408-3.003,2.816-4.505,4.223c-0.471,0.441,0.238,1.147,0.707,0.707
							c1.502-1.408,3.003-2.816,4.505-4.223C198.385,372.801,197.677,372.095,197.207,372.535z"/>
						<path style="fill:#EED43B;" d="M168.822,382.297c-2.499-1.625-4.91-3.382-7.219-5.268c-0.494-0.404-1.206,0.299-0.707,0.707
							c2.375,1.94,4.851,3.753,7.422,5.425C168.859,383.512,169.36,382.646,168.822,382.297z"/>
						<path style="fill:#EED43B;" d="M175.599,368.165c-0.292,0-0.474,0.23-0.5,0.5c-0.188,1.971-0.375,3.942-0.563,5.913
							c-0.026,0.269,0.248,0.5,0.5,0.5c0.292,0,0.474-0.23,0.5-0.5c0.188-1.971,0.376-3.942,0.563-5.913
							C176.125,368.396,175.851,368.165,175.599,368.165z"/>
						<path style="fill:#EED43B;" d="M152.668,363.16c-2.443,0.455-4.886,0.91-7.328,1.366c-0.632,0.118-0.364,1.082,0.266,0.964
							c2.443-0.455,4.886-0.91,7.328-1.365C153.566,364.006,153.298,363.042,152.668,363.16z"/>
						<path style="fill:#EED43B;" d="M151.165,381.478c-0.586,2.036-1.031,4.11-1.332,6.208c-0.038,0.267,0.066,0.537,0.349,0.615
							c0.235,0.065,0.576-0.08,0.615-0.349c0.301-2.098,0.746-4.171,1.332-6.208C152.307,381.125,151.343,380.86,151.165,381.478z"
							/>
						<path style="fill:#EED43B;" d="M130.033,362.751c-0.275,2.722-0.551,5.445-0.826,8.167c-0.065,0.64,0.936,0.635,1,0
							c0.275-2.722,0.551-5.445,0.826-8.167C131.098,362.111,130.098,362.116,130.033,362.751z"/>
						<path style="fill:#EED43B;" d="M140.139,376.372c-2.342,1.134-4.685,2.268-7.027,3.403c-0.579,0.28-0.073,1.143,0.505,0.863
							c2.342-1.134,4.685-2.269,7.027-3.403C141.223,376.955,140.716,376.092,140.139,376.372z"/>
						<path style="fill:#EED43B;" d="M122.641,352.46c-2.124-1.386-3.91-3.248-5.214-5.422c-0.331-0.551-1.196-0.049-0.864,0.505
							c1.393,2.323,3.305,4.301,5.573,5.781C122.677,353.676,123.178,352.811,122.641,352.46z"/>
						<path style="fill:#EED43B;" d="M118.472,361.758c-1.667,0.982-3.414,1.816-5.23,2.484c-0.253,0.093-0.425,0.339-0.349,0.615
							c0.067,0.244,0.36,0.443,0.615,0.349c1.896-0.697,3.728-1.559,5.469-2.585C119.531,362.294,119.028,361.43,118.472,361.758z"
							/>
					</g>
					<path d="M155.967,383.336c0.076,4.642-0.661,9.294-0.841,13.936c-0.037,0.969-0.031,1.974,0.361,2.861
						c0.716,1.621,2.457,2.496,3.135,4.149c-1.562,0.01-10.325-2.88-11.143-3.558c-2.85-2.364-0.743-6.06-1.456-9.694
						c-0.639-3.258-0.897-6.578-1.153-9.888c-0.237-3.057-0.473-6.115-0.71-9.172c-0.108-1.396-0.604-6.146,1.139-6.902
						c1.248-0.542,3.803,3.582,4.548,4.58c2.556,3.429,5.9,8.248,6.091,12.688C155.952,382.669,155.962,383.002,155.967,383.336z"/>
					<path style="fill:#1F5DAD;" d="M154.553,260.535c-5.682-8.515-22.69-9.029-31.628-9.819c-2.414-0.214-5.682,0.01-8.07,0.419
						c-2.946,0.504-4.827,1.491-7.39,3.028c-20.016,12.007-31.077,30.538-30.663,54.132c0.281,16.03,5.184,31.459,10.342,46.485
						c0.289,0.842,0.518,1.549,0.737,2.155c0.696-0.194,1.389-0.389,2.074-0.582c6.227-1.754,12.499-3.732,18.488-6.186
						c5.795-2.374,11.288-5.458,16.454-8.988c5.283-3.609,10.13-7.774,15.107-11.782c4.071-3.279,8.887-3.212,12.626-6.87
						c-0.89-1.679-2.467-6.75-3.056-8.552c-1.141-3.485-1.312-7.207-1.315-10.874c-0.004-4.439-0.464-9.974,1.009-14.226
						c0.284-0.821,0.79-1.543,1.29-2.254c3.125-4.443,5.999-7.678,6.541-13.165C157.539,269,157.096,264.347,154.553,260.535z"/>
					<path d="M109.2,316.486c1.474-6.216,2.532-12.53,3.163-18.887c0.15-1.516,0.286-3.071,0.93-4.452
						c-0.071,0.153,1.528,3.342,1.643,3.864c0.299,1.355,0.226,2.542,0.141,3.88c-0.195,3.063-1.572,6.413-1.014,9.463
						c0.38,2.081,1.798,3.96,1.696,6.074c-0.149,3.1-3.391,5.101-4.543,7.983c-1.028,2.573-0.154,6.235-2.162,8.384
						c-0.904,0.968-2.481,1.562-3.388,0.247c-0.967-1.402,0.498-5.343,0.869-6.989C107.259,322.844,108.438,319.702,109.2,316.486z"
						/>
					<path style="fill:#1F5DAD;" d="M155.663,327.001c-0.767-2.294-2.079-4.264-3.218-6.366c-0.326-0.601-0.637-1.213-0.917-1.846
						c-0.098-0.221-0.203-0.449-0.336-0.651c-0.455,0.303-0.923,0.588-1.397,0.862c-2.276,1.314-4.533,2.665-6.824,3.953
						c-4.303,2.419-8.662,4.774-13.033,7.069c-4.185,2.198-8.437,4.461-12.77,6.354c-2.074,0.906-4.23,1.582-6.394,2.232
						c-2.328,0.7-4.626,1.5-6.972,2.141c-0.748,0.204-1.501,0.402-2.253,0.602c-0.199,0.066-0.397,0.136-0.597,0.201
						c-2.334,0.764-5.086,1.929-5.437,4.36c-0.137,0.95,0.148,1.904,0.447,2.818c1.157,3.536,2.5,10.438,6.571,10.598
						c1.773,0.07,4.47-0.761,6.405-0.895c2.67-0.185,5.331-0.504,7.951-1.054c5.848-1.229,11.664-3.01,17.299-4.989
						C144.58,348.741,160.303,340.885,155.663,327.001z"/>
					<path style="fill:#1F5DAD;" d="M200.202,287.3c-0.388-0.215-0.772-0.426-1.154-0.622c-2.139-1.096-4.398-2.22-6.8-2.133
						c-2.331,0.084-4.453,1.297-6.457,2.493c-10.073,6.008-19.964,12.415-28.81,20.116c-8.847,7.7-16.657,16.755-21.931,27.231
						c-1.553,3.085-2.898,6.344-3.228,9.782c-0.248,2.584,0.085,5.185,0.418,7.759c0.698,5.401,0.477,10.307,6.201,12.626
						c2.431,0.985,5.077,1.268,7.647,1.789c5.012,1.016,10.466,4.088,15.148,0.94c10.701-7.193,20.798-18.294,24.607-29.189
						c4.999-14.298,16.95-25.23,23.23-39.014c1.123-2.464,2.869-7.716-0.409-9.371c-1.128-0.57-2.658-0.141-3.87-0.39
						C203.188,288.988,201.671,288.114,200.202,287.3z"/>
					<path style="fill:#EED43B;" d="M144.847,331.645c-0.09-0.635-1.054-0.365-0.964,0.266c0.453,3.193,0.906,6.387,1.358,9.58
						c0.09,0.635,1.054,0.365,0.964-0.266C145.753,338.032,145.3,334.839,144.847,331.645z"/>
					<path style="fill:#EED43B;" d="M163.291,352.568c-2.765,1.38-5.667,2.455-8.661,3.222c-0.623,0.159-0.359,1.124,0.266,0.964
						c3.076-0.788,6.059-1.905,8.9-3.323C164.371,353.144,163.865,352.281,163.291,352.568z"/>
					<path style="fill:#EED43B;" d="M166.454,334.071c-1.162,1.997-2.223,4.051-3.18,6.155c-0.112,0.246-0.07,0.538,0.179,0.684
						c0.215,0.126,0.572,0.068,0.684-0.179c0.957-2.103,2.018-4.157,3.18-6.155C167.641,334.018,166.778,333.514,166.454,334.071z"
						/>
					<path style="fill:#EED43B;" d="M162.97,321.747c-1.546-2.303-3.265-4.488-5.14-6.533c-0.436-0.475-1.142,0.233-0.707,0.707
						c1.818,1.983,3.484,4.097,4.983,6.331C162.464,322.783,163.33,322.283,162.97,321.747z"/>
					<path style="fill:#EED43B;" d="M181.231,326.494h-5.631c-0.643,0-0.645,1,0,1h5.631
						C181.874,327.494,181.875,326.494,181.231,326.494z"/>
					<path style="fill:#EED43B;" d="M141.061,346.61h-5.631c-0.643,0-0.645,1,0,1h5.631
						C141.705,347.61,141.706,346.61,141.061,346.61z"/>
					<path style="fill:#EED43B;" d="M174.897,343.253c-0.095-0.087-0.22-0.152-0.354-0.146c-0.124,0.005-0.272,0.045-0.354,0.146
						c-0.375,0.469-0.751,0.939-1.126,1.408c-0.086,0.107-0.146,0.21-0.146,0.354c0,0.123,0.054,0.269,0.146,0.354
						c0.095,0.087,0.22,0.152,0.354,0.146c0.124-0.006,0.272-0.045,0.354-0.146c0.375-0.469,0.751-0.939,1.126-1.408
						c0.086-0.107,0.146-0.21,0.146-0.354C175.043,343.484,174.989,343.337,174.897,343.253z"/>
					<path style="fill:#EED43B;" d="M176.294,307.033c-1.032,2.159-2.065,4.317-3.097,6.476c-0.276,0.578,0.586,1.086,0.863,0.505
						c1.032-2.159,2.065-4.317,3.097-6.476C177.434,306.96,176.572,306.452,176.294,307.033z"/>
					<path style="fill:#EED43B;" d="M193.487,312.438c-2.249,0.398-4.497,0.796-6.745,1.194c-0.633,0.112-0.365,1.076,0.266,0.964
						c2.249-0.398,4.497-0.796,6.745-1.194C194.385,313.29,194.117,312.326,193.487,312.438z"/>
					<path style="fill:#EED43B;" d="M192.121,300.117c-1.128-2.909-2.255-5.818-3.383-8.727c-0.23-0.594-1.197-0.336-0.964,0.266
						c1.128,2.909,2.255,5.818,3.383,8.727C191.386,300.977,192.354,300.719,192.121,300.117z"/>
					<g>
						<path style="fill:#1F5DAD;" d="M219.309,297.793c-0.123-3.65-0.172-8.109-1.753-11.467c-1.565-3.324-5.84-5.985-9.27-6.837
							c-4.135-1.027-8.857,0.09-11.749,3.219c-1.539,1.665-2.499,3.766-3.553,5.774c-3.345,6.691-7.33,12.998-10.698,19.698
							c-0.651,1.294-1.304,2.596-1.722,3.983c-0.467,1.549,3.713,4.704,3.552,6.314c-0.554,5.554-2.121,12.044-2.675,17.598
							l-3.59,13.163c4.553-0.179,7.265,2.341,11.523,3.659c2.878,0.89,5.909,1.138,8.911,1.38c1.746,0.141,20.128,2.109,19.936,0.3
							c-1.214-11.44,0.641-22.953,1.185-34.443C219.76,312.693,219.561,305.238,219.309,297.793z"/>
						<path style="fill:#EED43B;" d="M197.062,340.338c-1.402-2.069-2.804-4.137-4.206-6.206c-0.359-0.53-1.226-0.03-0.863,0.505
							c1.402,2.069,2.804,4.137,4.206,6.206C196.558,341.372,197.424,340.872,197.062,340.338z"/>
						<path style="fill:#EED43B;" d="M210.933,345.345c-2.517,0.78-5.11,1.273-7.738,1.459c-0.638,0.045-0.643,1.046,0,1
							c2.717-0.192,5.403-0.689,8.004-1.495C211.812,346.12,211.55,345.154,210.933,345.345z"/>
						<path style="fill:#EED43B;" d="M211.169,322.669c-0.21-0.126-0.576-0.068-0.684,0.179c-0.938,2.159-1.877,4.317-2.815,6.476
							c-0.108,0.249-0.072,0.534,0.179,0.684c0.21,0.126,0.577,0.068,0.684-0.179c0.939-2.159,1.877-4.317,2.815-6.476
							C211.456,323.103,211.42,322.819,211.169,322.669z"/>
						<path style="fill:#EED43B;" d="M195.778,325.457c-0.757-2.46-1.705-4.858-2.83-7.174c-0.281-0.579-1.144-0.072-0.863,0.505
							c1.088,2.239,1.997,4.556,2.729,6.935C195.003,326.336,195.968,326.075,195.778,325.457z"/>
						<path style="fill:#EED43B;" d="M216.865,303.168c-2.347,0.844-4.693,1.688-7.04,2.533c-0.601,0.216-0.342,1.183,0.266,0.964
							l7.04-2.533C217.732,303.916,217.473,302.95,216.865,303.168z"/>
						<path style="fill:#EED43B;" d="M199.7,306.879c-0.663-2.626-1.326-5.253-1.989-7.879c-0.158-0.624-1.122-0.359-0.964,0.266
							c0.663,2.626,1.326,5.253,1.989,7.879C198.893,307.768,199.857,307.504,199.7,306.879z"/>
						<path style="fill:#EED43B;" d="M187.83,305.057c-1.549,2.411-2.788,5.01-3.698,7.728c-0.205,0.612,0.761,0.874,0.964,0.266
							c0.883-2.638,2.093-5.149,3.597-7.49C189.042,305.018,188.177,304.516,187.83,305.057z"/>
						<path style="fill:#EED43B;" d="M187.648,346.919c-0.281-1.877-0.562-3.754-0.844-5.631c-0.04-0.267-0.377-0.415-0.615-0.349
							c-0.286,0.079-0.389,0.347-0.349,0.615c0.281,1.877,0.562,3.754,0.844,5.631c0.04,0.267,0.377,0.415,0.615,0.349
							C187.585,347.456,187.688,347.187,187.648,346.919z"/>
						<path style="fill:#EED43B;" d="M203.904,285.123c-0.962,0.315-1.916,0.657-2.868,1.001c-0.975,0.353-1.971,0.689-2.912,1.128
							c-0.124,0.058-0.255,0.119-0.354,0.217c-0.29,0.289-0.152,0.745,0.221,0.871c0.23,0.078,0.41-0.011,0.514-0.162
							c0.041-0.021,0.082-0.043,0.124-0.062c0.039-0.018,0.079-0.036,0.119-0.053c0.011-0.005,0.057-0.025,0.082-0.036
							c0.101-0.042,0.202-0.084,0.304-0.124c0.574-0.23,1.155-0.445,1.736-0.657c1.095-0.4,2.193-0.795,3.301-1.158
							C204.779,285.888,204.518,284.922,203.904,285.123z"/>
					</g>
					<g id="XMLID_30_">
						<g id="XMLID_33_">
							<path id="XMLID_40_" style="fill:#E36D78;" d="M122.873,237.045c-0.102,1.277,2.572,4.197,3.39,5.117
								c1.297,1.46,2.807,2.589,4.629,3.307c4.748,1.873,9.724,2.045,13.445-1.869c1.767-1.858,2.967-4.179,3.974-6.537
								c1.533-3.593,3.671-13.501,2.701-17.284c-0.881-3.434-4.563-0.441-7.916-1.594c-2.917-1.003-5.137-1.901-8.257-1.359
								c-2.773,0.482-5.448,1.861-7.19,4.111c-0.47,0.607-0.895,1.222-1.285,1.837c-0.922,1.959-1.772,3.955-2.386,6.034
								c-0.512,1.734-0.685,3.493-0.962,5.249C122.996,235.056,122.953,236.053,122.873,237.045z"/>
						</g>
					</g>
					<g id="XMLID_26_">
						<g id="XMLID_27_">
							<path style="fill:#E36D78;" d="M120.897,259.879c2.496,1.749,8.176,4.841,11.126,3.427c2.413-1.156,4.677-2.443,4.737-5.159
								c0.075-3.37,0.48-6.125,1.86-9.281c0.296-0.677,2.878-4.843,2.611-5.312c-0.076-0.133-0.169-0.258-0.288-0.371
								c-0.618-0.591-1.576-0.575-2.431-0.585c-3.199-0.037-6.193-1.045-8.792-2.899c-1.236-0.882-2.351-1.921-3.413-3.004
								c-0.608-0.62-1.723-2.779-2.652-2.855c-0.088-0.007-0.156,0.039-0.229,0.07c-1.091,4.376-1.181,8.466-3.816,12.386
								c-0.997,1.483-2.175,2.801-3.574,3.77c-0.717,0.687-1.593,1.19-2.78,1.407C115.133,254.799,117.742,257.668,120.897,259.879z
								"/>
						</g>
					</g>
					<path d="M151.057,221.506c0.955-0.839,1.803-1.896,2.858-3.049c1.291-1.411,2.665-3.392,1.731-5.061
						c-0.41-0.733-1.185-1.184-1.964-1.497c-1.968-0.793-4.198-0.921-6.244-0.359c0.718-2.2-0.914-4.849-3.202-5.196
						c-1.668-0.253-3.353,0.587-4.531,1.796c-1.178,1.209-1.94,2.752-2.683,4.267c-1.136-1.231-2.457-2.292-3.904-3.136
						c-0.303-0.177-0.666-0.349-0.992-0.218c-0.309,0.124-0.458,0.47-0.556,0.788c-0.503,1.628-0.499,3.409,0.01,5.035
						c-0.725-0.915-1.732-1.605-2.848-1.95c-0.454-0.14-0.958-0.222-1.395-0.036c-0.731,0.31-0.988,1.275-0.766,2.037
						c0.221,0.762,0.791,1.366,1.341,1.938c-1.25-1.298-5.096,0.805-6.039,1.652c-1.72,1.545-2.567,4.482-2.887,6.714
						c-0.483,3.375-0.16,7.577,1.587,10.562c0.706,1.207,1.898,2.389,3.282,2.192c0.948-0.135,1.696-0.903,2.145-1.749
						c0.8-1.507,0.865-3.279,1.197-4.952c0.332-1.673,1.096-3.454,2.66-4.135c1.924-0.839,4.113,0.332,6.211,0.263
						c1.801-0.059,3.388-1.291,4.917-2.121c2.014-1.093,3.491-1.707,5.766-1.929C148.67,223.176,149.937,222.491,151.057,221.506z"
						/>
					<g id="XMLID_20_">
						<g id="XMLID_21_">
							<path id="XMLID_22_" style="fill:#E36D78;" d="M129.857,227.692c-0.072-0.842-0.396-1.622-0.898-2.208
								c-0.594-1.04-1.998-1.524-3.146-1.455c-1.612,0.096-3.102,1.322-3.644,2.931c-1.193,3.542,2.411,6.683,5.52,4.97
								C129.154,231.122,130.003,229.393,129.857,227.692z"/>
						</g>
					</g>
					<path style="fill:#1F5DAD;" d="M212.62,281.169c1.187-1.199,2.298-2.531,2.864-3.803c1.083-2.434,1.082-5.207,0.83-7.86
						c-0.203-2.142-0.567-4.298-1.466-6.253c-0.899-1.954-2.385-3.705-4.355-4.569c-4.024-1.765-9.317-1.201-13.615-1.654
						c-5.533-0.583-11.033-1.45-16.573-1.979c-7.328-0.7-14.693-0.806-22.047-1.007c-3.749-0.102-10.282-0.933-14.022-1.222
						c-3.195-0.247-3.164-0.891-6.508-0.465c0.062,1.023,0.683,1.914,1.036,2.876c0.276,0.752,0.387,1.552,0.497,2.346
						c0.234,1.694,0.508,2.904,1.242,4.44c0.575,1.204,1.332,2.495,1.703,3.779c0.283,0.978,0.139,2.182,0.757,3.029
						c0.492,0.673,1.196,1.215,1.481,1.998c0.266,0.731,0.117,1.541-0.055,2.299c-0.7,3.086-1.736,6.096-3.085,8.958
						c-0.789,1.676-1.709,3.412-1.575,5.26c0.19,2.62,2.861,4.785,5.464,4.429c1.352-0.185,2.552-0.927,3.79-1.502
						c3.279-1.523,7.072-1.912,10.592-1.085c10.354,2.432,19.971-1.23,30.348-1.842c4.02-0.237,8.081,0.128,12.064-0.466
						c2.905-0.432,5.874-1.454,8.126-3.396C210.871,282.826,211.765,282.032,212.62,281.169z"/>
					<path d="M124.962,230.18c-0.904-0.487-1.288-1.75-0.807-2.658c0.48-0.908,1.74-1.301,2.652-0.827"/>
					<g>
						<g id="XMLID_3_">
							<g id="XMLID_283_">
								<g id="XMLID_284_">
									<g id="XMLID_294_">
										<g id="XMLID_1222_">
											<path id="XMLID_1607_" style="fill:#E36D78;" d="M148.537,307.813c2.153-4.38,2.651-6.054,6.991-9.399
												c2.698-2.079,3.988,0.86,2.4,2.313c-3.41,3.12-4.438,4.557-6.477,8.705C150.506,311.355,147.592,309.737,148.537,307.813
												z"/>
										</g>
									</g>
								</g>
								<g id="XMLID_285_">
									<g id="XMLID_289_">
										<g id="XMLID_1219_">
											<path id="XMLID_1603_" style="fill:#E36D78;" d="M151.701,309.694c2.625-4.972,3.631-4.904,7.172-9.243
												c1.355-1.661,3.751,0.658,2.4,2.313c-3.365,4.123-4.164,3.824-6.658,8.549
												C153.614,313.208,150.698,311.595,151.701,309.694z"/>
										</g>
									</g>
								</g>
								<g id="XMLID_290_">
									<g id="XMLID_292_">
										<g id="XMLID_1216_">
											<path id="XMLID_1599_" style="fill:#E36D78;" d="M156.298,312.873c-0.283-0.512-0.315-1.132-0.206-1.706
												c0.32-1.697,1.459-2.956,2.498-4.272c1.04-1.317,2.132-2.595,3.327-3.776c1.522-1.505,3.931,0.799,2.4,2.313
												c-0.983,0.972-1.981,1.975-2.835,3.064c-0.668,0.851-1.475,1.662-2.041,2.58c-0.419,0.68-0.758,1.41-1.219,2.063
												C157.645,313.953,156.791,313.741,156.298,312.873z"/>
										</g>
									</g>
								</g>
								<g id="XMLID_300_">
									<g id="XMLID_301_">
										<g id="XMLID_1213_">
											<path id="XMLID_1595_" style="fill:#E36D78;" d="M160.061,311.987c1.835-2.182,3.437-4.554,5.462-6.595
												c1.109-1.118,3.452-0.05,3.365,1.524c-0.049,0.882-0.686,1.628-1.402,2.146c-0.716,0.518-1.538,0.881-2.232,1.427
												c-1.576,1.239-2.517,4.373-4.84,4.463c-0.61,0.024-1.268-0.353-1.387-0.952c-0.121-0.606,0.311-1.169,0.715-1.637
												C159.848,312.237,159.955,312.112,160.061,311.987z"/>
										</g>
									</g>
								</g>
							</g>
							<g id="XMLID_302_">
								<g id="XMLID_303_">
									<g id="XMLID_1209_">
										<path id="XMLID_1590_" style="fill:#E36D78;" d="M164.549,308.392c0.568,0.529,1.218,0.901,2.135,0.814
											c0.997-0.094,1.902-0.592,2.815-1.002c0.892-0.399,1.822-0.725,2.66-1.227c1.673-1.003,2.902-2.718,3.315-4.624
											c0.447-2.063-0.241-3.549-0.958-5.406c-0.644-1.669-0.756-3.072-2.821-3.419c-1.01-0.17-4.08,0.232-5.094,0.378
											c-2.574,0.371-9.923,2.108-11.235,5.011c-0.773,1.71,2.842,3.874,3.848,4.657c1.29,1.003,2.588,2.004,3.771,3.133
											C163.538,307.236,164.005,307.886,164.549,308.392z"/>
									</g>
								</g>
							</g>
						</g>
					</g>
					<path style="fill:#1F5DAD;" d="M90.253,263.63c-13.183,15.068-21.436,75.187-13.037,76.061
						c6.815,0.709,21.237-2.46,26.084-8.315c2.166-2.616,2.861-6.112,3.485-9.45c0.858-4.59,1.716-9.18,2.574-13.77
						c3.506-18.754,7.865-38.022,3.898-56.684C100.832,253.132,95.772,257.323,90.253,263.63z"/>
					<path style="fill:#61BA89;" d="M127.473,346.367c12.7,5.975,21.826,17.148,24.413,29.888c1.269,6.251,1.272,12.707-0.39,18.887
						c-1.26,4.684-4.128,13.952-9.566,15.251c-2.06,0.492-4.217,0.148-6.306-0.197c-2.305-0.381-4.609-0.762-6.914-1.143
						c-3.659-0.605-7.661-1.275-10.518-3.83c-2.697-2.412-4.509-3.567-8.044-4.964c-10.725-4.237-22.087-8.967-28.608-18.479
						c-3.015-4.398-4.771-9.542-7.597-14.063c-2.273-3.637-5.224-6.849-7.168-10.673c-1.244-2.447-2.064-5.297-1.828-8.063
						c0.333-3.908,1.62-4.169,5.124-4.863c6.575-1.302,13.203-2.387,19.885-2.949C102.62,340.103,115.816,340.883,127.473,346.367z"
						/>
					<g>
						<defs>
							<path id="SVGID_1_" d="M125.7,409.735c-7.952-1.527-15.794-3.631-23.439-6.3c-17.789-6.212-32.12-24.892-37.789-42.347
								c-5.956-18.337-8.123-41.567-4.954-60.534c2.042-12.218,9.034-24.663,20.774-28.615c8.447-2.844,17.741-0.827,26.155,2.115
								c11.342,3.966,17.772,9.533,22.725,20.329c5.309,11.571,9.209,23.819,15.85,34.749c9.338,15.369,12.892,27.849,29.731,34.164
								c11.066,4.15,43.727,6.729,39.436,23.041c-4.67,17.75-23.381,23.842-39.846,25.54
								C158.139,413.548,141.695,412.807,125.7,409.735z"/>
						</defs>
						<clipPath id="SVGID_00000052813068046933159060000000583822709936937646_">
							<use xlink:href="#SVGID_1_"  style="overflow:visible;"/>
						</clipPath>
					</g>
					<path style="fill:none;stroke:#000000;stroke-linecap:round;stroke-miterlimit:10;" d="M179.28,349.915
						c-0.666-4.987,5.963-27.807,6.091-32.831c0.128-5.024-1.327-7.209,1.097-11.701"/>
					<path style="fill:none;stroke:#000000;stroke-linecap:round;stroke-miterlimit:10;" d="M113.258,288.178
						c-1.242,11.683-3.068,23.303-5.471,34.804c-0.544,2.605-1.133,5.244-2.399,7.585c-1.101,2.036-2.704,3.798-4.626,5.086"/>
					<path style="fill:none;stroke:#000000;stroke-linecap:round;stroke-miterlimit:10;" d="M294.765,441.74
						c0.607,1.268,1.949,2.149,3.354,2.202c1.404,0.053,2.81-0.724,3.511-1.941"/>
					<g>
						<defs>
							<path id="SVGID_00000040545597757545140300000000318488187252968102_" d="M120.897,259.879
								c4.366,3.059,10.177,4.105,15.415,3.922c1.154-0.04,2.335-0.155,3.511-0.349c-2.712-2.679-3.589-4.742-3.025-8.702
								c0.291-2.044,0.999-4.001,1.822-5.885c0.296-0.677,2.878-4.843,2.611-5.312c-0.076-0.133-0.169-0.258-0.288-0.371
								c-0.618-0.591-1.576-0.575-2.431-0.585c-3.199-0.037-6.193-1.045-8.792-2.899c-1.236-0.882-2.351-1.921-3.413-3.004
								c-0.608-0.62-1.723-2.779-2.652-2.855c-0.088-0.007-0.156,0.039-0.229,0.07c-1.091,4.376-1.181,8.466-3.816,12.386
								c-0.997,1.483-2.175,2.801-3.574,3.77c-0.717,0.687-1.593,1.19-2.78,1.407C115.133,254.799,117.742,257.668,120.897,259.879z
								"/>
						</defs>
						<clipPath id="SVGID_00000176749068867773221150000005622897800393460111_">
							<use xlink:href="#SVGID_00000040545597757545140300000000318488187252968102_"  style="overflow:visible;"/>
						</clipPath>
						<path style="clip-path:url(#SVGID_00000176749068867773221150000005622897800393460111_);" d="M145.621,245.408
							c-3.11,1.177-6.713,0.98-9.676-0.53c-0.488-0.249-0.974-0.536-1.516-0.611c-0.543-0.075-1.171,0.126-1.401,0.623
							c-0.237,0.51,0.037,1.137,0.47,1.496c0.433,0.359,0.991,0.519,1.523,0.704c1.048,0.363,2.053,0.851,2.987,1.45
							c1.095,0.702,2.135,1.576,3.406,1.852c1.579,0.344,3.336-0.399,4.19-1.771"/>
					</g>
					<path style="fill:none;stroke:#000000;stroke-linecap:round;stroke-miterlimit:10;" d="M150.448,385.782
						c0.538,6.014-1.278,12.208-4.979,16.979"/>
					<path style="fill:none;stroke:#000000;stroke-linecap:round;stroke-miterlimit:10;" d="M65.323,299.648
						c-1.644,6.442-2.331,13.127-2.033,19.768"/>
					<path style="fill:none;stroke:#000000;stroke-linecap:round;stroke-miterlimit:10;" d="M68.715,336.421
						c-1.645,0.366-3.291,0.731-4.936,1.097"/>
					<path style="fill:none;stroke:#000000;stroke-linecap:round;stroke-miterlimit:10;" d="M141.164,377.523
						c3.011,4.651,4.155,10.474,3.129,15.918"/>
					<path style="fill:none;stroke:#000000;stroke-linecap:round;stroke-miterlimit:10;" d="M80.805,378.637
						c4.231,6.268,9.901,11.558,16.446,15.346"/>
					<path d="M187.564,316.882l-40.767,18.434c-1.567,0.709-3.413,0.013-4.121-1.555l-11.853-26.212
						c-0.709-1.568-0.013-3.413,1.555-4.121l40.767-18.434c1.567-0.709,3.413-0.013,4.121,1.555l11.853,26.212
						C189.828,314.328,189.132,316.173,187.564,316.882z"/>
					<path style="fill:#E36D78;" d="M112.008,345.663c6.693-1.371,13.342-1.47,20.005-2.783c8.343-1.644,15.922-4.443,23.468-8.377
						c0.444-0.232,0.952-0.49,1.482-0.769c0.094-0.044,0.192-0.08,0.286-0.124c2.882-1.364,5.627-3.204,6.121-6.679
						c0.064-0.45-0.085-0.803-0.336-1.051c0.73,0.724,2.62-2.003,1.762-3.228c-1.329-1.897-3.129,0.309-4.192,1.177
						c-0.149,0.122-0.304,0.236-0.454,0.356c-1.53,0.943-3.051,1.902-4.542,2.903c-1.022,0.686-2.189,1.779-3.464,1.883
						c0.396-1.344,2.335-1.949,3.44-2.602c3.109-1.837,6.283-3.73,8.523-6.573c0.383-0.486,0.751-1.05,0.712-1.697
						c-0.199-3.296-4.59,0.914-5.25,1.477c-2.533,2.16-5.274,4.072-8.181,5.705c-0.792,0.445-1.392,0.927-2.354,0.384
						c2.293-3.477,6.676-4.798,9.745-7.574c0.509-0.461,1.019-1.108,0.805-1.808c-0.206-0.675-1.026-1.021-1.691-0.917
						c-0.665,0.104-1.209,0.531-1.733,0.935c-3.016,2.327-6.3,4.309-9.779,5.9c-1.326,0.607-2.888,1.313-4.418,1.132
						c1.446-2.545,5.923-3.931,4.708-7.63c-0.186-0.566-0.976-1.005-1.523-0.9c-1.734,0.33-1.574,1.923-2.618,2.981
						c-0.567,0.575-1.299,0.961-1.939,1.442c-0.632,0.475-1.202,1.034-1.703,1.648c-1.976,2.423-5.706,7.126-8.291,7.597
						c-6.062,1.104-12.834-1.644-18.754-2.615c-10.457-1.715-20.358-1.843-30.556,0.765c-2.608,0.667-5.325,1.951-6.45,4.397
						c-0.922,2.005-0.554,4.414,0.441,6.384c0.995,1.97,2.551,3.591,4.083,5.179c2.822,2.925,5.899,5.994,9.882,6.8
						c1.888,0.382,3.84,0.216,5.751-0.028C100.787,348.612,106.328,346.827,112.008,345.663z"/>
					<path style="fill:none;stroke:#000000;stroke-linecap:round;stroke-miterlimit:10;" d="M149.553,288.515
						c-0.426-1.596-0.852-3.192-1.278-4.787"/>
					<path style="fill:none;stroke:#000000;stroke-linecap:round;stroke-miterlimit:10;" d="M113.034,251.538
						c3.258,5.237,8.004,9.796,13.902,11.599c2.015,0.616,4.293,0.874,6.155-0.11c1.864-0.985,2.919-2.987,3.864-4.872"/>
					<path style="fill:none;stroke:#000000;stroke-linecap:round;stroke-miterlimit:10;" d="M169.2,360.931
						c-4.518-0.833-8.926-2.184-13.426-3.111c-2.792-0.575-5.615-0.986-8.436-1.397"/>
					<path style="fill:#E36D78;" d="M218.09,265.087c-0.557-1.148-1.26-2.225-2.093-3.193c-2.503-2.906-6.376-4.809-10.171-4.258
						c-4.395,0.638-7.816,4.381-9.439,8.515c-1.623,4.134-1.799,8.668-2.113,13.098c-0.217,3.057-0.512,6.155-1.425,9.094
						c-1.138,3.664-2.266,3.867-5.877,4.489c-2.18,0.376-3.975,1.203-6.012,1.96c0.371,1.09,0.958,2.113,1.452,3.16
						c1.318-0.437,2.646-1.002,3.884-0.996c-0.606,1.417-1.997,2.418-3.184,3.266c-3.114,2.222-6.469,4.081-9.99,5.535
						c-0.611,0.253-1.253,0.511-1.675,1.036c-0.422,0.525-0.531,1.408-0.048,1.923c0.5,0.534,1.316,0.415,1.969,0.203
						c3.937-1.277,7.266-4.418,11.424-4.672c-0.008,1.105-0.727,1.385-1.507,1.849c-2.865,1.706-5.889,3.13-9.024,4.248
						c-0.817,0.292-6.655,1.999-3.897,3.815c0.541,0.356,1.213,0.318,1.826,0.228c3.581-0.524,6.804-2.331,9.947-4.111
						c1.117-0.633,2.608-2.011,3.971-1.685c-0.726,1.054-2.255,1.52-3.359,2.064c-1.611,0.794-3.201,1.634-4.781,2.49
						c-0.179,0.07-0.356,0.147-0.535,0.216c-1.283,0.489-4.093,0.949-3.111,3.047c0.976,2.086,4.49,0.072,5.809-0.442
						c1.346-0.524,2.667-1.111,3.958-1.758c0.819-0.41,2.547-1.878,3.465-1.744c-0.466,0.75-1.427,0.991-2.149,1.5
						c-0.587,0.415-1.017,1.013-1.553,1.491c-1.35,1.203-3.28,1.573-4.661,2.739c-0.215,0.182-0.426,0.401-0.473,0.678
						c-0.065,0.379,0.21,0.753,0.557,0.919c0.347,0.166,0.749,0.166,1.132,0.138c3.059-0.222,5.788-1.984,8.134-3.959
						c3.524-2.966,6.986-5.94,10.5-8.894c3.615-3.039,6.481-7.156,9.29-10.925c3.183-4.27,5.944-8.856,8.225-13.669
						c1.697-3.578,3.153-7.41,3.03-11.368C219.522,269.032,219.001,266.965,218.09,265.087z"/>
					<path style="fill:none;stroke:#000000;stroke-linecap:round;stroke-miterlimit:10;" d="M223.232,420.355
						c2.001,2.096,4.527,3.601,7.019,5.079c5.381,3.192,10.761,6.384,16.142,9.576"/>
					<path style="fill:none;stroke:#000000;stroke-linecap:round;stroke-miterlimit:10;" d="M254.021,442.228
						c3.514-0.616,6.94-1.728,10.145-3.295"/>
					<path style="fill:none;stroke:#000000;stroke-linecap:round;stroke-miterlimit:10;" d="M192.867,378.88
						c1.501,0.095,3.024-0.191,4.387-0.826"/>
					<path style="fill:none;stroke:#000000;stroke-linecap:round;stroke-miterlimit:10;" d="M213.185,323.651
						c-2.426,6.399-5.076,12.712-7.943,18.926"/>
					<path style="fill:none;stroke:#000000;stroke-linecap:round;stroke-miterlimit:10;" d="M268.829,433.176
						c1.188-1.645,2.377-3.291,3.565-4.936"/>
					<path style="fill:none;stroke:#000000;stroke-linecap:round;stroke-miterlimit:10;" d="M209.869,343.777
						c-2.188,1.471-4.377,2.941-6.565,4.412"/>
					<path style="fill:none;stroke:#000000;stroke-linecap:round;stroke-miterlimit:10;" d="M100.179,260.961
						c-2.582,2.065-4.896,4.466-6.862,7.124"/>
					<path style="fill:none;stroke:#000000;stroke-linecap:round;stroke-miterlimit:10;" d="M143.231,330.339
						c0.457-0.366,0.914-0.731,1.371-1.097"/>
					<path style="fill:none;stroke:#000000;stroke-linecap:round;stroke-miterlimit:10;" d="M144.877,333.082
						c0.548-0.274,1.097-0.548,1.645-0.823"/>
					<path style="fill:none;stroke:#000000;stroke-linecap:round;stroke-miterlimit:10;" d="M145.563,335.835
						c0.503-0.02,0.996-0.223,1.367-0.563"/>
					<path style="fill:none;stroke:#000000;stroke-linecap:round;stroke-miterlimit:10;" d="M189.558,301.798
						c-0.544,0.462-1.089,0.924-1.633,1.386"/>
					<path style="fill:none;stroke:#000000;stroke-linecap:round;stroke-miterlimit:10;" d="M190.809,306.617
						c-0.457,0.365-0.915,0.731-1.372,1.096"/>
					<path style="fill:none;stroke:#000000;stroke-linecap:round;stroke-miterlimit:10;" d="M192.878,310.056
						c-0.613,0.682-1.448,1.16-2.346,1.343"/>
					<path style="fill:none;stroke:#000000;stroke-linecap:round;stroke-miterlimit:10;" d="M216.728,271.243
						c-0.591,3.817-1.791,7.539-3.54,10.983"/>
					<path style="fill:none;stroke:#000000;stroke-linecap:round;stroke-miterlimit:10;" d="M209.88,286.325
						c-0.026,1.568-0.215,3.132-0.563,4.661"/>
					<path style="fill:none;stroke:#000000;stroke-linecap:round;stroke-miterlimit:10;" d="M186.245,264.641
						c-2.443,0.772-4.908,1.5-7.411,2.052"/>
					<path d="M171.779,358.993c0.576-0.577,2.631-3.049,2.643-3.061c-0.327-0.118-0.685,0.128-1.006,0.001
						c-1.692-0.665-3.465-1.108-5.264-1.367c-1.788-0.258-3.32,0.253-5.01,0.797c-1.439,0.463-2.939,0.74-4.449,0.822
						c-2.273,0.123-4.547-0.195-6.824-0.199c-0.338-0.001-0.697,0.012-0.979,0.199c-1.365,0.903,1.173,1.084,1.55,1.14
						c1.266,0.188,2.537,0.341,3.798,0.563c4.533,0.797,8.902,2.436,13.454,3.077C170.413,360.334,171.104,359.669,171.779,358.993z
						"/>
					<path style="fill:none;stroke:#000000;stroke-linecap:round;stroke-miterlimit:10;" d="M137.446,238.855
						c1.062,1.209,2.551,2.035,4.14,2.294"/>
					<path style="fill:none;stroke:#000000;stroke-linecap:round;stroke-miterlimit:10;" d="M184.043,287.648
						c3.007-0.411,6.014-0.822,9.021-1.232"/>
					<g>
						<path style="fill:#EED43B;" d="M86.203,319.625c-1.849-2.037-4.151-3.605-6.708-4.614c-0.253-0.1-0.547,0.11-0.615,0.349
							c-0.081,0.283,0.099,0.516,0.349,0.615c2.394,0.945,4.539,2.453,6.267,4.357C85.93,320.81,86.635,320.101,86.203,319.625z"/>
						<path style="fill:#EED43B;" d="M101.428,315.654c-0.206-0.206-0.498-0.172-0.707,0c-1.817,1.498-3.635,2.996-5.452,4.494
							c-0.209,0.172-0.178,0.529,0,0.707c0.206,0.206,0.498,0.172,0.707,0c1.817-1.498,3.635-2.996,5.452-4.494
							C101.637,316.189,101.606,315.832,101.428,315.654z"/>
						<path style="fill:#EED43B;" d="M91.584,303.813c-0.012,3.067-0.09,6.133-0.236,9.196c-0.031,0.643,0.969,0.642,1,0
							c0.146-3.063,0.224-6.129,0.236-9.196C92.587,303.169,91.587,303.168,91.584,303.813z"/>
						<path style="fill:#EED43B;" d="M107.271,302.522c-1.813,0.145-3.626,0.29-5.439,0.436c-0.269,0.022-0.5,0.214-0.5,0.5
							c0,0.254,0.229,0.522,0.5,0.5c1.813-0.145,3.626-0.29,5.439-0.436c0.269-0.022,0.5-0.214,0.5-0.5
							C107.771,302.768,107.542,302.5,107.271,302.522z"/>
						<path style="fill:#EED43B;" d="M85.268,304.045c-1.946-1.929-3.616-4.108-4.973-6.488c-0.319-0.559-1.183-0.056-0.863,0.505
							c1.397,2.45,3.126,4.706,5.129,6.691C85.018,305.206,85.726,304.499,85.268,304.045z"/>
					</g>
					<path style="fill:#EED43B;" d="M92.582,292.241c-1.827-0.489-3.694-0.808-5.579-0.964c-0.27-0.022-0.5,0.246-0.5,0.5
						c0,0.289,0.23,0.478,0.5,0.5c1.796,0.149,3.572,0.462,5.313,0.928C92.939,293.371,93.204,292.407,92.582,292.241z"/>
					<path style="fill:#EED43B;" d="M106.689,288.443c-0.178-0.179-0.532-0.208-0.707,0c-1.001,1.189-2.002,2.378-3.003,3.566
						c-0.174,0.206-0.202,0.505,0,0.707c0.178,0.178,0.532,0.208,0.707,0c1.001-1.189,2.002-2.378,3.003-3.566
						C106.863,288.943,106.892,288.645,106.689,288.443z"/>
					<path style="fill:#EED43B;" d="M98.709,284.031c-1.134-1.884-2.428-3.668-3.859-5.337c-0.176-0.205-0.526-0.181-0.707,0
						c-0.203,0.203-0.176,0.501,0,0.707c1.377,1.605,2.612,3.323,3.703,5.135C98.177,285.086,99.042,284.584,98.709,284.031z"/>
					<path style="fill:#EED43B;" d="M86.184,278.736c-0.277-0.076-0.524,0.094-0.615,0.349c-0.56,1.565-1.121,3.13-1.681,4.696
						c-0.091,0.254,0.103,0.547,0.349,0.615c0.277,0.076,0.524-0.094,0.615-0.349c0.56-1.565,1.121-3.13,1.681-4.696
						C86.624,279.097,86.43,278.804,86.184,278.736z"/>
					<path style="fill:#EED43B;" d="M113.074,273.429c-0.18-0.18-0.531-0.206-0.707,0c-1.557,1.821-3.113,3.642-4.67,5.463
						c-0.175,0.205-0.201,0.506,0,0.707c0.18,0.18,0.531,0.206,0.707,0c1.557-1.821,3.113-3.642,4.67-5.463
						C113.25,273.931,113.276,273.63,113.074,273.429z"/>
					<path style="fill:#EED43B;" d="M102.689,272.153c-0.075-0.286-0.349-0.39-0.615-0.349c-2.379,0.363-4.759,0.726-7.138,1.089
						c-0.269,0.041-0.412,0.376-0.349,0.615c0.076,0.286,0.35,0.39,0.615,0.349c2.38-0.363,4.759-0.726,7.139-1.089
						C102.609,272.727,102.752,272.392,102.689,272.153z"/>
					<path style="fill:#EED43B;" d="M108.138,257.315c-0.127-0.63-1.091-0.364-0.964,0.266c0.417,2.07,0.482,4.214,0.177,6.305
						c-0.039,0.269,0.067,0.534,0.349,0.615c0.235,0.067,0.576-0.082,0.615-0.349C108.648,261.871,108.593,259.575,108.138,257.315z
						"/>
					<path style="fill:#EED43B;" d="M121.181,268.131c-1.132-1.12-2.265-2.24-3.397-3.36c-0.192-0.19-0.515-0.192-0.707,0
						c-0.191,0.191-0.193,0.517,0,0.707c1.132,1.12,2.265,2.24,3.397,3.36c0.192,0.19,0.515,0.192,0.707,0
						C121.372,268.647,121.374,268.322,121.181,268.131z"/>
					<path style="fill:#EED43B;" d="M123.661,276.906c-0.127-0.217-0.463-0.337-0.684-0.179c-1.314,0.939-2.628,1.877-3.942,2.816
						c-0.219,0.157-0.325,0.436-0.179,0.684c0.127,0.217,0.463,0.337,0.684,0.179c1.314-0.939,2.628-1.877,3.942-2.816
						C123.701,277.433,123.806,277.154,123.661,276.906z"/>
					<path style="fill:#EED43B;" d="M134.867,272.153c-1.877,0.125-3.754,0.25-5.631,0.375c-0.639,0.043-0.644,1.043,0,1
						c1.877-0.125,3.754-0.25,5.631-0.375C135.506,273.111,135.51,272.111,134.867,272.153z"/>
					<path style="fill:#EED43B;" d="M127.421,288.962c-2.494,0.258-5.002,0.344-7.508,0.256c-0.644-0.022-0.643,0.978,0,1
						c2.506,0.087,5.014,0.002,7.508-0.256C128.055,289.897,128.062,288.896,127.421,288.962z"/>
					<path style="fill:#EED43B;" d="M142.053,288.733c-1.126-1.752-2.252-3.504-3.379-5.256c-0.347-0.54-1.213-0.039-0.863,0.505
						c1.126,1.752,2.253,3.504,3.379,5.256C141.537,289.777,142.403,289.277,142.053,288.733z"/>
					<path style="fill:#EED43B;" d="M122.372,303.117c-0.688,2.156-1.252,4.349-1.689,6.57c-0.124,0.629,0.84,0.898,0.964,0.266
						c0.437-2.221,1.001-4.414,1.689-6.57C123.532,302.768,122.567,302.505,122.372,303.117z"/>
					<path style="fill:#EED43B;" d="M135.904,298.427c-0.515-1.497-1.03-2.993-1.544-4.49c-0.088-0.255-0.343-0.424-0.615-0.349
						c-0.248,0.068-0.438,0.359-0.349,0.615c0.515,1.497,1.03,2.993,1.544,4.49c0.088,0.255,0.343,0.424,0.615,0.349
						C135.804,298.973,135.993,298.683,135.904,298.427z"/>
					<path style="fill:#EED43B;" d="M123.688,321.45c-0.066-0.241-0.362-0.447-0.615-0.349c-2.125,0.82-4.25,1.639-6.375,2.458
						c-0.252,0.097-0.426,0.336-0.349,0.615c0.066,0.241,0.362,0.447,0.615,0.349c2.125-0.819,4.25-1.639,6.375-2.458
						C123.59,321.968,123.764,321.729,123.688,321.45z"/>
					<path style="fill:#EED43B;" d="M131.348,319.144c-1.072-2.333-1.607-4.882-1.591-7.448c0.004-0.644-0.996-0.644-1,0
						c-0.017,2.75,0.58,5.456,1.728,7.952C130.753,320.233,131.615,319.725,131.348,319.144z"/>
					<path style="fill:#EED43B;" d="M146.245,259.444c-2.512,1.265-4.865,2.814-7.032,4.606c-0.496,0.41,0.214,1.114,0.707,0.707
						c2.1-1.736,4.396-3.224,6.83-4.449C147.325,260.018,146.819,259.155,146.245,259.444z"/>
					<path style="fill:#EED43B;" d="M147.597,270.725c-1.098,1.794-2.195,3.587-3.293,5.381c-0.337,0.55,0.528,1.053,0.863,0.505
						l3.293-5.381C148.798,270.68,147.933,270.177,147.597,270.725z"/>
					<path style="fill:#EED43B;" d="M158.055,282.846c-0.333-1.182-0.446-2.399-0.347-3.623c0.022-0.27-0.245-0.5-0.5-0.5
						c-0.289,0-0.478,0.23-0.5,0.5c-0.106,1.305,0.028,2.628,0.383,3.889C157.265,283.73,158.23,283.468,158.055,282.846z"/>
					<path style="fill:#EED43B;" d="M169.774,280.124c-0.78,1.427-1.786,2.704-2.989,3.798c-0.2,0.182-0.185,0.522,0,0.707
						c0.199,0.199,0.507,0.182,0.707,0c1.26-1.147,2.328-2.506,3.145-4.001C170.946,280.064,170.083,279.559,169.774,280.124z"/>
					<path style="fill:#EED43B;" d="M163.715,272.567c-1.744-0.353-3.334-1.353-4.364-2.812c-0.155-0.22-0.437-0.324-0.684-0.179
						c-0.218,0.127-0.336,0.462-0.179,0.684c1.176,1.667,2.956,2.865,4.961,3.272c0.264,0.053,0.54-0.076,0.615-0.349
						C164.132,272.935,163.981,272.621,163.715,272.567z"/>
					<path style="fill:#EED43B;" d="M163.026,261.112c-2.06,0.193-4.13,0.24-6.197,0.14c-0.643-0.031-0.642,0.969,0,1
						c2.067,0.1,4.137,0.053,6.197-0.14c0.269-0.025,0.5-0.212,0.5-0.5C163.526,261.362,163.297,261.087,163.026,261.112z"/>
					<path style="fill:#EED43B;" d="M178.096,274.677c-1.542-0.806-3.041-1.691-4.492-2.651c-0.538-0.356-1.04,0.51-0.505,0.863
						c1.451,0.96,2.95,1.844,4.492,2.651C178.161,275.838,178.667,274.976,178.096,274.677z"/>
					<path style="fill:#EED43B;" d="M187.665,277.469c-0.247-0.144-0.532-0.044-0.684,0.179l-3.19,4.693
						c-0.152,0.224-0.042,0.554,0.179,0.684c0.247,0.144,0.532,0.045,0.684-0.179c1.063-1.565,2.126-3.129,3.19-4.694
						C187.997,277.93,187.887,277.599,187.665,277.469z"/>
					<path style="fill:#EED43B;" d="M194.258,260.506c-0.41,1.925-1.076,3.78-1.996,5.52c-0.301,0.569,0.562,1.075,0.863,0.505
						c0.959-1.813,1.67-3.752,2.097-5.758C195.356,260.144,194.392,259.876,194.258,260.506z"/>
					<path style="fill:#EED43B;" d="M173.795,257.45c-0.158,2.071-0.599,4.108-1.293,6.065c-0.215,0.608,0.75,0.869,0.964,0.266
						c0.724-2.042,1.164-4.171,1.329-6.331C174.844,256.808,173.844,256.811,173.795,257.45z"/>
					<path style="fill:#EED43B;" d="M154.931,349.511c-0.603-2.494-0.961-5.034-1.07-7.598c-0.027-0.641-1.027-0.645-1,0
						c0.113,2.65,0.483,5.285,1.106,7.864C154.118,350.402,155.082,350.137,154.931,349.511z"/>
					<path style="fill:#EED43B;" d="M159.268,365.226c-2.219,0.052-4.407-0.364-6.458-1.213c-0.251-0.104-0.547,0.113-0.615,0.349
						c-0.082,0.286,0.101,0.512,0.349,0.615c2.126,0.88,4.424,1.302,6.724,1.249C159.91,366.211,159.913,365.211,159.268,365.226z"
						/>
					<path style="fill:#EED43B;" d="M161.762,393.652c-0.16-0.249-0.427-0.293-0.684-0.179c-1.274,0.562-2.414,1.442-3.279,2.533
						c-0.162,0.204-0.214,0.51,0,0.707c0.181,0.166,0.534,0.219,0.707,0c0.205-0.258,0.423-0.505,0.657-0.737
						c0.225-0.224,0.511-0.476,0.731-0.646c-0.025,0.019,0.045-0.034,0.053-0.04c0.035-0.026,0.07-0.052,0.105-0.077
						c0.07-0.051,0.141-0.101,0.213-0.149c0.136-0.092,0.275-0.181,0.417-0.265c0.291-0.173,0.592-0.326,0.902-0.463
						C161.823,394.23,161.897,393.861,161.762,393.652z"/>
				</g>
				<g>
					<defs>
						<path id="SVGID_00000181051765480547443410000015129341112353063587_" d="M132.063,246.345
							c4.366,3.059,10.177,4.104,15.415,3.922c1.154-0.04,2.335-0.155,3.511-0.349c-2.712-2.679-3.589-4.742-3.025-8.702
							c0.291-2.044,0.999-4.001,1.822-5.885c0.296-0.677,2.878-4.843,2.611-5.312c-0.076-0.133-0.169-0.258-0.288-0.371
							c-0.618-0.591-1.576-0.575-2.431-0.585c-3.199-0.037-6.193-1.045-8.792-2.899c-1.236-0.882-2.351-1.921-3.413-3.004
							c-0.608-0.62-1.724-2.779-2.652-2.855c-0.088-0.007-0.156,0.039-0.229,0.07c-1.091,4.376-1.181,8.466-3.816,12.386
							c-0.997,1.483-2.175,2.801-3.574,3.77c-0.717,0.688-1.593,1.19-2.779,1.407C126.299,241.264,128.908,244.134,132.063,246.345z
							"/>
					</defs>
					<clipPath id="SVGID_00000067928811481995802430000000243122168986792883_">
						<use xlink:href="#SVGID_00000181051765480547443410000015129341112353063587_"  style="overflow:visible;"/>
					</clipPath>
				</g>
				<path style="fill:#FFE0E0;" d="M151.943,233.663c6.63,3.908,10.628,11.278,12.206,18.81c1.578,7.532,1.042,15.327,0.499,23.003
					c3.734-7.165,6.016-15.045,10.095-22.019c4.08-6.974,10.62-13.243,18.665-13.992"/>
				<g>
					<path style="fill:none;stroke:#000000;stroke-width:0.5;stroke-linecap:round;stroke-miterlimit:10;" d="M271.361,200.426
						c-2.129-1.67-3.263-4.521-3.392-7.336c-0.129-2.815,0.647-5.601,1.745-8.165c0.467-1.091,0.996-2.16,1.308-3.312
						c0.513-1.893,0.414-3.93-0.014-5.847c-1.061-4.763-4.206-8.949-8.333-11.093c-1.425-0.74-2.961-1.251-4.292-2.169
						c-2.303-1.587-3.825-4.392-3.969-7.311c-0.144-2.919,1.096-5.879,3.23-7.714c-0.444-1.376,0.182-0.799,1.485-1.234
						c3.037-1.015,6.323-0.755,9.448-0.114c3.277,0.672,6.717,1.927,8.649,4.829c2.264,3.401,1.817,8.016,2.984,11.997
						c0.578,1.972,1.555,3.783,2.229,5.72c0.784,2.254,1.15,4.672,1.071,7.074c-0.043,1.315-0.227,2.652-0.792,3.822
						c-0.433,0.896-1.077,1.667-1.465,2.586c-1.035,2.452-0.023,5.365,1.488,7.517c1.511,2.153,3.507,3.906,4.827,6.197
						c1.32,2.291,1.801,5.483,0.181,7.543"/>
					<path style="fill:#FFC4C4;" d="M325.295,146.483c-1.892-6-3.841-12.118-7.425-17.165c-7.903-11.129-24.771-13.557-38.34-13.984
						c0.143-2.713,0.171-5.433,0.054-8.147c4.04,0.674,8.365-1.738,10.15-5.662c1.569-3.448,1.213-7.53,0.402-11.263
						c-0.869-3.996-2.351-8.074-5.352-10.641c-2.107-1.802-4.786-2.693-7.462-3.082c-4.673-0.679-8.535,0.203-12.121,3.469
						c-5.368,4.89-5.969,13.532-4.815,20.959c0.743,4.782,0.592,9.535,0.568,14.313c-13.911,0.227-32.329,2.254-40.697,14.039
						c-3.584,5.047-5.533,11.165-7.425,17.165c-2.168,6.875-4.069,12.499-6.133,19.412c3.067,8.939,16.767,16.353,23.207,15.481
						c1.28-5.065,2.322-7.86,3.602-12.925c0.084-0.334,0.178-0.686,0.413-0.926c0.514-0.526,1.441-0.187,1.811,0.462
						c1.266,2.215,0.14,6.649-0.08,9.035c-0.321,3.481-0.713,6.954-1.13,10.423c-0.825,6.863-1.756,13.713-2.483,20.59
						c-1.074,10.154-1.952,16.717-2.633,26.91l36.279,3.614c-0.005-5.27-0.077-10.585-0.067-15.986
						c0.76,0.06,1.521,0.119,2.281,0.179l0.053,0.178c0.37-0.029,0.74-0.058,1.11-0.087c0.37,0.029,0.74,0.058,1.11,0.087
						l0.053-0.178c0.76-0.06,1.521-0.119,2.281-0.179c0.009,5.75,0.018,10.994,0.085,15.986l36.126-2.409
						c-0.681-10.192-1.559-17.961-2.633-28.115c-0.727-6.877-1.658-13.726-2.483-20.59c-0.417-3.469-0.81-6.942-1.13-10.423
						c-0.22-2.385-1.346-6.82-0.08-9.035c0.371-0.649,1.297-0.988,1.811-0.462c0.234,0.24,0.328,0.591,0.413,0.926
						c0.71,2.811,1.768,8.043,2.478,10.854c2.454,0.436,8.82-1.683,11.45-2.835c5.725-2.508,11.45-5.451,14.109-10.139
						C330.943,160.702,327.063,152.091,325.295,146.483z"/>
					<path style="fill:none;stroke:#000000;stroke-linecap:round;stroke-linejoin:round;stroke-miterlimit:10;" d="M275.162,91.53
						c-2.044-0.071-3.917,2.015-3.763,4.189c0.155,2.175,2.301,3.935,4.312,3.536"/>
					<g>
						<path style="fill:#FFA3A3;" d="M259.178,124.047c-1.233,0.55-2.23,1.406-3.174,2.271c-4.899,4.485-9.008,9.632-11.601,15.319
							c-2.593,5.686-3.631,11.927-2.477,17.94c0.168,0.874,0.44,1.823,1.288,2.347c0.784,0.485,1.842,0.47,2.814,0.431
							c2.767-0.111,5.254-0.332,7.687-1.436c2.267-1.028,4.853-1.367,7.101-2.407c1.731-0.8,3.124-2.104,3.886-3.637
							c0.677-1.362,0.855-2.857,1.025-4.326c0.473-4.078,0.945-8.162,1.085-12.26c0.12-3.506,0.498-7.787-0.731-11.18
							C265.107,124.424,262.521,122.555,259.178,124.047z"/>
						<path style="fill:#FFA3A3;" d="M273.06,142.447c0.297,1.575,0.718,3.143,1.467,4.608c0.69,1.351,1.648,2.592,2.6,3.825
							c1.945,2.518,3.908,5.056,6.423,7.188c2.514,2.132,5.652,3.855,9.169,4.373c0.738,0.109,1.529,0.159,2.21-0.105
							c1.577-0.61,1.709-2.421,1.605-3.879c-0.428-6.005-0.88-12.108-3.327-17.76c-2.412-5.572-6.648-10.436-10.923-15.152
							c-3.032-3.344-7.197-2.284-8.325,1.539C272.473,132.118,272.091,137.315,273.06,142.447z"/>
						<path style="fill:#E36D78;" d="M288.391,193.429c-0.837-1.86-2.622-3.801-5.266-3.473c-1.133,0.141-2.108,0.726-2.767,1.499
							c-0.326,0.381-0.584,0.807-0.772,1.25c-0.246,0.58-0.218,1.686-0.55,2.292c0.368-0.758-0.433-1.991-1.058-2.544
							c-0.863-0.763-2.048-1.046-3.256-0.736c-1.162,0.298-1.979,1.089-2.445,2.002c-0.342,0.669-0.331,1.431-0.659,2.092
							c-0.765,1.543-0.474,0.119-0.471-0.618c0.009-2.138-2.453-4.248-5.03-2.971c-1.38,0.684-1.409,1.853-1.772,3.018
							c-0.263,0.843-1.425,2.252-1.538,0.729c-0.044-0.59,0.216-1.167,0.126-1.773c-0.368-2.484-3.614-3.222-5.875-1.879
							c-0.641,0.38-1.114,0.885-1.541,1.433c-0.26,0.333-0.969,1.875-1.415,1.941c-1.593,0.236-0.824-2.255-0.629-2.737
							c0.421-1.041,1.223-1.851,2.182-2.573c1.703-1.282-0.81-3.384-2.505-2.107c-2.119,1.595-3.507,3.806-3.582,6.23
							c-0.014,0.455,0.029,0.925,0.132,1.383c-0.467-0.214-1.043-0.272-1.645-0.038c-2.393,0.931-4.101,3.221-3.446,5.479
							c0.636,2.193,3.585,2.728,5.511,1.248c-0.1,0.35-0.037,0.836,0.069,1.16c0.312,0.952,1.21,1.708,2.267,2.086
							c2.576,0.919,4.576-0.565,5.273-2.591c0.172-0.499,0.143-1.281,0.646-1.64c0.833-0.595,0.604,0.671,0.737,1.28
							c0.222,1.017,0.999,1.891,2.069,2.402c2.254,1.077,4.651,0.282,5.939-1.477c0.216-0.294,0.477-0.691,0.623-1.001
							c0.174-0.369-0.239-0.906,0.145-0.605c0.274,0.215,0.408,0.904,0.65,1.193c0.736,0.88,1.941,1.435,3.212,1.503
							c3.042,0.164,4.034-1.882,4.317-3.957c0.086-0.63-0.146-0.645,0.208-0.065c0.266,0.436,0.361,0.909,0.684,1.334
							c0.688,0.906,1.835,1.593,3.109,1.731c2.307,0.251,4.501-1.477,4.146-3.422c0.256,0.087,0.497,0.157,0.631,0.195
							c1.162,0.326,2.533,0.209,3.448-0.528C290.327,198.533,289.234,195.301,288.391,193.429z M254.668,201.128
							c-0.143,0.404-0.131,1.229-0.434,1.564c-0.883,0.976-0.355-0.481-0.3-0.937c0.113-0.916-0.152-1.718-1.022-2.296
							c-0.972-0.645-2.183-0.612-3.282-0.198c-0.15,0.056-1.315,0.79-1.389,0.768c-0.803-0.232,1.268-1.48,1.602-1.61
							c0.407-0.158,0.659-0.386,0.794-0.642c0.555,0.622,1.344,1.07,2.422,1.178c2.458,0.248,3.867-1.389,4.99-2.941
							c0.193-0.266,0.754-1.628,1.371-1.117c0.142,0.118-0.205,1.394-0.203,1.601c0.006,0.7,0.215,1.391,0.674,1.955
							c-0.094-0.027-0.189-0.054-0.285-0.075C257.125,197.848,255.335,199.238,254.668,201.128z M271.051,200.782
							c-0.705-0.495-0.776-1.136-1.838-1.399c-0.885-0.219-1.852-0.08-2.662,0.283c-1.406,0.631-1.452,1.829-2.491,2.623
							c-1.779,1.361-1.335-1.347-1.834-2.182c-0.104-0.174-0.234-0.336-0.376-0.491c1.347,0.325,2.887,0.036,3.979-0.731
							c0.868-0.61,1.412-1.467,1.755-2.36c-0.024,0.321-0.031,0.575-0.02,0.625c0.353,1.691,2.199,2.751,4.223,2.359
							c0.265-0.051,0.522-0.13,0.767-0.231c-0.216,0.424-0.042,0.909-0.206,1.258c0.069,0.222,0.138,0.444,0.206,0.666
							C271.669,201.529,271.168,201.389,271.051,200.782z M274.428,197.784c0.256-0.369,0.453-0.778,0.606-1.181
							c0.136-0.469,0.262-0.94,0.379-1.413c0.336-0.219,0.467-0.077,0.391,0.426c0.414,0.606,0.783,1.31,1.279,1.86
							C276.218,197.339,275.259,197.462,274.428,197.784z M279.692,200.069c-0.357-0.61-0.384-1.171-0.784-1.669
							c0.305,0.02,0.641-0.001,1.024-0.085c0.021-0.005,0.04-0.012,0.061-0.018c-0.194,0.371-0.265,0.804-0.155,1.291
							c0.069,0.308,0.464,0.68,0.505,0.953C280.444,201.208,279.913,200.448,279.692,200.069z M285.878,197.38
							c-0.15,0.83-0.038,0.471-0.835,0.049c-0.279-0.148-0.677-0.312-1.009-0.407c-0.72-0.207-1.514-0.195-2.221-0.009
							c0.111-0.159,0.212-0.322,0.297-0.49c0.433-0.848,0.316-3.876,2.146-3.316C285.192,193.493,286.008,196.665,285.878,197.38z"
							/>
						<path style="fill:#FFA3A3;" d="M272.278,104.292c4.829-1.189,9.934-1.146,14.833-0.479c0.457-0.423,0.762-0.812,0.764-1.869
							c-0.336-0.03-0.671-0.077-1.007-0.099c-4.432-0.435-8.889-0.354-13.319,0.216c0.005-0.006,0.008-0.013,0.013-0.019
							c1.218-1.486,3.37-2.25,5.299-2.894c3.351-1.118,7.173-1.68,10.751-1.835c0.123-0.565,0.152-1.04,0.032-1.78
							c-3.342,0.109-6.669,0.599-9.832,1.51c-2.142,0.617-4.418,1.35-6.216,2.532c-1.751,1.151-2.764,2.836-3.392,4.597
							c-1.443,4.045-1.109,8.36-1.04,12.527c0.073,4.416,0.091,8.832,0.053,13.248c-0.003,0.313-0.011,0.626-0.015,0.939
							c-0.801,0.419-1.531,1.045-2.233,1.565c-0.803,0.594-1.588,1.206-2.353,1.835c-1.531,1.258-2.98,2.584-4.349,3.966
							c-0.828,0.837,0.596,2.048,1.432,1.204c2.269-2.291,4.77-4.412,7.47-6.345c-0.057,3.962-0.146,7.923-0.292,11.883
							c-0.04,1.096,1.985,1.095,2.025,0c0.151-4.126,0.253-8.252,0.309-12.38c0.173,0.051,0.346,0.103,0.517,0.16
							c0.731,0.244,1.435,0.553,2.105,0.898c1.428,0.735,2.664,1.679,3.714,2.774c0.344,0.358,1.074,0.301,1.432,0
							c0.421-0.354,0.344-0.845,0-1.204c-1.195-1.247-2.659-2.31-4.297-3.128c-0.828-0.413-1.704-0.757-2.604-1.044
							c-0.266-0.085-0.554-0.18-0.849-0.26c0.039-3.821,0.043-7.642-0.001-11.463c-0.024-2.079-0.077-4.158-0.101-6.237
							c-0.023-1.999-0.004-4.02,0.368-5.999C271.668,106.172,271.913,105.212,272.278,104.292z"/>
						<path style="fill:#E36D78;" d="M282.867,150.975c1.077,1.528,1.214,3.501,0.345,5.12c-0.87,1.619-2.726,2.839-4.806,3.146
							c-2.144,0.317-4.323-0.288-6.322-1.013c-3.559-1.29-7.191-3.288-8.234-6.428c-0.46-1.384-0.361-2.857-0.096-4.277
							c0.331-1.776,0.915-3.519,1.735-5.179c0.839-1.698,1.996-3.374,3.832-4.372c1.837-0.998,4.486-1.119,6.087,0.133
							c1.624,1.27,1.677,3.389,2.617,5.078c0.677,1.216,1.817,2.202,2.68,3.332c1.464,1.916,2.095,4.185,2.701,6.405"/>
						<path style="fill:#1F5DAD;" d="M287.796,163.09c2.022,2.279,3.327,5.277,3.084,8.368c-0.612,7.797-8.232,11.072-14.334,12.666
							c-3.842,1.004-8.398,1.173-11.527-0.955c-0.378-0.257-0.733-0.549-0.972-0.905c-0.755-1.127-0.135-2.606,0.95-3.523
							c1.085-0.916,2.542-1.435,3.88-2.073c1.281-0.61,2.853-1.589,3.457-3.035c0.698-1.669,0.194-4.049,0.2-5.824
							c0.007-1.993,0.335-4.128,1.624-5.571c0.582-0.652,1.325-1.118,2.092-1.494c3.035-1.487,6.666-1.632,9.467,0.442
							C286.464,161.738,287.165,162.379,287.796,163.09z"/>
						<path style="fill:#E36D78;" d="M275.452,162.319c-2.081-0.567-4.201-1.14-6.388-1.16c-1.479-0.013-2.942,0.227-4.393,0.467
							c-1.83,0.302-3.659,0.605-5.489,0.907c-3.847,0.636-7.702,1.273-11.45,2.239c-2.074,0.535-4.217,1.23-5.585,2.646
							c-1.219,1.261-1.661,2.953-1.603,4.577c0.058,1.624,0.571,3.209,1.082,4.776c0.445,1.368,0.892,2.739,1.525,4.053
							c1,2.075,2.802,4.185,5.442,4.478c2.48,0.276,4.785-1.17,6.335-2.821c1.55-1.651,2.684-3.596,4.53-5.016
							c2.827-2.174,6.899-2.802,9.994-4.699c1.482-0.908,2.698-2.082,3.901-3.246C274.99,167.936,280.982,163.482,275.452,162.319z"
							/>
						<path style="fill:#FFA3A3;" d="M247.212,206.73c-2.092-0.839-3.691-2.5-4.231-4.395c-0.54-1.895-0.01-3.986,1.402-5.531
							c0.363-0.398,0.807-0.827,0.737-1.325c-0.04-0.288-0.25-0.536-0.422-0.787c-1.396-2.039-0.347-4.763,1.661-6.401
							c2.008-1.638,4.748-2.445,7.395-3.205c1-0.287,1.999-0.574,2.999-0.861c1.208-0.347,2.432-0.697,3.705-0.785
							c2.351-0.162,4.77,0.64,6.358,2.107c2.461-1.67,6.201-1.85,8.872-0.426c0.197,0.105,0.395,0.22,0.624,0.262
							c0.553,0.1,1.06-0.247,1.528-0.515c2.503-1.432,6.384-0.662,7.861,1.561c1.397-0.675,2.968-1.164,4.579-1.135
							c1.611,0.029,3.26,0.642,4.13,1.783c0.869,1.141,0.761,2.817-0.445,3.715c1.483,0.516,2.746,1.569,3.135,2.879
							c0.389,1.31-0.228,2.841-1.612,3.525c0.514,0.305,1.041,0.622,1.384,1.065c0.676,0.875,0.469,2.082-0.221,2.948
							c-0.69,0.867-1.778,1.45-2.883,1.923c-0.417,0.179-0.857,0.356-1.141,0.669c-0.232,0.256-0.335,0.577-0.489,0.872
							c-0.571,1.092-1.9,1.831-3.301,2.02c-1.401,0.189-2.852-0.123-4.097-0.694c-0.219-0.101-0.451-0.213-0.7-0.198
							c-0.312,0.019-0.553,0.229-0.766,0.422c-1.276,1.16-3.165,2.287-4.887,1.656c-0.467-0.171-0.966-0.468-1.433-0.298
							c-0.244,0.089-0.401,0.287-0.569,0.459c-0.902,0.924-2.524,1.295-3.858,0.883c1.371,1.493,0.953,3.916-0.866,5.021
							c2.509,1.671,2.878,5.173,0.757,7.189c-0.937,0.89-2.77,1.419-3.679,0.508c-0.337-0.337-0.45-0.791-0.531-1.226
							c-0.42-2.264-0.268-4.603,0.443-6.815c-1.229,0.126-2.385-0.786-2.569-1.816c-0.185-1.03,0.435-2.075,1.349-2.777
							c0.914-0.702,2.088-1.114,3.263-1.443c-0.553-1.47,0.655-3.151,2.376-3.683c1.721-0.532,3.726-0.058,5.132,0.931
							c0.496-1.235,1.759-2.231,3.256-2.568c1.497-0.337,3.183-0.005,4.346,0.856c0.285-1.092,1.399-1.924,2.633-2.34
							c1.234-0.416,2.588-0.484,3.915-0.547c-1.712-0.026-2.775-1.8-2.346-3.195c0.429-1.395,1.834-2.41,3.243-3.229
							c-1.155,0.124-2.241-0.636-2.673-1.545c-0.432-0.909-0.352-1.928-0.213-2.9c-1.309,1.406-3.633,2.025-5.713,1.669
							c-2.08-0.356-3.871-1.609-4.851-3.193c-0.312,1.497-2.533,2.243-4.285,1.868c-1.752-0.375-3.107-1.509-4.369-2.597
							c-0.133,1.079-0.92,2.087-2.045,2.618c-1.332,0.628-3,0.571-4.44,0.146c-1.441-0.426-2.704-1.182-3.947-1.93
							c0.133,1.607-1.692,2.974-3.593,3.17c-1.901,0.196-3.776-0.499-5.391-1.365c0.45,1.945-1.421,4.039-3.767,4.216
							c1.771,0.456,3.156,1.833,3.394,3.378c0.239,1.545-0.68,3.175-2.254,3.996c2.284,0.335,3.571,2.942,2.24,4.54
							c-1.331,1.597-4.683,1.47-5.838-0.222"/>
						<path style="fill:#FFA3A3;" d="M274.928,176.256c-0.54-0.357-1.244-0.304-1.842-0.073c-0.598,0.231-1.13,0.619-1.699,0.922
							c-1.113,0.591-2.38,0.848-3.618,0.735c-1.254-0.115-2.465-0.598-3.723-0.633c-1.469-0.041-2.944,0.563-4.01,1.641
							c-0.285,0.288-0.56,0.693-0.788,1.153c-0.469-0.169-0.951-0.501-1.273-0.677c-0.766-0.417-1.523-0.85-2.272-1.3
							c-0.941-0.565-1.861-1.165-2.773-1.782c-0.03-0.098-0.074-0.192-0.147-0.274c-0.388-0.441-0.909-0.766-1.459-0.911
							c-0.068-0.018-0.143-0.027-0.215-0.041c-0.082-0.035-0.161-0.05-0.237-0.044c-0.462-0.053-0.959-0.003-1.339,0.257
							c-0.636,0.435-0.761,1.281-0.462,1.98c0.262,0.615,0.879,0.978,1.453,1.182c0.661,0.235,1.39,0.244,2.064,0.064
							c0.208-0.056,0.408-0.256,0.454-0.484c0.001-0.004,0-0.008,0-0.012c0.863,0.565,1.738,1.109,2.626,1.628
							c0.849,0.496,1.705,0.991,2.583,1.427c0.183,0.091,0.368,0.169,0.553,0.238c-0.236,1.045-0.14,2.128,0.643,2.778
							c0.64,0.531,1.531,0.595,2.324,0.412c0.793-0.183,1.524-0.582,2.276-0.906c1.26-0.543,2.597-0.88,3.951-0.997
							c0.943-0.081,1.903-0.057,2.819-0.313c0.853-0.238,2.971-1.704,4.073-3.199C275.661,177.982,275.934,176.922,274.928,176.256z
							"/>
						<path style="fill:#FFA3A3;" d="M284.735,181.87c-0.555,0.395-1.146,0.928-0.998,1.527c0.158,0.64,1.055,0.919,1.827,1.002
							c5.973,0.64,12.37-3.48,12.991-10.293c0.037-0.411,0.047-0.839-0.101-1.22c-0.186-0.478-0.591-0.812-0.979-1.123
							c-1.004-0.804-2.224-1.654-3.423-1.255c-0.932,0.309-1.522,1.298-1.828,2.287c-0.306,0.989-0.414,2.046-0.804,3
							C290.248,178.654,287.029,180.24,284.735,181.87z"/>
						<path style="fill:#61BA89;" d="M257.926,185.439c-1.402,0.971-2.745,2.046-3.637,3.376s-1.291,2.957-0.73,4.41
							c0.475,1.229,1.639,2.255,3.075,2.712c1.436,0.457,3.116,0.337,4.439-0.319c1.608-0.797,2.588-2.278,3.074-3.793
							c0.486-1.515,0.548-3.1,0.756-4.66c0.163-1.219,0.362-3.588-1.427-4.04C261.701,182.677,259.15,184.592,257.926,185.439z"/>
						<path style="fill:#61BA89;" d="M277.715,189.322c0.288,0.912,0.576,1.823,0.863,2.735c0.396,1.254,0.818,2.551,1.805,3.548
							c0.987,0.997,2.711,1.603,4.113,1.063c0.872-0.336,1.464-1.042,1.868-1.774c2.066-3.745-0.263-6.857-3.119-9.639
							c-1.165-1.135-2.308-2.176-4.167-1.373C276.599,184.952,277.127,187.46,277.715,189.322z"/>
					</g>
					<path style="fill:none;stroke:#000000;stroke-width:0.5;stroke-linecap:round;stroke-miterlimit:10;" d="M277.378,204.91
						c0.887,0.487,1.917,0.671,2.904,0.518"/>
					<path style="fill:none;stroke:#000000;stroke-width:0.5;stroke-linecap:round;stroke-miterlimit:10;" d="M292.719,193.934
						c0.554,0.031,1.112-0.035,1.646-0.195"/>
					<path style="fill:none;stroke:#000000;stroke-width:0.5;stroke-linecap:round;stroke-miterlimit:10;" d="M293.817,190.914
						c-0.274,0.195-0.548,0.391-0.822,0.586"/>
					<path style="fill:none;stroke:#000000;stroke-width:0.5;stroke-linecap:round;stroke-miterlimit:10;" d="M271.25,187.391
						c-0.335-0.584-0.873-1.032-1.486-1.237"/>
					<path style="fill:none;stroke:#000000;stroke-width:0.5;stroke-linecap:round;stroke-miterlimit:10;" d="M251.212,189.63
						c-0.388-0.103-0.794-0.129-1.191-0.076"/>
					<path style="fill:none;stroke:#000000;stroke-width:0.5;stroke-linecap:round;stroke-miterlimit:10;" d="M248.282,193.838
						c-0.432-0.21-0.898-0.344-1.371-0.392"/>
					<path style="fill:none;stroke:#000000;stroke-width:0.5;stroke-linecap:round;stroke-miterlimit:10;" d="M244.84,195.842
						c0.815,0.687,1.594,1.422,2.333,2.201"/>
					<path style="fill:none;stroke:#000000;stroke-width:0.5;stroke-linecap:round;stroke-miterlimit:10;" d="M248.557,201.489
						c-0.927-0.007-1.856,0.152-2.734,0.469"/>
					<path style="fill:none;stroke:#000000;stroke-width:0.5;stroke-linecap:round;stroke-miterlimit:10;" d="M258.964,186.98
						c-1.189,0.704-2.221,1.71-2.985,2.911c-0.31,0.488-0.582,1.022-0.657,1.605c-0.075,0.584,0.076,1.227,0.496,1.61"/>
					<path style="fill:none;stroke:#000000;stroke-width:0.5;stroke-linecap:round;stroke-miterlimit:10;" d="M257.426,194.223
						c0.806,0.091,1.633-0.043,2.378-0.383"/>
					<path style="fill:none;stroke:#000000;stroke-width:0.5;stroke-linecap:round;stroke-miterlimit:10;" d="M282.261,187.246
						c1.283,1.297,2.259,2.936,2.814,4.726"/>
					<path style="fill:none;stroke:#000000;stroke-width:0.5;stroke-linecap:round;stroke-miterlimit:10;" d="M254.037,163.541
						c1.739,0.311,3.343,1.407,4.334,2.962c0.421,0.661,0.736,1.4,1.221,2.009"/>
					<path style="fill:none;stroke:#000000;stroke-width:0.5;stroke-linecap:round;stroke-miterlimit:10;" d="M261.363,172.095
						c-0.109,0.538,0.165,1.067,0.313,1.594c0.173,0.616,0.175,1.285,0.005,1.902"/>
					<path style="fill:none;stroke:#000000;stroke-width:0.5;stroke-linecap:round;stroke-miterlimit:10;" d="M269.898,161.992
						c0.85,0.751,1.373,1.856,1.65,2.996c0.277,1.14,0.327,2.326,0.377,3.503"/>
					<path style="fill:none;stroke:#000000;stroke-width:0.5;stroke-linecap:round;stroke-miterlimit:10;" d="M243.844,168.1
						c-0.267,2.573-0.472,5.224,0.206,7.709c0.544,1.994,1.627,3.766,2.729,5.477"/>
					<path style="fill:none;stroke:#000000;stroke-width:0.5;stroke-linecap:round;stroke-miterlimit:10;" d="M270.488,155.155
						c-1.121-1.362-1.635-3.188-1.806-4.991c-0.292-3.089,0.36-6.272,1.834-8.949c0.173-0.314,0.363-0.629,0.636-0.848
						c0.965-0.777,2.414,0.043,2.998,1.172c0.583,1.129,0.658,2.478,1.127,3.666c0.738,1.871,2.372,3.174,3.294,4.949
						c0.626,1.207,0.901,2.618,0.777,3.991c-0.057,0.627-0.223,1.296-0.691,1.68c-0.304,0.25-0.693,0.344-1.069,0.423
						C274.981,156.792,272.518,157.622,270.488,155.155z"/>
					<path style="fill:none;stroke:#000000;stroke-width:0.5;stroke-linecap:round;stroke-miterlimit:10;" d="M278.156,181.744
						c2.76-0.937,5.57-2.019,7.727-4.081c2.157-2.062,3.531-5.34,2.682-8.293c-0.453-1.573-1.482-2.925-1.799-4.536
						c-0.632-3.215,1.44-5.841,0.076-9.206"/>
				</g>
				<g>
					<circle style="fill:#FFA3A3;" cx="106.925" cy="99.211" r="15.894"/>
					<text transform="matrix(1 0 0 1 100.4244 106.2799)" style="font-family:'MyriadPro-Regular'; font-size:24.0906px;">3.</text>
				</g>
				<g>
					<g>
						<path style="fill:#E36D78;" d="M366.227,81.877c1.696-0.145,3.399-0.206,5.1-0.182c0.092,0.001,0.193,0.006,0.262,0.067
							c0.077,0.067,0.09,0.18,0.097,0.282c0.508,7.035-0.466,14.088-0.556,21.141c-0.033,2.595,0.053,5.194-0.129,7.782
							c-0.998,0.465-2.166,0.097-3.202-0.275c-0.904-0.325-1.807-0.649-2.711-0.973c0.46-1.749,0.183-3.592,0.098-5.398
							c-0.086-1.826,0.027-3.656,0.14-5.481c0.217-3.486,0.433-6.972,0.65-10.458C366.008,87.885,365.965,81.899,366.227,81.877z"/>
						<path style="fill:#1F5DAD;" d="M382.793,88.844c-0.671-1.035-1.544-0.886-2.632-0.985c-3.508-0.322-7.013-0.7-10.518-1.049
							c-0.814-0.081-1.634-0.157-2.452-0.169c-0.003-0.346-0.016-0.689-0.051-1.025c-0.216-2.113-2.356-2.092-3.825-1.264
							c-0.394,0.222-0.532,0.597-0.538,0.999c-0.642-0.106-1.339,0.235-1.277,1.063c0.04,0.53,0.058,1.061,0.094,1.591
							c-0.271,0.102-0.541,0.205-0.817,0.292c-3.076,0.969-6.392,0.625-9.597,0.272c0.783,1.858,1.347,3.809,1.676,5.799
							c2.615-1.796,5.779-2.765,8.95-2.776c0.415,7.618,0.464,14.801-0.06,19.622c-0.085,0.784,0.763,1.243,1.448,1.103
							c0.906-0.185,1.812-0.37,2.718-0.555c0.495-0.101,0.831-0.625,0.84-1.103c0.107-5.664,0.204-11.328,0.289-16.992
							c0.017-1.125,0.033-2.25,0.049-3.375c2.053-1.213,4.623-1.292,6.986-0.879c2.467,0.432,4.831,1.333,7.292,1.797
							c0.333,0.063,0.683,0.116,1.004,0.009C383.387,90.88,383.255,89.557,382.793,88.844z"/>
						<g>
							<path style="fill:#E36D78;" d="M381.222,92.043c-0.006-0.004-0.013-0.006-0.02-0.01c0.033-0.307-0.142-0.641-0.541-0.642
								c-2.034-0.004-3.991,0.05-5.668,1.355c-1.627,1.266-1.838,3.522-1.467,5.427c0.113,0.578,0.342,1.125,0.474,1.698
								c0.109,0.475,0.159,0.96,0.271,1.434c0.3,1.274,0.603,2.472,0.665,3.79c0.055,1.16,0.055,2.321,0.119,3.48
								c0.033,0.598,0.065,1.198,0.054,1.796c-0.084,0.646-0.167,1.292-0.173,1.935c-0.007,0.739,1.112,0.733,1.144,0
								c0.019-0.428,0.053-0.847,0.085-1.265c0.094-0.89,0.237-1.781,0.279-2.67c0.062-1.333,0.02-2.624-0.138-3.949
								c-0.297-2.486-0.949-4.908-0.559-7.426c0.218-1.406,1.191-2.104,2.446-2.576c0.528-0.199,1.079-0.387,1.63-0.51
								c0.433-0.096,0.911-0.085,1.334-0.217C381.99,93.431,381.866,92.464,381.222,92.043z"/>
							<path style="fill:#E36D78;" d="M358.608,93.146c-0.755-0.571-1.566-0.52-2.445-0.315c-0.537,0.125-1.03,0.351-1.561,0.497
								c-0.509,0.139-1.117,0.385-1.637,0.398c-0.499,0.012-0.652,0.538-0.474,0.872c-0.076,0.029-0.156,0.055-0.23,0.084
								c-0.666,0.267-0.409,1.34,0.304,1.103c0.548-0.182,1.099-0.354,1.653-0.518c0.331-0.083,0.664-0.168,0.98-0.215
								c0.714-0.107,2.034-0.341,2.475,0.377c0.442,0.719,0.453,1.666,0.442,2.478c-0.013,0.98-0.006,1.96-0.007,2.94
								c-0.001,1.114-0.149,2.242-0.331,3.361c-0.128,0.492-0.248,0.984-0.348,1.477c-0.409,2.018-0.57,4.085-0.69,6.136
								c-0.01,0.741,1.101,0.73,1.144,0c0.021-0.361,0.051-0.72,0.079-1.08c0.074-0.66,0.181-1.326,0.247-1.967
								c0.117-1.125,0.295-2.247,0.475-3.364c0.026-0.162,0.055-0.324,0.083-0.486c0.01-0.048,0.017-0.097,0.028-0.145
								c0.461-2.121,1.103-4.161,1.249-6.343C360.157,96.738,360.11,94.281,358.608,93.146z"/>
						</g>
						<path style="fill:#E36D78;" d="M356.324,74.409c-1.498-1.693-3.55-3.229-5.797-2.982c-1.276,0.14-2.412,0.839-3.5,1.521
							c-1.518,0.951-3.21,2.021-4.227,3.537c-1.022,1.523-1.317,3.477-2.03,5.183c-1.287,3.082-3.092,6.246-2.525,9.537
							c0.498,2.888,2.247,6.208,3.419,8.906c0.693,1.595,2.223,2.66,3.773,3.448c1.968,1,4.313,1.692,6.361,0.865
							c6.504-2.628,2.014-10.438,2.214-15.056c0.122-2.814,2.593-4.158,3.995-6.308C359.91,80.138,358.431,76.79,356.324,74.409z"/>
						<path style="fill:#E36D78;" d="M377.3,74.409c1.498-1.693,3.55-3.229,5.797-2.982c1.276,0.14,2.413,0.839,3.501,1.521
							c1.518,0.951,3.21,2.021,4.227,3.537c1.022,1.523,1.317,3.477,2.03,5.183c1.286,3.082,3.092,6.246,2.525,9.537
							c-0.498,2.888-2.247,6.208-3.418,8.906c-0.693,1.595-2.223,2.66-3.773,3.448c-1.968,1-4.313,1.692-6.361,0.865
							c-6.504-2.628-2.014-10.438-2.214-15.056c-0.122-2.814-2.593-4.158-3.995-6.308C373.713,80.138,375.192,76.79,377.3,74.409z"
							/>
						<path d="M387.988,128.274c-0.054,0-0.107,0-0.161,0"/>
						<path style="fill:none;stroke:#000000;stroke-linecap:round;stroke-miterlimit:10;" d="M361.697,86.211
							c0.164,0.173,0.421,0.214,0.658,0.231c1.276,0.089,2.57-0.243,3.673-0.891c0.206-0.121,0.411-0.258,0.54-0.459
							c0.129-0.2,0.165-0.479,0.027-0.673c-0.081-0.114-0.209-0.185-0.337-0.242c-0.782-0.353-1.725-0.325-2.486,0.071
							c-0.548,0.286-0.993,0.745-1.544,1.026C361.924,85.429,361.319,85.811,361.697,86.211z"/>
						<path style="fill:none;stroke:#000000;stroke-linecap:round;stroke-miterlimit:10;" d="M352.696,84.626
							c-1.039,2.708-1.462,5.651-1.227,8.542"/>
						<path style="fill:none;stroke:#000000;stroke-linecap:round;stroke-miterlimit:10;" d="M381.773,84.931
							c0.933,2.179,1.305,4.594,1.072,6.953"/>
						<path style="fill:none;stroke:#000000;stroke-linecap:round;stroke-miterlimit:10;" d="M341.604,94.3
							c0.615,2.45,2.283,4.616,4.493,5.838"/>
						<path style="fill:none;stroke:#000000;stroke-linecap:round;stroke-miterlimit:10;" d="M348.864,101.05
							c0.753,0.33,1.619,0.395,2.413,0.182"/>
						<path style="fill:none;stroke:#000000;stroke-linecap:round;stroke-miterlimit:10;" d="M393.796,90.113
							c-0.261,2.688-1.035,5.325-2.269,7.727"/>
						<path style="fill:none;stroke:#000000;stroke-linecap:round;stroke-miterlimit:10;" d="M389.755,100.253
							c-0.413,0.5-0.9,0.939-1.441,1.298"/>
						<path style="fill:none;stroke:#000000;stroke-linecap:round;stroke-miterlimit:10;" d="M382.987,73.933
							c-0.99-0.332-2.106-0.013-2.963,0.582c-0.858,0.596-1.507,1.439-2.142,2.268"/>
						<polyline style="fill:none;stroke:#000000;stroke-width:0.5;stroke-linecap:round;stroke-miterlimit:10;" points="
							346.605,77.874 327.282,69.661 317.725,69.661 						"/>
						
							<line style="fill:none;stroke:#000000;stroke-width:0.5;stroke-linecap:round;stroke-miterlimit:10;" x1="315.249" y1="88.179" x2="344.028" y2="88.179"/>
						<polyline style="fill:none;stroke:#000000;stroke-width:0.5;stroke-linecap:round;stroke-miterlimit:10;" points="
							346.766,102.993 338.392,108.468 317.459,108.468 						"/>
						<polyline style="fill:none;stroke:#000000;stroke-width:0.5;stroke-linecap:round;stroke-miterlimit:10;" points="
							370.114,83.026 376.394,69.331 405.378,69.339 						"/>
						
							<line style="fill:none;stroke:#000000;stroke-width:0.5;stroke-linecap:round;stroke-miterlimit:10;" x1="376.442" y1="108.372" x2="404.412" y2="108.372"/>
					</g>
					<text transform="matrix(1 0 0 1 318.0083 106.3336)" style="font-family:'Roboto-Regular'; font-size:8.0369px;">2</text>
					<text transform="matrix(1 0 0 1 398.1138 66.8497)" style="font-family:'Roboto-Regular'; font-size:8.0369px;">4</text>
					<text transform="matrix(1 0 0 1 398.1138 105.6901)" style="font-family:'Roboto-Regular'; font-size:8.0369px;">5</text>
					<text transform="matrix(1 0 0 1 318.0083 67.3483)" style="font-family:'Roboto-Regular'; font-size:8.0369px;">1</text>
					<text transform="matrix(1 0 0 1 318.0083 85.4757)" style="font-family:'Roboto-Regular'; font-size:8.0369px;">3</text>
				</g>
				<g>
					<path style="fill:none;stroke:#000000;stroke-linecap:round;stroke-miterlimit:10;" d="M381.752,195.847
						c0.824,5.15-0.321,10.59-3.151,14.971c-1.406,2.176-4.618,6.049-6.648,7.658c-6.449,5.111-11.316,6.084-17.157,4.381"/>
					<path style="fill:none;stroke:#000000;stroke-linecap:round;stroke-miterlimit:10;" d="M381.686,203.031
						c-1.093-0.174-2.186-0.349-3.28-0.523"/>
					<path style="fill:#E36D78;" d="M343.22,227.426c0.118,0.068,0.265,0.054,0.401,0.036c1.647-0.216,3.263-0.673,4.781-1.35
						c0.196-0.088,0.419-0.217,0.435-0.432c0.013-0.169-0.112-0.314-0.227-0.438c-1.589-1.716-2.931-3.66-3.972-5.753
						c0.105,0.21,2.224,1.191,2.664,1.463c1.258,0.777,2.615,1.399,4.032,1.821c2.883,0.859,6.004,0.932,8.926,0.217
						c8.811-2.157,16.831-10.17,18.809-19.059c0.471-2.115,0.611-4.288,0.724-6.453c0.107-2.031,0.189-4.097-0.301-6.072
						c-0.526-2.119-1.681-4.018-2.82-5.881c-2.468-4.033-7.63-6.607-12.325-5.636c-3.961,0.819-7.057,4.563-7.581,8.502
						c-1.025-1.073-1.945-2.245-2.743-3.495c-0.674,1.329-1.426,2.619-2.25,3.86c-0.527,0.794-1.196,1.637-2.142,1.75
						c0.86-0.102,1.474,0.979,2.089,1.407c0.882,0.613,1.966,0.87,2.841,1.505c1.538,1.116,2.181,3.072,2.631,4.918
						c0.425,1.744,0.761,3.544,0.554,5.326c-0.207,1.783-1.028,3.566-2.512,4.576c-1.875,1.277-4.354,1.096-6.596,0.75
						s-4.618-0.792-6.712,0.08c-2.414,1.005-4.07,3.488-3.865,6.121c0.142,1.821,0.938,3.518,1.721,5.168
						c1.07,2.255,2.14,4.509,3.21,6.764C343.046,227.237,343.108,227.361,343.22,227.426z"/>
					<path style="fill:#D16C79;stroke:#000000;stroke-miterlimit:10;" d="M349.712,190.094c-0.013,0.072-0.024,0.148,0.002,0.216
						c0.067,0.177,0.314,0.181,0.5,0.143c1.353-0.281,2.566-1.177,3.234-2.388c0.389-0.705,0.92-1.841,0.872-2.673
						c-0.055-0.955-0.882-0.95-1.513-0.425C351.325,186.196,350.05,188.196,349.712,190.094z"/>
					<path style="fill:none;stroke:#000000;stroke-linecap:round;stroke-miterlimit:10;" d="M341.689,217.349
						c0.97,0.878,2.053,1.632,3.214,2.237"/>
					<path style="fill:none;stroke:#000000;stroke-linecap:round;stroke-miterlimit:10;" d="M347.135,207.137
						c2.083-0.677,4.486,0.387,6.497-0.48c1.226-0.528,2.089-1.737,2.363-3.044c0.273-1.307,0.001-2.689-0.589-3.887"/>
					<path style="fill:none;stroke:#000000;stroke-linecap:round;stroke-miterlimit:10;" d="M382.028,200.702
						c0.637-1.947,1.797-3.721,3.327-5.083"/>
					<path style="fill:none;stroke:#000000;stroke-linecap:round;stroke-miterlimit:10;" d="M355.691,204.288
						c-0.209-0.651-0.423-1.314-0.814-1.875c-0.391-0.561-0.993-1.017-1.675-1.063"/>
					<polyline style="fill:none;stroke:#000000;stroke-width:0.5;stroke-linecap:round;stroke-miterlimit:10;" points="
						363.678,182.945 372.683,174.914 391.665,174.914 					"/>
					
						<line style="fill:none;stroke:#000000;stroke-width:0.5;stroke-linecap:round;stroke-miterlimit:10;" x1="368.789" y1="208.985" x2="379.132" y2="219.327"/>
					<polyline style="fill:none;stroke:#000000;stroke-width:0.5;stroke-linecap:round;stroke-miterlimit:10;" points="
						356.135,221.976 357.595,233.658 388.016,233.658 					"/>
					<polyline style="fill:none;stroke:#000000;stroke-width:0.5;stroke-linecap:round;stroke-miterlimit:10;" points="
						342.506,222.856 337.152,228.21 315.249,228.21 					"/>
					
						<line style="fill:none;stroke:#000000;stroke-width:0.5;stroke-linecap:round;stroke-miterlimit:10;" x1="329.35" y1="187.627" x2="350.298" y2="187.627"/>
					<text transform="matrix(1 0 0 1 330.1314 185.1061)" style="font-family:'Roboto-Regular'; font-size:8.0369px;">1</text>
					<text transform="matrix(1 0 0 1 318.8872 226.0143)" style="font-family:'Roboto-Regular'; font-size:8.0369px;">2</text>
					<text transform="matrix(1 0 0 1 386.3775 173.2194)" style="font-family:'Roboto-Regular'; font-size:8.0369px;">3</text>
					<text transform="matrix(1 0 0 1 399.5113 217.3326)" style="font-family:'Roboto-Regular'; font-size:8.0369px;">4</text>
					<text transform="matrix(1 0 0 1 384.1158 231.5646)" style="font-family:'Roboto-Regular'; font-size:8.0369px;">5</text>
				</g>
				<g>
					
						<line style="fill:none;stroke:#FFA3A3;stroke-width:3;stroke-miterlimit:10;" x1="341.547" y1="252.049" x2="382.956" y2="252.049"/>
					
						<line style="fill:none;stroke:#FFA3A3;stroke-width:3;stroke-miterlimit:10;" x1="341.547" y1="245.59" x2="382.956" y2="245.59"/>
					
						<line style="fill:none;stroke:#FFA3A3;stroke-width:3;stroke-miterlimit:10;" x1="341.547" y1="259.424" x2="370.615" y2="259.424"/>
				</g>
				<g>
					
						<line style="fill:none;stroke:#FFA3A3;stroke-width:3;stroke-miterlimit:10;" x1="341.547" y1="131.501" x2="382.956" y2="131.501"/>
					
						<line style="fill:none;stroke:#FFA3A3;stroke-width:3;stroke-miterlimit:10;" x1="341.547" y1="125.043" x2="382.956" y2="125.043"/>
					
						<line style="fill:none;stroke:#FFA3A3;stroke-width:3;stroke-miterlimit:10;" x1="341.547" y1="138.877" x2="370.615" y2="138.877"/>
				</g>
				<g>
					
						<line style="fill:none;stroke:#FFA3A3;stroke-width:3;stroke-miterlimit:10;" x1="175.701" y1="128.579" x2="201.448" y2="128.579"/>
					
						<line style="fill:none;stroke:#FFA3A3;stroke-width:3;stroke-miterlimit:10;" x1="175.701" y1="122.121" x2="208.168" y2="122.121"/>
				</g>
				<g>
					
						<line style="fill:none;stroke:#FFA3A3;stroke-width:3;stroke-miterlimit:10;" x1="91.77" y1="131.782" x2="121.492" y2="131.782"/>
					
						<line style="fill:none;stroke:#FFA3A3;stroke-width:3;stroke-miterlimit:10;" x1="91.77" y1="125.324" x2="133.179" y2="125.324"/>
				</g>
				<g>
					<g>
						<g>
							<rect x="93.555" y="148.013" style="fill:#FFC4C4;" width="17.465" height="11.085"/>
							<rect x="118.38" y="148.013" style="fill:#FFC4C4;" width="17.465" height="11.085"/>
							<rect x="93.555" y="165.41" style="fill:#FFC4C4;" width="17.465" height="11.085"/>
							<rect x="118.38" y="165.41" style="fill:#FFC4C4;" width="17.465" height="11.085"/>
							<g>
								<rect x="93.555" y="182.039" style="fill:#FFC4C4;" width="17.465" height="11.085"/>
								<rect x="118.38" y="182.039" style="fill:#FFC4C4;" width="17.465" height="11.085"/>
							</g>
						</g>
						<polyline style="fill:none;stroke:#000000;stroke-linecap:round;stroke-miterlimit:10;" points="96.374,152.514 
							100.031,156.774 107.651,147.422 						"/>
						<polyline style="fill:none;stroke:#000000;stroke-linecap:round;stroke-miterlimit:10;" points="96.099,186.372 
							99.935,190.882 107.926,180.98 						"/>
						<polyline style="fill:none;stroke:#000000;stroke-linecap:round;stroke-miterlimit:10;" points="121.901,151.888 
							126.406,156.774 135.791,146.046 						"/>
						<polyline style="fill:none;stroke:#000000;stroke-linecap:round;stroke-miterlimit:10;" points="122.451,169.417 
							126.599,174.241 135.241,163.651 						"/>
						<g>
							
								<line style="fill:none;stroke:#000000;stroke-linecap:round;stroke-miterlimit:10;" x1="96.974" y1="166.702" x2="107.051" y2="175.478"/>
							
								<line style="fill:none;stroke:#000000;stroke-linecap:round;stroke-miterlimit:10;" x1="107.051" y1="166.702" x2="96.974" y2="175.478"/>
						</g>
						<g>
							
								<line style="fill:none;stroke:#000000;stroke-linecap:round;stroke-miterlimit:10;" x1="121.8" y1="183.331" x2="131.876" y2="192.107"/>
							
								<line style="fill:none;stroke:#000000;stroke-linecap:round;stroke-miterlimit:10;" x1="131.876" y1="183.331" x2="121.8" y2="192.107"/>
						</g>
					</g>
					<g>
						<g>
							<rect x="141.236" y="148.013" style="fill:#FFC4C4;" width="17.465" height="11.085"/>
							<rect x="166.062" y="148.013" style="fill:#FFC4C4;" width="17.465" height="11.085"/>
							<rect x="141.236" y="165.41" style="fill:#FFC4C4;" width="17.465" height="11.085"/>
							<rect x="166.062" y="165.41" style="fill:#FFC4C4;" width="17.465" height="11.085"/>
							<g>
								<rect x="141.236" y="182.039" style="fill:#FFC4C4;" width="17.465" height="11.085"/>
								<rect x="166.062" y="182.039" style="fill:#FFC4C4;" width="17.465" height="11.085"/>
							</g>
						</g>
						<polyline style="fill:none;stroke:#000000;stroke-linecap:round;stroke-miterlimit:10;" points="144.055,152.514 
							147.713,156.774 155.333,147.422 						"/>
						<polyline style="fill:none;stroke:#000000;stroke-linecap:round;stroke-miterlimit:10;" points="143.78,186.372 
							147.616,190.882 155.608,180.98 						"/>
						<polyline style="fill:none;stroke:#000000;stroke-linecap:round;stroke-miterlimit:10;" points="169.582,151.888 
							174.087,156.774 183.473,146.046 						"/>
						<g>
							
								<line style="fill:none;stroke:#000000;stroke-linecap:round;stroke-miterlimit:10;" x1="144.656" y1="166.702" x2="154.732" y2="175.478"/>
							
								<line style="fill:none;stroke:#000000;stroke-linecap:round;stroke-miterlimit:10;" x1="154.732" y1="166.702" x2="144.656" y2="175.478"/>
						</g>
					</g>
				</g>
				<g>
					<g>
						<path style="fill:#1F5DAD;" d="M225.247,98.593c-2.048-0.182-3.612-1.797-4.681-3.443c-1.397-2.151-2.545-4.486-3.783-6.731
							c-0.665-1.207-2.514-0.128-1.848,1.08c0.719,1.305,1.439,2.61,2.158,3.915c0.642,1.165,1.266,2.348,2.043,3.43
							c1.385,1.93,3.31,3.541,5.695,3.853C225,100.001,225.148,99.3,225.247,98.593z"/>
						<path style="fill:#2C61A6;" d="M222.697,102.263c-1.401-2.126-2.68-4.331-3.799-6.619c-0.574-1.175-1.101-2.369-1.6-3.577
							c-0.478-1.156-0.976-2.242-1.783-3.209c-0.883-1.059-2.39,0.462-1.513,1.513c0.755,0.906,1.145,2.069,1.596,3.142
							c0.488,1.16,1.005,2.307,1.563,3.435c1.106,2.238,2.363,4.396,3.74,6.478C221.502,103.044,222.088,102.633,222.697,102.263z"
							/>
						<path style="fill:#222221;" d="M217.253,102.341c0.695,0.158,1.389,0.316,2.085,0.472c0.208-2.108-0.548-4.044-1.377-5.98
							c-0.857-2.002-1.643-4.067-2.786-5.929c-0.719-1.172-2.571-0.098-1.848,1.08c1.028,1.675,1.75,3.513,2.522,5.314
							C216.514,98.85,217.379,100.599,217.253,102.341z"/>
					</g>
					<path style="fill:#1F5DAD;" d="M191.54,104.157c0.457,1.193,1.897,1.798,3.161,1.609c1.264-0.189,2.35-1.01,3.207-1.958
						c2.623-2.9,3.878-6.927,4.917-10.628c1.402-4.993,2.924-9.952,4.564-14.871c0.62-1.86,1.262-3.722,2.136-5.481
						c0.445-0.897,0.95-1.766,1.538-2.577c0.57-0.788,1.275-1.446,1.837-2.253c0.3-0.431,0.58-1.023,0.27-1.449
						c-0.165-0.226-0.458-0.327-0.737-0.341c-0.741-0.037-1.406,0.427-1.978,0.899c-0.437,0.361-0.861,0.742-1.219,1.181
						c-0.568,0.696-0.955,1.519-1.336,2.333c-0.205,0.438-0.411,0.878-0.563,1.337c-0.359,1.085-0.424,2.241-0.797,3.323
						c-0.382,1.106-0.699,2.258-1.052,3.382c-0.775,2.475-1.521,4.962-2.419,7.396c-1.059,2.872-2.36,5.687-4.104,8.212
						c-0.858,1.242-1.845,2.633-3.034,3.584c-1.051,0.841-2.405,0.992-3.405,1.921C191.565,100.67,191.07,102.932,191.54,104.157z"
						/>
					<path style="fill:#E36D78;" d="M221.084,89.531c-1.344,0.753-2.861,1.223-4.091,2.155c-0.983,0.745-1.737,1.752-2.669,2.559
						c-2.596,2.247-6.104,2.646-9.28,3.575c-3.14,0.919-5.528,3.265-8.724,3.896c-2.972,0.587-6.221-0.339-8.983,0.906
						c-1.363,0.615-2.453,1.701-3.734,2.473c-1.28,0.772-2.972,1.2-4.239,0.405c-1.552-0.974-1.654-3.156-1.582-4.987
						c0.148-3.737,0.296-7.474,0.444-11.211c0.167-4.231,0.407-8.696,2.728-12.237c2.69-4.104,7.69-6.127,12.553-6.783
						c3.806-0.513,8.342-0.893,12.104-0.045c0.408,0.092,0.785,0.285,1.188,0.396c0.631,0.172,1.301,0.134,1.945,0.025
						c0.811-0.137,1.602-0.386,2.346-0.737c2.095-0.988,4.515-1.146,6.789-1.515c2.537-0.411,5.085-0.785,7.655-0.906
						c4.592-0.217,9.672,3.568,6.911,8.48c-1.447,2.575-4.274,3.863-5.859,6.479c-1.4,2.311-2.456,4.978-4.739,6.594
						C221.602,89.226,221.346,89.384,221.084,89.531z"/>
					<path style="fill:none;stroke:#222221;stroke-width:0.5;stroke-linecap:round;stroke-miterlimit:10;" d="M226.45,70.73
						c2.936-2.534,5.871-5.068,8.807-7.602h18.601"/>
					
						<line style="fill:none;stroke:#222221;stroke-width:0.5;stroke-linecap:round;stroke-miterlimit:10;" x1="185.391" y1="86.592" x2="161.367" y2="86.592"/>
					<polyline style="fill:none;stroke:#222221;stroke-width:0.5;stroke-linecap:round;stroke-miterlimit:10;" points="
						193.477,104.759 185.156,113.561 167.042,113.561 					"/>
					<polyline style="fill:none;stroke:#222221;stroke-width:0.5;stroke-linecap:round;stroke-miterlimit:10;" points="
						210.991,67.708 203.406,62.302 184.237,62.302 					"/>
					<path style="fill:none;stroke:#000000;stroke-linecap:round;stroke-miterlimit:10;" d="M224.055,80.369
						c-0.262,2.983-2.198,5.763-4.905,7.042c-0.941,0.445-1.964,0.72-2.852,1.262c-1.323,0.808-2.23,2.13-3.289,3.263
						c-1.059,1.132-2.465,2.151-4.01,2.023"/>
					<path style="fill:none;stroke:#000000;stroke-linecap:round;stroke-miterlimit:10;" d="M181.655,102.485
						c1.495-1.322,3.379-2.198,5.353-2.49c1.724-0.255,3.481-0.073,5.221-0.166c1.74-0.093,3.567-0.517,4.804-1.744"/>
					<path style="fill:none;stroke:#000000;stroke-linecap:round;stroke-miterlimit:10;" d="M190.598,73.88
						c-2.675,1.485-5.128,3.369-7.252,5.571"/>
					<path style="fill:none;stroke:#000000;stroke-linecap:round;stroke-miterlimit:10;" d="M182.525,81.433
						c-1.72,5.283-2.181,10.879-2.632,16.416"/>
					<path style="fill:none;stroke:#000000;stroke-linecap:round;stroke-miterlimit:10;" d="M206.962,75.297
						c-2.083,5.67-1.867,11.902-3.078,17.82"/>
					<path style="fill:none;stroke:#000000;stroke-linecap:round;stroke-miterlimit:10;" d="M203.704,95.506
						c-0.419,1.843-1.54,3.518-3.086,4.607"/>
					<text transform="matrix(1 0 0 1 185.4507 60.3688)" style="font-family:'Roboto-Regular'; font-size:9.054px;">1</text>
					<text transform="matrix(1 0 0 1 161.7642 84.5197)" style="font-family:'Roboto-Regular'; font-size:9.054px;">2</text>
					<text transform="matrix(1 0 0 1 247.9903 60.6744)" style="font-family:'Roboto-Regular'; font-size:9.054px;">3</text>
					<text transform="matrix(1 0 0 1 167.3262 112.2233)" style="font-family:'Roboto-Regular'; font-size:9.054px;">4</text>
				</g>
			</g>
			<g>
				<path style="fill:#61BA89;" d="M379.017,273.338c-0.966-1.811-2.246-3.421-4.229-4.572c-1.06-0.615-2.306-0.901-3.513-0.689
					c-2.814,0.496-3.704,3.151-3.898,5.56c-0.217,2.685,0.212,5.457,1.49,7.828c1.018,1.888,2.533,3.465,3.625,5.312
					c0.908,1.535,1.508,3.229,2.235,4.858c1.792,4.018,4.972,7.367,6.667,11.33c1.792,4.189,3.76,8.496,3.945,13.132
					c-0.157-3.939,1.08-7.788,1.518-11.705c0.623-5.558-0.928-10.764-1.831-16.172c-0.458-2.744-2.033-5.096-3.083-7.626
					C380.946,278.194,380.227,275.608,379.017,273.338z"/>
				<path style="fill:none;stroke:#111314;stroke-linecap:round;stroke-miterlimit:10;" d="M385.234,316.592
					c-0.01-5.814-0.091-11.675-1.147-17.41c-1.092-5.928-3.698-10.543-6.286-15.874"/>
				<path style="fill:#61BA89;" d="M404.95,272.758c0.213-3.501-0.415-7.741-3.929-8.938c-1.536-0.523-3.223-0.235-4.628,0.577
					c-2.542,1.47-3.853,4.161-4.688,6.868c-1.564,5.068-1.71,10.45-1.764,15.753c-0.098,9.593-0.132,19.279,0.561,28.847
					c1.952-6.088,2.773-12.24,5.572-18.043C400.103,289.473,404.368,282.307,404.95,272.758z"/>
				<path style="fill:none;stroke:#111314;stroke-linecap:round;stroke-miterlimit:10;" d="M398.875,275.267
					c-5.318,13.042-8.177,27.078-8.414,41.159"/>
				<path style="fill:#61BA89;" d="M403.054,304.631c2.861-3.001,5.52-6.194,7.954-9.55c0.795-1.096,1.58-2.241,1.919-3.551
					c0.604-2.334-0.318-4.872-1.753-6.765c-0.37-0.487-0.825-0.915-1.377-1.179c-2.44-1.166-4.597,1.294-5.858,3.464
					c-4.292,7.383-10.711,18.669-10.642,27.378C395.966,314.568,401.073,306.71,403.054,304.631z"/>
				<path style="fill:none;stroke:#111314;stroke-linecap:round;stroke-miterlimit:10;" d="M405.943,293.941
					c-5.116,6.679-10.344,14.189-12.251,22.504"/>
				<polygon style="fill:#111314;" points="378.205,337.545 375.66,313.4 405.946,313.4 403.454,337.545 				"/>
			</g>
		</g>
		<g>
			<path style="fill:#1F5DAD;" d="M317.505,314.53v0.607c0,0.976,0.057,1.936,0.155,2.881c-4.552-1.708-9.727-2.008-12.568,2.178
				c-1.912,2.816-0.95,6.616,1.259,8.954c2.301,2.435,5.823,3.557,9.043,4.073c2.216,0.356,4.372,0.36,6.605,0.241
				c0.716-0.038,1.821-0.151,2.382,0.438c0.6,0.629-0.052,1.618-0.418,2.198c-0.337,0.533-0.285,1.05-0.032,1.452h2.659
				c0.391-0.63,0.715-1.324,0.886-2.043c1.198,0.828,2.476,1.512,3.816,2.043h13.119c8.013-3.179,13.78-12.01,13.78-22.415v-0.607
				H317.505z M318.59,330.557c-1.745-0.071-3.463-0.356-5.142-0.836c-2.633-0.753-5.549-2.165-6.265-5.06
				c-0.758-3.064,2.159-4.808,4.855-4.784c2.117,0.019,4.242,0.667,6.214,1.615c0.796,3.335,2.202,6.373,4.072,8.942
				C321.081,330.443,319.821,330.607,318.59,330.557z"/>
			<path style="fill:none;stroke:#111314;stroke-linecap:round;stroke-miterlimit:10;" d="M354.323,318.531
				c-1.077,4.477-3.065,8.734-5.808,12.433"/>
			<path style="fill:none;stroke:#111314;stroke-linecap:round;stroke-miterlimit:10;" d="M346.782,333.183
				c-0.83,0.835-1.777,1.553-2.806,2.125"/>
		</g>
	</g>
</g>
</svg>
